<svg xmlns="http://www.w3.org/2000/svg" viewBox="0 0 49.79 49.79" width="42px" height="42px"><defs><style>.cls-1{fill:none;}.cls-2{fill:#fff;}</style></defs><title>avion</title><g id="Calque_2" data-name="Calque 2"><g id="Calque_1-2" data-name="Calque 1"><rect class="cls-1" width="49.79" height="49.79"/><polygon class="cls-2" points="11.69 31.01 15.19 43.38 39.71 9.46 11.69 31.01"/><path d="M15.19,44.45l-.19,0a1.08,1.08,0,0,1-.85-.77L10.65,31.3A1.08,1.08,0,0,1,11,30.15l28-21.55a1.08,1.08,0,0,1,1.53,1.48L16.06,44A1.08,1.08,0,0,1,15.19,44.45Zm-2.27-13,2.7,9.53L34.51,14.82Z"/><polygon class="cls-2" points="3.31 24.55 41.11 7.91 30.64 45.04 20.28 36.67 39.46 9.75 11.58 31.27 3.31 24.55"/><path d="M30.64,46.12a1.08,1.08,0,0,1-.68-.24L19.61,37.51a1.08,1.08,0,0,1-.2-1.46l15-21L12.23,32.12a1.08,1.08,0,0,1-1.34,0L2.63,25.38a1.08,1.08,0,0,1,.25-1.82L40.68,6.92A1.08,1.08,0,0,1,42.15,8.2L31.68,45.34a1.08,1.08,0,0,1-1,.78Zm-8.9-9.65L30,43.18l8.57-30.4ZM5.36,24.82l6.24,5.07L35.19,11.69Z"/></g></g></svg>