<svg xmlns="http://www.w3.org/2000/svg" viewBox="0 0 49.79 49.79" width="42px" height="42px"><defs><style>.cls-1{fill:none;}.cls-2{fill:#fff;}</style></defs><title>bagues</title><g id="Calque_2" data-name="Calque 2"><g id="Calque_1-2" data-name="Calque 1"><rect class="cls-1" width="49.79" height="49.79"/><path class="cls-2" d="M28.6,22.24a7.48,7.48,0,0,0-3.79,1,7.53,7.53,0,1,0-2.62,10.42A7.52,7.52,0,1,0,28.6,22.24Z"/><path d="M18.39,35.88a8.6,8.6,0,1,1,8.6-8.6A8.61,8.61,0,0,1,18.39,35.88Zm0-15.05a6.45,6.45,0,1,0,6.45,6.45A6.46,6.46,0,0,0,18.39,20.82Z"/><path d="M28.6,38.45a8.6,8.6,0,1,1,8.6-8.6A8.61,8.61,0,0,1,28.6,38.45Zm0-15.05A6.45,6.45,0,1,0,35,29.85,6.46,6.46,0,0,0,28.6,23.4Z"/><path d="M21.47,21.42l-.25,0L18,20.62a1.08,1.08,0,0,1-.83-1l-.34-5.26a1.08,1.08,0,0,1,1.31-1.12l6.38,1.42a1.08,1.08,0,0,1,.69,1.61L22.4,20.9A1.08,1.08,0,0,1,21.47,21.42Zm-2.23-2.71,1.72.4,1.6-2.65L19,15.68Z"/><path class="cls-2" d="M19.22,18.67l1.72.4,1.6-2.65L19,15.64Z"/></g></g></svg>