<svg xmlns="http://www.w3.org/2000/svg" viewBox="0 0 49.79 49.79" width="42px" height="42px"><defs><style>.cls-1{fill:none;}.cls-2{fill:#fff;}</style></defs><title>balle</title><g id="Calque_2" data-name="Calque 2"><g id="Calque_1-2" data-name="Calque 1"><rect class="cls-1" width="49.79" height="49.79"/><circle class="cls-2" cx="24.26" cy="25.35" r="15.08"/><path d="M24.26,41.51A16.16,16.16,0,1,1,40.42,25.35,16.18,16.18,0,0,1,24.26,41.51Zm0-30.17a14,14,0,1,0,14,14A14,14,0,0,0,24.26,11.35Z"/><path class="cls-2" d="M27.12,25.35a15.06,15.06,0,0,0,6.11,12.12,15.08,15.08,0,0,0,0-24.25A15.06,15.06,0,0,0,27.12,25.35Z"/><path d="M33.23,38.55a1.08,1.08,0,0,1-.64-.21,16.16,16.16,0,0,1,0-26,1.08,1.08,0,0,1,1.28,0,16.16,16.16,0,0,1,0,26A1.08,1.08,0,0,1,33.23,38.55Zm0-24a14,14,0,0,0,0,21.51,14,14,0,0,0,0-21.51Z"/><path class="cls-2" d="M9.18,25.35a15.06,15.06,0,0,0,6,12,15.08,15.08,0,0,0,0-24.05A15.06,15.06,0,0,0,9.18,25.35Z"/><path d="M15.16,38.46a1.07,1.07,0,0,1-.65-.22,16.16,16.16,0,0,1,0-25.77,1.07,1.07,0,0,1,1.3,0,16.16,16.16,0,0,1,0,25.77A1.07,1.07,0,0,1,15.16,38.46Zm0-23.75a14,14,0,0,0,0,21.29,14,14,0,0,0,0-21.29Z"/><path d="M32.19,17.79a.5.5,0,0,1-.33-.12l-3-2.6a.5.5,0,1,1,.66-.75l3,2.6a.5.5,0,0,1-.33.88Z"/><path d="M30,21.83a.5.5,0,0,1-.18,0L26,20.35a.5.5,0,0,1,.35-.94l3.87,1.45a.5.5,0,0,1-.18,1Z"/><path d="M28.68,26.5H25.43a.5.5,0,0,1,0-1h3.25a.5.5,0,0,1,0,1Z"/><path d="M26.43,32.27a.5.5,0,0,1-.23-.94l3.18-1.69a.5.5,0,0,1,.47.88l-3.18,1.69A.49.49,0,0,1,26.43,32.27Z"/><path d="M28.94,36.73a.5.5,0,0,1-.35-.85l2.3-2.3a.5.5,0,0,1,.71.71l-2.3,2.3A.5.5,0,0,1,28.94,36.73Z"/><path d="M16.46,17.79a.5.5,0,0,1-.33-.88l3-2.6a.5.5,0,1,1,.66.75l-3,2.6A.5.5,0,0,1,16.46,17.79Z"/><path d="M18.64,21.83a.5.5,0,0,1-.18-1l3.87-1.45a.5.5,0,0,1,.35.94L18.82,21.8A.5.5,0,0,1,18.64,21.83Z"/><path d="M23.22,26.5H20a.5.5,0,0,1,0-1h3.25a.5.5,0,0,1,0,1Z"/><path d="M22.22,32.27a.49.49,0,0,1-.23-.06l-3.18-1.69a.5.5,0,0,1,.47-.88l3.18,1.69a.5.5,0,0,1-.23.94Z"/><path d="M19.71,36.73a.5.5,0,0,1-.35-.15l-2.3-2.3a.5.5,0,0,1,.71-.71l2.3,2.3a.5.5,0,0,1-.35.85Z"/></g></g></svg>