<svg xmlns="http://www.w3.org/2000/svg" viewBox="0 0 49.79 49.79" width="42px" height="42px"><defs><style>.cls-1{fill:none;}.cls-2{fill:#fff;}</style></defs><title>berceau</title><g id="Calque_2" data-name="Calque 2"><g id="Calque_1-2" data-name="Calque 1"><rect class="cls-1" width="49.79" height="49.79"/><path class="cls-2" d="M10.6,23.25a14.22,14.22,0,0,0,28.44,0Z"/><path d="M24.82,38.27a15.38,15.38,0,0,1-15.29-15,1.08,1.08,0,0,1,1.08-1.1H39a1.08,1.08,0,0,1,1.08,1.1A15.38,15.38,0,0,1,24.82,38.27ZM11.75,24.33a13.15,13.15,0,0,0,26.15,0Z"/><path class="cls-2" d="M30.33,14.51v0H23.54v8.64H39A9.63,9.63,0,0,0,30.33,14.51Z"/><path d="M39,24.18H23.54a1.08,1.08,0,0,1-1.08-1.08V14.47a1.08,1.08,0,0,1,1.08-1.08h5.67a2.59,2.59,0,0,1,.41,0h.71a1.07,1.07,0,0,1,.38.07A10.72,10.72,0,0,1,40.07,23,1.08,1.08,0,0,1,39,24.18ZM24.62,22H37.73a8.57,8.57,0,0,0-7.49-6.45l-.17,0H24.62Z"/><path d="M10.91,23.87a1.08,1.08,0,0,1-1.08-1.08V15l-4.4-2.26a1.08,1.08,0,0,1,1-1.91l5,2.56a1.08,1.08,0,0,1,.58,1v8.46A1.08,1.08,0,0,1,10.91,23.87Z"/><circle class="cls-2" cx="15.67" cy="39.82" r="2.21"/><path d="M15.67,43.11a3.28,3.28,0,1,1,3.28-3.28A3.29,3.29,0,0,1,15.67,43.11Zm0-4.41a1.13,1.13,0,1,0,1.13,1.13A1.13,1.13,0,0,0,15.67,38.7Z"/><circle class="cls-2" cx="33.82" cy="39.82" r="2.21"/><path d="M33.82,43.11a3.28,3.28,0,1,1,3.28-3.28A3.29,3.29,0,0,1,33.82,43.11Zm0-4.41a1.13,1.13,0,1,0,1.13,1.13A1.13,1.13,0,0,0,33.82,38.7Z"/></g></g></svg>