<svg xmlns="http://www.w3.org/2000/svg" viewBox="0 0 49.79 49.79" width="42px" height="42px"><defs><style>.cls-1{fill:none;}.cls-2{fill:#fff;}</style></defs><title>bobine</title><g id="Calque_2" data-name="Calque 2"><g id="Calque_1-2" data-name="Calque 1"><rect class="cls-1" width="49.79" height="49.79"/><ellipse class="cls-2" cx="25.73" cy="41.12" rx="11.73" ry="4.21"/><path d="M25.73,46.4c-6.36,0-12.8-1.81-12.8-5.28s6.44-5.28,12.8-5.28,12.8,1.82,12.8,5.28S32.09,46.4,25.73,46.4Zm0-8.42c-6.89,0-10.65,2.07-10.65,3.13s3.76,3.13,10.65,3.13,10.65-2.07,10.65-3.13S32.62,38,25.73,38Z"/><ellipse class="cls-2" cx="25.73" cy="39.4" rx="11.73" ry="4.21"/><path d="M25.73,44.68c-6.36,0-12.8-1.81-12.8-5.28s6.44-5.28,12.8-5.28,12.8,1.81,12.8,5.28S32.09,44.68,25.73,44.68Zm0-8.42c-6.89,0-10.65,2.07-10.65,3.13s3.76,3.13,10.65,3.13,10.65-2.07,10.65-3.13S32.62,36.27,25.73,36.27Z"/><path class="cls-2" d="M16.06,15.87V37c0,1.92,4.33,3.47,9.67,3.47S35.4,38.94,35.4,37V15.87Z"/><path d="M25.73,41.57C20.39,41.57,15,40,15,37V15.87a1.08,1.08,0,0,1,1.08-1.08H35.4a1.08,1.08,0,0,1,1.08,1.08V37C36.48,40,31.07,41.57,25.73,41.57Zm-8.6-24.63V37c0,.72,2.92,2.4,8.6,2.4s8.6-1.68,8.6-2.4V16.94Z"/><ellipse class="cls-2" cx="25.73" cy="15.55" rx="11.73" ry="4.21"/><path d="M25.73,20.83c-6.36,0-12.8-1.81-12.8-5.28s6.44-5.28,12.8-5.28,12.8,1.81,12.8,5.28S32.09,20.83,25.73,20.83Zm0-8.42c-6.89,0-10.65,2.07-10.65,3.13s3.76,3.13,10.65,3.13,10.65-2.07,10.65-3.13S32.62,12.42,25.73,12.42Z"/><ellipse class="cls-2" cx="25.73" cy="13.92" rx="11.73" ry="4.21"/><path d="M25.73,19.21c-6.36,0-12.8-1.81-12.8-5.28s6.44-5.28,12.8-5.28,12.8,1.81,12.8,5.28S32.09,19.21,25.73,19.21Zm0-8.42c-6.89,0-10.65,2.07-10.65,3.13s3.76,3.13,10.65,3.13S36.38,15,36.38,13.92,32.62,10.79,25.73,10.79Z"/><ellipse cx="25.73" cy="13.44" rx="3.56" ry="1.28"/><path d="M18.46,30.24A22.54,22.54,0,0,1,16,30.12l.12-1c.12,0,12.2,1.34,18.91-6.43l.76.65C30.55,29.41,22.49,30.24,18.46,30.24Z"/><path d="M18.46,33.59A22.54,22.54,0,0,1,16,33.47l.12-1c.12,0,12.2,1.33,18.91-6.43l.76.65C30.55,32.76,22.49,33.59,18.46,33.59Z"/><path d="M18.46,37.42A22.51,22.51,0,0,1,16,37.3l.12-1c.12,0,12.2,1.33,18.91-6.43l.76.65C30.55,36.59,22.49,37.42,18.46,37.42Z"/><path d="M18.46,26.12A22.54,22.54,0,0,1,16,26l.12-1c.12,0,12.2,1.34,18.91-6.43l.76.65C30.55,25.28,22.49,26.12,18.46,26.12Z"/><path d="M30.35,32.22c-6.77,0-14.22-5.88-14.61-6.19l.62-.78c.11.09,11.32,8.93,18.16,4.92L35,31A9.11,9.11,0,0,1,30.35,32.22Z"/><path d="M30,36.63c-6.77,0-14.23-5.88-14.61-6.19l.62-.78c.11.09,11.32,8.93,18.16,4.92l.51.86A9.1,9.1,0,0,1,30,36.63Z"/><path d="M30,26.15c-6.77,0-14.22-5.88-14.61-6.19l.62-.78c.11.09,11.32,8.93,18.16,4.92l.51.86A9.11,9.11,0,0,1,30,26.15Z"/><path d="M35.62,27.31l-.44-.9c.31-.15,7.69-3.73,12-.43l-.6.8C42.75,23.85,35.69,27.28,35.62,27.31Z"/></g></g></svg>