<svg xmlns="http://www.w3.org/2000/svg" viewBox="0 0 49.79 49.79" width="42px" height="42px"><defs><style>.cls-1{fill:none;}.cls-2{fill:#fff;}</style></defs><title>boussole</title><g id="Calque_2" data-name="Calque 2"><g id="Calque_1-2" data-name="Calque 1"><rect class="cls-1" width="49.79" height="49.79"/><circle class="cls-2" cx="25.03" cy="10.24" r="3.17"/><path d="M25,14.41a4.17,4.17,0,1,1,4.17-4.17A4.18,4.18,0,0,1,25,14.41Zm0-6.34a2.17,2.17,0,1,0,2.17,2.17A2.17,2.17,0,0,0,25,8.06Z"/><circle class="cls-2" cx="25.3" cy="27.51" r="18"/><path d="M25.3,46.51a19,19,0,1,1,19-19A19,19,0,0,1,25.3,46.51Zm0-36a17,17,0,1,0,17,17A17,17,0,0,0,25.3,10.51Z"/><circle class="cls-2" cx="25.27" cy="27.51" r="13.46"/><path d="M25.27,42A14.46,14.46,0,1,1,39.73,27.51,14.48,14.48,0,0,1,25.27,42Zm0-26.92A12.46,12.46,0,1,0,37.73,27.51,12.47,12.47,0,0,0,25.27,15.05Z"/><path d="M14.59,28.51H11.84a1,1,0,0,1,0-2h2.75a1,1,0,1,1,0,2Z"/><path d="M32.84,21.19a1,1,0,0,1-.71-1.71l2.08-2.08a1,1,0,0,1,1.41,1.41l-2.08,2.08A1,1,0,0,1,32.84,21.19Z"/><path d="M15.35,37.58a1,1,0,0,1-.71-1.71l2.21-2.2a1,1,0,0,1,1.41,1.42l-2.21,2.2A1,1,0,0,1,15.35,37.58Z"/><path d="M17.14,21.55a1,1,0,0,1-.71-.29l-1.95-1.94A1,1,0,1,1,15.9,17.9l1.95,1.94a1,1,0,0,1-.71,1.71Z"/><path d="M34.58,38.24a1,1,0,0,1-.71-.29l-2-2a1,1,0,0,1,1.42-1.41l2,2a1,1,0,0,1-.71,1.71Z"/><path d="M25.33,17.77a1,1,0,0,1-1-1V14.05a1,1,0,0,1,2,0v2.72A1,1,0,0,1,25.33,17.77Z"/><path d="M25.33,42a1,1,0,0,1-1-1V38.25a1,1,0,0,1,2,0V41A1,1,0,0,1,25.33,42Z"/><path d="M38.76,28.51H35.59a1,1,0,0,1,0-2h3.17a1,1,0,0,1,0,2Z"/><path d="M19.83,32.74a.5.5,0,0,1-.41-.79l4.39-6.09a.5.5,0,0,1,.14-.13l6.49-4a.5.5,0,0,1,.67.72l-4.5,6.18a.5.5,0,0,1-.14.13l-6.39,3.95A.5.5,0,0,1,19.83,32.74Zm4.74-6.22-2.86,4,4.17-2.57,2.93-4Zm1.65,1.77h0Z"/><path d="M26.22,28.79a.5.5,0,0,1-.37-.16l-2-2.14a.5.5,0,0,1,.73-.68l2,2.14a.5.5,0,0,1-.37.84Z"/></g></g></svg>