<svg xmlns="http://www.w3.org/2000/svg" viewBox="0 0 49.79 49.79" width="42px" height="42px"><defs><style>.cls-1{fill:none;}.cls-2{fill:#fff;}</style></defs><title>bouton</title><g id="Calque_2" data-name="Calque 2"><g id="Calque_1-2" data-name="Calque 1"><rect class="cls-1" width="49.79" height="49.79"/><circle class="cls-2" cx="25.2" cy="24.93" r="19.41"/><path d="M25.2,45.34A20.41,20.41,0,1,1,45.61,24.93,20.43,20.43,0,0,1,25.2,45.34Zm0-38.81A18.41,18.41,0,1,0,43.61,24.93,18.43,18.43,0,0,0,25.2,6.52Z"/><circle class="cls-2" cx="25.2" cy="24.93" r="14.78"/><path d="M25.2,40.22A15.28,15.28,0,1,1,40.49,24.93,15.3,15.3,0,0,1,25.2,40.22Zm0-29.57A14.28,14.28,0,1,0,39.49,24.93,14.3,14.3,0,0,0,25.2,10.65Z"/><circle class="cls-2" cx="19.72" cy="24.93" r="3.61"/><path d="M19.72,29a4.11,4.11,0,1,1,4.11-4.11A4.12,4.12,0,0,1,19.72,29Zm0-7.23a3.11,3.11,0,1,0,3.11,3.11A3.12,3.12,0,0,0,19.72,21.82Z"/><circle class="cls-2" cx="30.68" cy="24.93" r="3.61"/><path d="M30.68,29a4.11,4.11,0,1,1,4.11-4.11A4.12,4.12,0,0,1,30.68,29Zm0-7.23a3.11,3.11,0,1,0,3.11,3.11A3.12,3.12,0,0,0,30.68,21.82Z"/></g></g></svg>