<svg xmlns="http://www.w3.org/2000/svg" viewBox="0 0 49.79 49.79" width="42px" height="42px"><defs><style>.cls-1{fill:none;}.cls-2{fill:#fff;}</style></defs><title>bulles</title><g id="Calque_2" data-name="Calque 2"><g id="Calque_1-2" data-name="Calque 1"><rect class="cls-1" width="49.79" height="49.79"/><path class="cls-2" d="M27.32,8.33A13.13,13.13,0,0,1,38.39,28.53l1.79,6.63L34.4,32.53a13.14,13.14,0,1,1-7.08-24.2Z"/><path d="M40.17,36.24a1.07,1.07,0,0,1-.45-.1l-5.25-2.4a14.22,14.22,0,1,1,5.07-5l1.67,6.18a1.08,1.08,0,0,1-1,1.36ZM27.32,9.4a12.06,12.06,0,1,0,6.5,22.22,1.07,1.07,0,0,1,1-.07l3.69,1.68-1.19-4.42a1.08,1.08,0,0,1,.13-.86A12.06,12.06,0,0,0,27.32,9.4Z"/><path class="cls-2" d="M19.46,19.36a9.34,9.34,0,0,0-7.87,14.37l-1.27,4.71,4.11-1.87a9.34,9.34,0,1,0,5-17.21Z"/><path d="M10.32,39.52a1.08,1.08,0,0,1-1-1.36l1.15-4.27a10.42,10.42,0,1,1,3.93,3.89l-3.59,1.64A1.07,1.07,0,0,1,10.32,39.52Zm4.11-4a1.08,1.08,0,0,1,.58.17,8.27,8.27,0,1,0-2.51-2.51,1.08,1.08,0,0,1,.13.86L12,36.51l2-.92A1.08,1.08,0,0,1,14.43,35.49Z"/></g></g></svg>