<svg xmlns="http://www.w3.org/2000/svg" viewBox="0 0 49.79 49.79" width="42px" height="42px"><defs><style>.cls-1{fill:none;}.cls-2{fill:#fff;}</style></defs><title>Fichier 39</title><g id="Calque_2" data-name="Calque 2"><g id="Calque_1-2" data-name="Calque 1"><rect class="cls-1" width="49.79" height="49.79"/><path class="cls-2" d="M28,21.43S31.93.82,40.46,8.35,29.18,23,29.18,23Z"/><path d="M29.18,24a1.08,1.08,0,0,1-.86-.42l-1.16-1.53a1.08,1.08,0,0,1-.2-.85c.26-1.37,2.7-13.43,8.31-15.35,1.92-.66,3.9-.1,5.89,1.66s2.79,3.66,2.4,5.69c-1.15,6-12.71,10.27-14,10.74A1.07,1.07,0,0,1,29.18,24Zm0-2.87.38.5c3.65-1.42,11.18-5.08,11.9-8.85.24-1.24-.32-2.44-1.71-3.67S37.12,7.52,36,7.92C32.38,9.15,29.94,17.49,29.17,21.17Z"/><path class="cls-2" d="M19.39,10.87c-1,1.21-3.32,1.89-4.52.85S14,8.33,15,7.12a2.88,2.88,0,0,1,4.37,3.75Z"/><path d="M16.38,13.31a3.34,3.34,0,0,1-2.22-.77A3.66,3.66,0,0,1,13,9.42a5.28,5.28,0,0,1,1.17-3,4,4,0,0,1,6,5.15h0a5.29,5.29,0,0,1-2.78,1.62A4.76,4.76,0,0,1,16.38,13.31Zm.82-6.12h-.14a1.79,1.79,0,0,0-1.23.62,3.11,3.11,0,0,0-.66,1.74,1.62,1.62,0,0,0,.39,1.35c.63.54,2.26.14,3-.73h0a1.8,1.8,0,0,0-1.37-3Zm2.18,3.68h0Z"/><path class="cls-2" d="M20,20.15s-3.84-12-8.87-8.71.6,10.5,6,11.63L20,20.39Z"/><path d="M17,24.15l-.22,0c-4-.86-8-4.64-8.67-8.26a5,5,0,0,1,2.35-5.33,4.08,4.08,0,0,1,3.7-.49c4,1.43,6.51,8.92,6.78,9.77a1.08,1.08,0,0,1,.05.33v.24a1.07,1.07,0,0,1-.35.79l-2.92,2.68A1.07,1.07,0,0,1,17,24.15ZM12.84,12a2.13,2.13,0,0,0-1.16.39,2.83,2.83,0,0,0-1.4,3.13c.48,2.6,3.48,5.53,6.47,6.41l2-1.87c-.81-2.29-2.93-7.09-5.3-7.94A1.9,1.9,0,0,0,12.84,12Z"/><path class="cls-2" d="M34.13,45.18a9.69,9.69,0,0,0,.12-1.46l1-16.06a9.8,9.8,0,1,0-19.59,0l1,16.06a9.68,9.68,0,0,0,.12,1.46Z"/><path d="M34.13,46.25H16.73a1.08,1.08,0,0,1-1.06-.91,10.63,10.63,0,0,1-.13-1.62l-1-16a10.87,10.87,0,1,1,21.74-.06l-1,16.13a10.36,10.36,0,0,1-.13,1.56A1.08,1.08,0,0,1,34.13,46.25ZM17.69,44.1H33.16q0-.2,0-.38l1-16.13a8.72,8.72,0,0,0-17.44.06l1,16C17.68,43.81,17.68,44,17.69,44.1Z"/><path d="M13.83,31.18a.5.5,0,0,1,0-1l4.3-.3a.51.51,0,0,1,.53.46.5.5,0,0,1-.46.53l-4.3.3Z"/><path d="M17.46,36a.5.5,0,0,1-.37-.84l1.85-2a.5.5,0,0,1,.74.67l-1.85,2A.5.5,0,0,1,17.46,36Z"/><path d="M22,36.52h0a.5.5,0,0,1-.47-.53l.11-2.07a.5.5,0,1,1,1,.05L22.48,36A.5.5,0,0,1,22,36.52Z"/><path d="M28,32.55a.5.5,0,0,1-.46-.3l-1-2.41a.5.5,0,1,1,.92-.4l1,2.41a.5.5,0,0,1-.46.7Z"/><path d="M22.5,25.59a.5.5,0,0,1-.34-.86l1.3-1.22a.5.5,0,0,1,.69.73l-1.3,1.22A.5.5,0,0,1,22.5,25.59Z"/><path d="M32.4,26.7a.5.5,0,0,1-.33-.12L30.29,25a.5.5,0,0,1,.66-.75l1.78,1.56a.5.5,0,0,1-.33.88Z"/><path d="M28.95,38.52a.5.5,0,0,1-.49-.42l-.37-2.19a.5.5,0,1,1,1-.17l.37,2.19a.5.5,0,0,1-.41.58Z"/><path d="M22.87,40.93a.5.5,0,0,1-.43-.75l.63-1.07a.5.5,0,1,1,.86.51l-.63,1.07A.5.5,0,0,1,22.87,40.93Z"/><path d="M14.65,40.26a.5.5,0,0,1-.16-1l2.37-.78a.5.5,0,0,1,.31,1l-2.37.78Z"/><path d="M26.54,43a.5.5,0,0,1-.49-.41l-.37-2a.5.5,0,0,1,1-.18l.37,2a.5.5,0,0,1-.4.58Z"/><path d="M21.65,30.85a.5.5,0,0,1-.34-.87l2-1.85a.5.5,0,0,1,.67.74l-2,1.85A.5.5,0,0,1,21.65,30.85Z"/><path d="M37.36,35.26a.5.5,0,0,1-.32-.12l-4.52-3.82a.5.5,0,0,1,.65-.76l4.52,3.82a.5.5,0,0,1-.32.88Z"/><path d="M33,42.41a.5.5,0,0,1-.44-.26l-1.26-2.33a.5.5,0,0,1,.88-.47l1.26,2.33a.5.5,0,0,1-.2.68A.49.49,0,0,1,33,42.41Z"/><path d="M9.9,21.36a.5.5,0,0,1-.35-.86l2.67-2.63a.5.5,0,0,1,.7.71l-2.67,2.63A.5.5,0,0,1,9.9,21.36Z"/><path d="M11.53,14.21a.5.5,0,0,1-.17,0L6.25,12.29a.5.5,0,0,1,.35-.94l5.11,1.89a.5.5,0,0,1-.17,1Z"/><path d="M15.42,16.4a.5.5,0,0,1-.11-1L21.46,14a.5.5,0,0,1,.23,1l-6.15,1.44Z"/><path d="M16.91,9.28a.5.5,0,0,1-.49-.39L15.35,4.3a.5.5,0,1,1,1-.23l1.07,4.59a.5.5,0,0,1-.37.6Z"/><path d="M33.32,13.25a.5.5,0,0,1-.3-.1L27.13,8.78a.5.5,0,0,1,.6-.8l5.89,4.37a.5.5,0,0,1-.3.9Z"/><path d="M35.32,12.91A.5.5,0,0,1,35,12l.7-.52a.5.5,0,0,1,.59.81l-.7.52A.5.5,0,0,1,35.32,12.91Z"/><path d="M37,14.25a.5.5,0,0,1-.23-.95L39,12.15a.5.5,0,1,1,.45.89l-2.26,1.15A.5.5,0,0,1,37,14.25Z"/><path d="M37.58,9.76a.5.5,0,0,1-.47-.34L35.33,4.2a.5.5,0,0,1,.95-.32L38.06,9.1a.5.5,0,0,1-.31.63Z"/><path d="M32.73,18.55a.5.5,0,0,1-.44-.73l1.33-2.56a.5.5,0,0,1,.89.46l-1.33,2.56A.5.5,0,0,1,32.73,18.55Z"/><path d="M41.44,21.59a.5.5,0,0,1-.38-.18l-4-4.85a.5.5,0,1,1,.77-.64l4,4.85a.5.5,0,0,1-.38.82Z"/><path d="M27.58,24.22a.5.5,0,0,1-.46-.31l-1-2.41a.5.5,0,0,1,.92-.38l1,2.41a.5.5,0,0,1-.46.69Z"/><line class="cls-2" x1="8.91" y1="45.28" x2="42.04" y2="45.28"/><path d="M42,46.36H8.92a1.08,1.08,0,0,1,0-2.15H42a1.08,1.08,0,1,1,0,2.15Z"/></g></g></svg>