<svg xmlns="http://www.w3.org/2000/svg" viewBox="0 0 49.79 49.79" width="42px" height="42px"><defs><style>.cls-1{fill:none;}.cls-2{fill:#fff;}</style></defs><title>chaussure</title><g id="Calque_2" data-name="Calque 2"><g id="Calque_1-2" data-name="Calque 1"><rect class="cls-1" width="49.79" height="49.79"/><rect class="cls-2" x="8.04" y="31.76" width="39" height="2.87" transform="translate(-11.85 15.63) rotate(-26.28)"/><path d="M10.7,44.12a1,1,0,0,1-.9-.56L8.52,41A1,1,0,0,1,9,39.65l35-17.27a1,1,0,0,1,1.34.45l1.27,2.58a1,1,0,0,1-.45,1.34L11.14,44A1,1,0,0,1,10.7,44.12ZM10.76,41l.39.78L44.32,25.4l-.39-.78Z"/><path class="cls-2" d="M10.88,39.82s-5.41-5-5.61-11.35c0,0,4.07,1.18,7.18-.14s3.3-4.62,1.42-5.31-2.28-3.49,2.07-4.84,8.59,3,17.4,0c6.62-2.29,10.83,1.33,10.49,5.42Z"/><path d="M10.88,40.82a1,1,0,0,1-.68-.27C10,40.34,4.48,35.18,4.27,28.5a1,1,0,0,1,1.28-1s3.77,1.07,6.51-.1a2.89,2.89,0,0,0,2-2.53.94.94,0,0,0-.55-.92,2.91,2.91,0,0,1-2-2.79c0-.81.46-2.81,4.11-3.95,2-.63,4-.19,6.06.27A18.47,18.47,0,0,0,33,17.18c3.63-1.26,7-.95,9.34.85a6.32,6.32,0,0,1,2.47,5.61,1,1,0,0,1-.55.81l-33,16.27A1,1,0,0,1,10.88,40.82ZM6.39,29.74c.64,4.2,3.54,7.64,4.69,8.87L42.85,22.92a4.35,4.35,0,0,0-1.72-3.31c-1.76-1.37-4.48-1.57-7.46-.54a20.42,20.42,0,0,1-12.4.37c-2-.44-3.52-.78-5-.31-2,.62-2.69,1.51-2.71,2.09a.94.94,0,0,0,.69.86,2.9,2.9,0,0,1,1.86,2.74,4.89,4.89,0,0,1-3.23,4.42A12,12,0,0,1,6.39,29.74Z"/><circle class="cls-2" cx="12.89" cy="33.29" r="2.2" transform="translate(-13.41 9.15) rotate(-26.28)"/><path d="M12.9,36.49a3.2,3.2,0,1,1,1.41-.33A3.2,3.2,0,0,1,12.9,36.49Zm0-4.4a1.2,1.2,0,1,0,1.08.67A1.19,1.19,0,0,0,12.89,32.09Z"/><path class="cls-2" d="M35.08,17.67s-3.42,3.53,1.36,9.53"/><path d="M36.43,28.2a1,1,0,0,1-.78-.38C30.38,21.21,34.32,17,34.36,17a1,1,0,0,1,1.44,1.39c-.13.14-2.7,3.05,1.41,8.22a1,1,0,0,1-.78,1.62Z"/><circle cx="19.09" cy="20.99" r="1.23" transform="translate(-7.32 10.62) rotate(-26.28)"/><circle cx="22.4" cy="22.09" r="1.23" transform="translate(-7.47 12.2) rotate(-26.28)"/><circle cx="26.37" cy="22.23" r="1.23" transform="translate(-7.12 13.97) rotate(-26.28)"/><circle cx="30.24" cy="21.43" r="1.23" transform="translate(-6.37 15.61) rotate(-26.29)"/></g></g></svg>