<svg xmlns="http://www.w3.org/2000/svg" viewBox="0 0 49.79 49.79" width="42px" height="42px"><defs><style>.cls-1{fill:none;}.cls-2{fill:#fff;}</style></defs><title>chaussette</title><g id="Calque_2" data-name="Calque 2"><g id="Calque_1-2" data-name="Calque 1"><rect class="cls-1" width="49.79" height="49.79"/><path class="cls-2" d="M27.87,23.75,27.78,6.62H12V30.79l8.43,7.66s7.27,8.52,13.8,3.4C41.84,35.9,37.45,32.69,27.87,23.75Z"/><path d="M29.73,44.47c-4.14,0-8-3.06-10-5.32l-8.38-7.62a1,1,0,0,1-.33-.74V6.62a1,1,0,0,1,1-1H27.78a1,1,0,0,1,1,1l.09,16.69,1.41,1.31c5.59,5.19,9,8.32,8.82,11.8-.08,2.07-1.39,4-4.23,6.21A8.15,8.15,0,0,1,29.73,44.47ZM13,30.35l8.1,7.36.09.09c.27.32,6.73,7.73,12.42,3.26,2.31-1.81,3.41-3.31,3.47-4.72.11-2.56-3.19-5.62-8.18-10.25l-1.73-1.61a1,1,0,0,1-.32-.73L26.79,7.62H13Z"/><rect class="cls-2" x="12.03" y="6.62" width="16" height="5"/><path d="M28,12.62H12a1,1,0,0,1-1-1v-5a1,1,0,0,1,1-1H28a1,1,0,0,1,1,1v5A1,1,0,0,1,28,12.62Zm-15-2H27v-3H13Z"/><line class="cls-2" x1="32.89" y1="30.81" x2="21.7" y2="40.52"/><path d="M21.7,41a.5.5,0,0,1-.33-.88l11.19-9.71a.5.5,0,1,1,.66.75L22,40.9A.5.5,0,0,1,21.7,41Z"/><path d="M17.55,36.17a.5.5,0,0,1-.41-.78c2.31-3.44,3-6.3,2-8.52-1.5-3.41-6.47-4.21-6.52-4.22a.5.5,0,0,1,.15-1c.23,0,5.57.89,7.28,4.8,1.12,2.55.41,5.73-2.1,9.47A.5.5,0,0,1,17.55,36.17Z"/><path d="M15.53,19.12a.5.5,0,0,1-.5-.5v-7a.5.5,0,0,1,1,0v7A.5.5,0,0,1,15.53,19.12Z"/><path d="M21.53,18.12a.5.5,0,0,1-.5-.5v-6a.5.5,0,0,1,1,0v6A.5.5,0,0,1,21.53,18.12Z"/><path d="M18.53,22.12a.5.5,0,0,1-.5-.5v-10a.5.5,0,0,1,1,0v10A.5.5,0,0,1,18.53,22.12Z"/><path d="M24.53,19.12a.5.5,0,0,1-.5-.5v-7a.5.5,0,0,1,1,0v7A.5.5,0,0,1,24.53,19.12Z"/></g></g></svg>