<svg xmlns="http://www.w3.org/2000/svg" viewBox="0 0 49.79 49.79" width="42px" height="42px"><defs><style>.cls-1{fill:none;}.cls-2{fill:#070303;}.cls-3{fill:#fff;}</style></defs><title>coco</title><g id="Calque_2" data-name="Calque 2"><g id="Calque_1-2" data-name="Calque 1"><rect class="cls-1" width="49.79" height="49.79"/><path class="cls-2" d="M9.52,25.26a4.66,4.66,0,0,0-.06.87C9.47,36.47,17.33,44.7,27,44.7s17.55-8.16,17.55-18.5a5.88,5.88,0,0,0-.05-.94Z"/><path d="M27,45.7c-10.23,0-18.55-8.78-18.55-19.57,0-.79,0-1.87,1.06-1.87h35c1.05,0,1.05,1,1.05,1.94C45.57,37,37.25,45.7,27,45.7ZM10.47,26.26C10.54,35.89,17.94,43.7,27,43.7s16.52-7.82,16.55-17.44Z"/><ellipse class="cls-3" cx="27.02" cy="24.54" rx="17.55" ry="9.01"/><path d="M27,34.55c-10.4,0-18.55-4.4-18.55-10s8.15-10,18.55-10,18.55,4.4,18.55,10S37.42,34.55,27,34.55Zm0-18c-9,0-16.55,3.67-16.55,8s7.58,8,16.55,8,16.55-3.67,16.55-8S36,16.53,27,16.53Z"/><ellipse class="cls-3" cx="27.02" cy="24.54" rx="11.93" ry="5.25"/><path d="M27,30.8c-7.37,0-12.93-2.69-12.93-6.25S19.65,18.29,27,18.29,40,21,40,24.54,34.39,30.8,27,30.8Zm0-10.51c-6.26,0-10.93,2.25-10.93,4.25S20.76,28.8,27,28.8,38,26.55,38,24.54,33.28,20.29,27,20.29Z"/><path class="cls-2" d="M16.29,26.85s11.36-4.37,21.05.33A21.67,21.67,0,0,1,16.29,26.85Z"/><path d="M27,30.79a22,22,0,0,1-11.19-3.08,1,1,0,0,1,.14-1.8c.48-.19,11.88-4.47,21.85.36A1,1,0,0,1,37.86,28,22.71,22.71,0,0,1,27,30.79Zm-8-3.71a20.43,20.43,0,0,0,16,.16C28.79,25.1,22.3,26.22,18.95,27.08Z"/><path class="cls-3" d="M23,29.49,17.69,7.86A1.54,1.54,0,0,0,15.9,6.71L3.44,9.08a1.54,1.54,0,0,0,.58,3L15,10l4.49,18.64A23.63,23.63,0,0,0,23,29.49Z"/><path d="M23,30.49a1,1,0,0,1-.27,0,14.23,14.23,0,0,0-1.42-.3,8.31,8.31,0,0,1-2.22-.61,1,1,0,0,1-.54-.67L14.28,11.17,4.21,13.09a2.55,2.55,0,0,1-3-2,2.54,2.54,0,0,1,2-3L15.71,5.73a2.56,2.56,0,0,1,2.95,1.91L24,29.25a1,1,0,0,1-1,1.24Zm-2.63-2.58a10.13,10.13,0,0,0,1.28.28L16.71,8.1a.54.54,0,0,0-.64-.41L3.63,10.07a.54.54,0,1,0,.21,1.06l11-2.1A1,1,0,0,1,16,9.78Z"/><rect x="8.79" y="8.72" width="3.45" height="1" transform="translate(-1.24 16.8) rotate(-74.08)"/><rect x="11.38" y="8.35" width="3.42" height="1" transform="translate(0.99 19.02) rotate(-74.08)"/><rect x="14.3" y="7.9" width="3.52" height="1" transform="translate(0.31 17.36) rotate(-57.24)"/><rect x="15.24" y="10.05" width="3.17" height="1" transform="translate(-2.99 11.96) rotate(-36.14)"/><rect x="15.88" y="12.82" width="3.28" height="1" transform="translate(-4.49 12.87) rotate(-36.08)"/><rect x="16.52" y="15.6" width="3.39" height="1" transform="translate(-5.98 13.78) rotate(-36.01)"/><rect x="17.16" y="18.37" width="3.49" height="1" transform="translate(-7.48 14.69) rotate(-35.94)"/><rect x="17.8" y="21.14" width="3.6" height="1" transform="translate(-8.96 15.59) rotate(-35.87)"/><rect x="18.44" y="23.91" width="3.7" height="1" transform="translate(-10.45 16.48) rotate(-35.81)"/><rect x="19.08" y="26.68" width="3.81" height="1" transform="translate(-11.93 17.37) rotate(-35.74)"/><rect x="5.98" y="9.34" width="3.45" height="1" transform="translate(-3.87 14.55) rotate(-74.08)"/><rect x="3.18" y="9.96" width="3.45" height="1" transform="translate(-6.5 12.3) rotate(-74.08)"/></g></g></svg>