<svg xmlns="http://www.w3.org/2000/svg" viewBox="0 0 49.79 49.79" width="42px" height="42px"><defs><style>.cls-1{fill:none;}.cls-2{fill:#fff;}</style></defs><title>croissant</title><g id="Calque_2" data-name="Calque 2"><g id="Calque_1-2" data-name="Calque 1"><rect class="cls-1" width="49.79" height="49.79"/><path class="cls-2" d="M14.82,18.62C12,24.46,13.23,34.21,16.55,38.88c3.9,5.48,5.13,3.33,6.16-1.47.58-2.68.53-6.2,2.22-9.67C31.54,14.2,14.82,18.62,14.82,18.62Z"/><path d="M20.19,43.12c-1.29,0-2.65-1.13-4.45-3.66-3.4-4.78-4.89-14.89-1.82-21.28a1,1,0,0,1,.65-.53c.89-.24,8.82-2.2,11.83,1.46,1.61,2,1.42,5-.56,9.07A21.45,21.45,0,0,0,24.12,35c-.13.94-.25,1.84-.43,2.67-.67,3.11-1.42,5.11-3.06,5.45A2.21,2.21,0,0,1,20.19,43.12ZM15.53,19.47c-2.48,5.71-1.1,14.7,1.84,18.83,2.09,2.94,2.84,2.82,2.87,2.82s.75-.42,1.5-3.91c.16-.76.28-1.62.4-2.52A23.06,23.06,0,0,1,24,27.31c1.1-2.27,2.14-5.31.81-6.92C23.1,18.25,17.9,18.93,15.53,19.47Z"/><path class="cls-2" d="M10.94,35.57s-1.74-8.51,2.56-16c0,0,17.37,7.48,16.88,9.35S10.94,35.57,10.94,35.57Z"/><path d="M10.94,36.57a1,1,0,0,1-1-.8c-.07-.36-1.76-9,2.67-16.73a1,1,0,0,1,1.26-.42c18.16,7.82,17.66,9.72,17.45,10.53-.16.6-.64,2.44-20.16,7.39A1,1,0,0,1,10.94,36.57Zm3-15.75a24.67,24.67,0,0,0-2.18,13.5c7.59-2,15.55-4.42,17.4-5.61C27.63,27.26,20.52,23.7,13.94,20.83Zm15.55,7.63Z"/><path class="cls-2" d="M19.68,13.46C25.18,10,35,10.14,40,12.92c5.88,3.26,3.88,4.73-.77,6.29-2.6.87-6.11,1.22-9.36,3.28C17.15,30.56,19.68,13.46,19.68,13.46Z"/><path d="M24.12,25.65a4.76,4.76,0,0,1-2.65-.75c-4-2.59-2.91-10.68-2.77-11.59a1,1,0,0,1,.46-.7c6-3.77,16.22-3.41,21.35-.56,3,1.68,4.27,3,4.14,4.47-.15,1.67-2.06,2.63-5.08,3.64-.81.27-1.68.49-2.6.72a21.46,21.46,0,0,0-6.54,2.46A12.38,12.38,0,0,1,24.12,25.65ZM20.61,14.07c-.28,2.42-.37,7.66,1.94,9.16,1.75,1.14,4.66-.23,6.79-1.58a23.06,23.06,0,0,1,7.13-2.71c.88-.22,1.72-.43,2.45-.68,3.39-1.14,3.71-1.76,3.72-1.93s0-.79-3.12-2.54C35.1,11.34,26,11,20.61,14.07Z"/><path class="cls-2" d="M36.1,7.71S27.45,6.94,20.45,12c0,0,9.37,16.43,11.17,15.73S36.1,7.71,36.1,7.71Z"/><path d="M31.54,28.81c-1.07,0-3.64-1.71-12-16.27a1,1,0,0,1,.28-1.3c7.22-5.27,16-4.55,16.33-4.52a1,1,0,0,1,.9,1.13C34.34,27.8,32.57,28.48,32,28.71A1.18,1.18,0,0,1,31.54,28.81Zm-.44-1.86Zm-9.32-14.6c3.59,6.22,7.92,12.89,9.54,14.25,1-2,2.53-10.16,3.64-17.92A24.66,24.66,0,0,0,21.78,12.34Z"/><path class="cls-2" d="M9.48,21.38s3.79-8,11.08-12.39c0,0,11.56,18,10.25,19.5S9.48,21.38,9.48,21.38Z"/><path d="M30.26,29.6c-2,0-7-1.23-21.17-7.3A1,1,0,0,1,8.57,21c.16-.34,4-8.28,11.46-12.81a1,1,0,0,1,1.36.31C33.36,27.13,32,28.61,31.55,29.16,31.39,29.34,31.16,29.6,30.26,29.6ZM10.87,20.89c7.94,3.36,16.55,6.56,19,6.77-.59-2.33-5.06-10.16-9.59-17.29A32,32,0,0,0,10.87,20.89Z"/></g></g></svg>