<svg xmlns="http://www.w3.org/2000/svg" viewBox="0 0 49.79 49.79" width="42px" height="42px"><defs><style>.cls-1{fill:none;}.cls-2,.cls-3{fill:#fff;}.cls-3{stroke:#000;stroke-linecap:round;stroke-linejoin:round;stroke-width:2px;}</style></defs><title>diamant</title><g id="Calque_2" data-name="Calque 2"><g id="Calque_1-2" data-name="Calque 1"><rect class="cls-1" width="49.79" height="49.79"/><polygon class="cls-2" points="11.38 22.41 24.9 41.55 38.42 22.41 11.38 22.41"/><path d="M24.9,42.55a1,1,0,0,1-.82-.42L10.56,23a1,1,0,0,1,.82-1.58h27A1,1,0,0,1,39.23,23L25.71,42.13A1,1,0,0,1,24.9,42.55ZM13.31,23.41,24.9,39.82,36.49,23.41Z"/><line class="cls-2" x1="19.89" y1="22.41" x2="24.9" y2="41.55"/><path d="M24.9,42.55a1,1,0,0,1-1-.75l-5-19.14a1,1,0,1,1,1.93-.51l5,19.14a1,1,0,0,1-.71,1.22A1,1,0,0,1,24.9,42.55Z"/><line class="cls-2" x1="29.91" y1="22.41" x2="24.9" y2="41.55"/><path d="M24.9,42.55a1,1,0,0,1-.25,0,1,1,0,0,1-.71-1.22l5-19.14a1,1,0,0,1,1.93.51l-5,19.14A1,1,0,0,1,24.9,42.55Z"/><polygon class="cls-2" points="38.42 22.24 11.38 22.24 15.91 15.04 33.88 15.04 38.42 22.24"/><path d="M38.42,23.24h-27a1,1,0,0,1-.85-1.53l4.54-7.21a1,1,0,0,1,.85-.47h18a1,1,0,0,1,.85.47l4.54,7.21a1,1,0,0,1-.85,1.53Zm-25.23-2H36.61L33.33,16H16.47Z"/><path class="cls-3" d="M15.91,15"/><polygon class="cls-2" points="25.27 15.04 20.02 22.35 15.91 15.03 25.27 15.04"/><path d="M20,23.35H20a1,1,0,0,1-.82-.51L15,15.52A1,1,0,0,1,15.92,14h9.36a1,1,0,0,1,.81,1.58l-5.26,7.31A1,1,0,0,1,20,23.35ZM17.62,16l2.5,4.46L23.33,16Z"/><polygon class="cls-2" points="34.02 15.04 29.9 22.35 24.66 15.03 34.02 15.04"/><path d="M29.9,23.35a1,1,0,0,1-.81-.42l-5.24-7.32A1,1,0,0,1,24.66,14H34a1,1,0,0,1,.87,1.49l-4.12,7.31a1,1,0,0,1-.82.51ZM26.61,16l3.19,4.46L32.31,16Z"/><path d="M25.28,9.11a1,1,0,0,1-1-1V5.19a1,1,0,0,1,2,0V8.11A1,1,0,0,1,25.28,9.11Z"/><path d="M12.82,11.61a1,1,0,0,1-.71-.3L10.06,9.23a1,1,0,1,1,1.42-1.41L13.53,9.9a1,1,0,0,1-.71,1.7Z"/><path d="M37.89,11.61a1,1,0,0,1-.71-1.7l2.05-2.07a1,1,0,0,1,1.42,1.41L38.6,11.31A1,1,0,0,1,37.89,11.61Z"/></g></g></svg>