<svg xmlns="http://www.w3.org/2000/svg" viewBox="0 0 49.79 49.79" width="42px" height="42px"><defs><style>.cls-1{fill:none;}.cls-2{fill:#fff;}</style></defs><title>donut</title><g id="Calque_2" data-name="Calque 2"><g id="Calque_1-2" data-name="Calque 1"><rect class="cls-1" width="49.79" height="49.79"/><path class="cls-2" d="M26.43,10A16.11,16.11,0,1,0,42.54,26.11,16.11,16.11,0,0,0,26.43,10Zm0,21.78a5.67,5.67,0,1,1,5.67-5.67A5.67,5.67,0,0,1,26.43,31.78Z"/><path d="M26.43,43.3A17.19,17.19,0,1,1,43.62,26.11,17.21,17.21,0,0,1,26.43,43.3Zm0-32.23a15,15,0,1,0,15,15A15.06,15.06,0,0,0,26.43,11.07Zm0,21.78a6.74,6.74,0,1,1,6.74-6.74A6.75,6.75,0,0,1,26.43,32.86Zm0-11.34A4.59,4.59,0,1,0,31,26.11,4.6,4.6,0,0,0,26.43,21.52Z"/><path d="M18.52,19.11A1.08,1.08,0,0,1,17.44,18V15.93a1.08,1.08,0,0,1,2.15,0V18A1.08,1.08,0,0,1,18.52,19.11Z"/><path d="M25.16,18.37l-.24,0-2.64-.59a1.08,1.08,0,0,1,.47-2.1l2.64.59a1.08,1.08,0,0,1-.24,2.13Z"/><path d="M25.84,15.16a1.08,1.08,0,0,1-.43-2.06l2-.86a1.08,1.08,0,0,1,.86,2l-2,.86A1.07,1.07,0,0,1,25.84,15.16Z"/><path d="M32.62,18.06a1.08,1.08,0,0,1-1.06-.88l-.33-1.78A1.08,1.08,0,1,1,33.35,15l.33,1.78A1.08,1.08,0,0,1,32.82,18Z"/><path d="M36.71,22.74h-.17l-2.83-.46a1.08,1.08,0,0,1,.35-2.12l2.83.46a1.08,1.08,0,0,1-.17,2.14Z"/><path d="M39.22,27.48h-.17a1.08,1.08,0,0,1-.9-1.23l.33-2.11a1.08,1.08,0,0,1,2.13.33l-.33,2.11A1.08,1.08,0,0,1,39.22,27.48Z"/><path d="M36.12,30.32a1.08,1.08,0,0,1-1-.69l-.82-2.18a1.08,1.08,0,0,1,2-.76l.82,2.18a1.08,1.08,0,0,1-1,1.46Z"/><path d="M17.09,24.28a1.08,1.08,0,0,1-.6-2l1.71-1.15a1.08,1.08,0,0,1,1.2,1.79L17.69,24.1A1.07,1.07,0,0,1,17.09,24.28Z"/><path d="M14.37,24.25a1.08,1.08,0,0,1-1.06-.9l-.4-2.44A1.08,1.08,0,0,1,15,20.57l.4,2.44a1.08,1.08,0,0,1-.89,1.23Z"/><path d="M16,29.66a1.07,1.07,0,0,1-.54-.15l-2.24-1.32a1.08,1.08,0,1,1,1.09-1.85l2.24,1.32a1.08,1.08,0,0,1-.55,2Z"/><path d="M41.1,32.76a6.73,6.73,0,0,0-2,.9c-1.76,1.19-3.46-1.09-5.61-1.62s-3.26,1.56-6,2.44-3.81-1.07-5.07-2.21a3.52,3.52,0,0,0-4.91.82c-1,1.58-2,1.88-3.33.69a23.4,23.4,0,0,0-2.81-2.2l-.05,0A16.09,16.09,0,0,0,41.1,32.76Z"/></g></g></svg>