<svg xmlns="http://www.w3.org/2000/svg" viewBox="0 0 49.79 49.79" width="42px" height="42px"><defs><style>.cls-1{fill:none;}.cls-2{fill:#fff;}</style></defs><title>Fichier 41</title><g id="Calque_2" data-name="Calque 2"><g id="Calque_1-2" data-name="Calque 1"><rect class="cls-1" width="49.79" height="49.79"/><polygon class="cls-2" points="23.49 33.77 36.51 12.93 10.47 12.93 23.49 33.77"/><path d="M23.49,34.84a1.08,1.08,0,0,1-.91-.51L9.56,13.5a1.08,1.08,0,0,1,.91-1.65h26a1.08,1.08,0,0,1,.91,1.65l-13,20.83A1.08,1.08,0,0,1,23.49,34.84ZM12.42,14,23.49,31.73,34.57,14Z"/><path d="M23.49,42.58a1.08,1.08,0,0,1-1.08-1.08v-8a1.08,1.08,0,1,1,2.15,0v8A1.08,1.08,0,0,1,23.49,42.58Z"/><path d="M29.75,43.31H17.23a1.08,1.08,0,0,1,0-2.15H29.75a1.08,1.08,0,0,1,0,2.15Z"/><path d="M31.38,21.61H15.69a1.08,1.08,0,1,1,0-2.15H31.38a1.08,1.08,0,0,1,0,2.15Z"/><path d="M27.34,21.42a1.08,1.08,0,0,1-1-1.45L31.69,5.69a1.08,1.08,0,1,1,2,.76L28.35,20.72A1.08,1.08,0,0,1,27.34,21.42Z"/><path d="M23.27,28.21a1.41,1.41,0,1,1,1.41-1.41A1.41,1.41,0,0,1,23.27,28.21Zm0-1.82a.41.41,0,1,0,.41.41A.41.41,0,0,0,23.27,26.39Z"/><path d="M21.2,25.1a1.41,1.41,0,1,1,1.41-1.41A1.41,1.41,0,0,1,21.2,25.1Zm0-1.82a.41.41,0,1,0,.41.41A.41.41,0,0,0,21.2,23.28Z"/><path d="M25.78,25.67a1.41,1.41,0,1,1,1.41-1.41A1.41,1.41,0,0,1,25.78,25.67Zm0-1.82a.41.41,0,1,0,.41.41A.41.41,0,0,0,25.78,23.85Z"/></g></g></svg>