<svg xmlns="http://www.w3.org/2000/svg" viewBox="0 0 49.79 49.79" width="42px" height="42px"><defs><style>.cls-1{fill:none;}.cls-2{fill:#fff;}</style></defs><title>etoiles</title><g id="Calque_2" data-name="Calque 2"><g id="Calque_1-2" data-name="Calque 1"><rect class="cls-1" width="49.79" height="49.79"/><path class="cls-2" d="M19.35,25.28l1.51,4.66a1,1,0,0,0,1,.7h4.9a1,1,0,0,1,.6,1.84l-4,2.88A1,1,0,0,0,23,36.49l1.51,4.66a1,1,0,0,1-1.56,1.14l-4-2.88a1,1,0,0,0-1.19,0l-4,2.88a1,1,0,0,1-1.56-1.14l1.51-4.66a1,1,0,0,0-.37-1.14l-4-2.88a1,1,0,0,1,.6-1.84h4.9a1,1,0,0,0,1-.7l1.51-4.66A1,1,0,0,1,19.35,25.28Z"/><path d="M23.54,43.57a2.09,2.09,0,0,1-1.23-.4l-4-2.88-3.89,2.88a2.09,2.09,0,0,1-3.22-2.34l1.51-4.66L8.81,33.35A2.09,2.09,0,0,1,10,29.56h4.9l1.46-4.62a2.06,2.06,0,0,1,2-1.45h0a2.06,2.06,0,0,1,2,1.45l1.51,4.66,4.84,0A2.09,2.09,0,0,1,28,33.35l-4,2.88,1.54,4.59a2.06,2.06,0,0,1-.76,2.34A2.09,2.09,0,0,1,23.54,43.57ZM10.22,31.72,14,34.49a2.09,2.09,0,0,1,.76,2.34l-1.46,4.49,3.82-2.77a2.09,2.09,0,0,1,2.46,0l3.81,2.77L22,36.83a2.09,2.09,0,0,1,.76-2.34l3.81-2.77H21.83a2.09,2.09,0,0,1-2-1.45l-1.46-4.48-1.46,4.48a2.08,2.08,0,0,1-2,1.45Zm16.51,0h0Z"/><path class="cls-2" d="M40.88,11.71l-.69,4.85a1,1,0,0,0,.56,1.06l4.4,2.16a1,1,0,0,1-.27,1.91L40,22.52a1,1,0,0,0-.83.86l-.69,4.85a1,1,0,0,1-1.9.33l-2.29-4.33a1,1,0,0,0-1.07-.53l-4.83.84a1,1,0,0,1-.9-1.71l3.41-3.52a1,1,0,0,0,.17-1.18L28.82,13.8a1,1,0,0,1,1.35-1.39l4.4,2.16a1,1,0,0,0,1.18-.2l3.41-3.51A1,1,0,0,1,40.88,11.71Z"/><path d="M37.5,30.18a2.06,2.06,0,0,1-1.83-1.11l-2.29-4.33-4.76.87a2.09,2.09,0,0,1-1.86-3.52l3.41-3.52-2.3-4.26a2.09,2.09,0,0,1,2.77-2.85L35,13.61l3.34-3.5a2.09,2.09,0,0,1,3.57,1.75l-.69,4.85,4.36,2.1a2.09,2.09,0,0,1-.57,3.94l-4.83.84-.65,4.8a2.06,2.06,0,0,1-1.71,1.76A2.19,2.19,0,0,1,37.5,30.18Zm-4.06-7.57a2.09,2.09,0,0,1,1.85,1.12l2.2,4.17.67-4.67a2.09,2.09,0,0,1,1.71-1.76l4.64-.81-4.23-2.08a2.08,2.08,0,0,1-1.15-2.18l.67-4.66-3.28,3.38a2.09,2.09,0,0,1-2.42.42l-4.23-2.08,2.2,4.17a2.09,2.09,0,0,1-.35,2.43l-3.29,3.39,4.65-.81A2.08,2.08,0,0,1,33.43,22.61Z"/><path class="cls-2" d="M20.58,9.13l-2.76,4a1,1,0,0,0,0,1.19l3,3.88a1,1,0,0,1-1.09,1.6l-4.7-1.38a1,1,0,0,0-1.12.4l-2.76,4a1,1,0,0,1-1.85-.54l-.14-4.9a1,1,0,0,0-.73-.95l-4.7-1.38a1,1,0,0,1-.06-1.93l4.61-1.65a1,1,0,0,0,.67-1l-.14-4.9A1,1,0,0,1,10.65,5l3,3.88a1,1,0,0,0,1.15.33L19.4,7.6A1,1,0,0,1,20.58,9.13Z"/><path d="M10.34,24.44a2.16,2.16,0,0,1-.61-.09,2.06,2.06,0,0,1-1.5-1.94l-.14-4.9L3.43,16.18a2.09,2.09,0,0,1-.12-4l4.61-1.65L7.75,5.72A2.09,2.09,0,0,1,11.5,4.38l3,3.88L19,6.59a2.09,2.09,0,0,1,2.43,3.15l-2.76,4,3,3.81a2.09,2.09,0,0,1-2.25,3.29l-4.7-1.38-2.7,4A2.05,2.05,0,0,1,10.34,24.44ZM4.21,14.17,8.74,15.5a2.09,2.09,0,0,1,1.5,1.95l.14,4.71L13,18.26a2.09,2.09,0,0,1,2.31-.83l4.53,1.33L17,15a2.08,2.08,0,0,1-.07-2.46l2.66-3.89-4.44,1.58a2.08,2.08,0,0,1-2.36-.69L9.91,5.84,10,10.55a2.09,2.09,0,0,1-1.39,2Z"/></g></g></svg>