<svg xmlns="http://www.w3.org/2000/svg" viewBox="0 0 49.79 49.79" width="42px" height="42px"><defs><style>.cls-1{fill:none;}.cls-2{fill:#fff;}</style></defs><title>gobelet</title><g id="Calque_2" data-name="Calque 2"><g id="Calque_1-2" data-name="Calque 1"><rect class="cls-1" width="49.79" height="49.79"/><path class="cls-2" d="M14.17,20.42,23,45c.17.87,3.24,1,6.85.3s6.41-2,6.24-2.85l-1-26.06Z"/><path d="M25.68,46.8c-1.78,0-3.38-.35-3.69-1.53L13.16,20.79A1.08,1.08,0,0,1,14,19.37l20.91-4.08a1.08,1.08,0,0,1,1.28,1l1,26c.29,2.31-4.85,3.57-7.11,4A24.47,24.47,0,0,1,25.68,46.8ZM24,44.45c.58.22,2.62.35,5.69-.25s4.91-1.48,5.37-1.9l-1-24.65-18.44,3.6ZM35.05,42.6h0Z"/><ellipse class="cls-2" cx="24.63" cy="18.38" rx="10.65" ry="2.56" transform="translate(-3.06 5.06) rotate(-11.04)"/><path d="M18.4,22.69c-2.59,0-5-.45-5.28-2.06-.25-1.26.84-2.43,3.32-3.56a34.86,34.86,0,0,1,7.49-2.26,34.63,34.63,0,0,1,7.79-.73c2.73.12,4.17.79,4.42,2h0c.68,3.47-9.63,5.59-10.81,5.82A40.58,40.58,0,0,1,18.4,22.69Zm-3-2.5c1,.41,4.33.67,9.52-.34s8.18-2.51,8.95-3.26c-1-.41-4.32-.67-9.52.35S16.16,19.43,15.39,20.18Zm18.71-3.46h0Z"/><ellipse class="cls-2" cx="24.09" cy="15.61" rx="10.65" ry="2.56" transform="translate(-2.54 4.9) rotate(-11.04)"/><path d="M17.86,19.92c-2.59,0-5-.45-5.28-2.06-.25-1.26.84-2.43,3.32-3.56A34.84,34.84,0,0,1,23.39,12a35.22,35.22,0,0,1,7.79-.73c2.73.12,4.17.79,4.42,2h0c.25,1.26-.84,2.43-3.32,3.56a34.85,34.85,0,0,1-7.49,2.26A40.58,40.58,0,0,1,17.86,19.92Zm-3-2.5c1,.41,4.33.67,9.52-.34s8.19-2.51,8.95-3.26c-1-.41-4.32-.67-9.52.34S15.62,16.66,14.85,17.41Zm18.63-3.64Z"/><path d="M24.09,16.69l-.2,0A1.08,1.08,0,0,1,23,15.41l1.84-9.82a1.08,1.08,0,0,1,1.26-.86l7.72,1.51a1.08,1.08,0,1,1-.41,2.11l-6.65-1.3-1.64,8.75A1.08,1.08,0,0,1,24.09,16.69Z"/><rect class="cls-2" x="20.77" y="15.64" width="6.42" height="1.04" transform="translate(-2.65 4.89) rotate(-11.04)"/></g></g></svg>