<svg viewBox="0 0 500 81" xmlns="http://www.w3.org/2000/svg" fill-rule="evenodd" clip-rule="evenodd" stroke-linejoin="round" stroke-miterlimit="1.414"><g fill="#030303" fill-rule="nonzero"><path d="M28.496 23.878v-7.363h7.958v7.363h-7.958zm7.958 4.078v29.142c0 3.833-.25 6.537-.751 8.114-.5 1.576-1.463 2.808-2.888 3.695-1.426.888-3.243 1.332-5.452 1.332-.793 0-1.647-.071-2.563-.213a28.02 28.02 0 0 1-2.96-.637l1.388-6.797c.378.076.732.137 1.062.184.33.047.637.07.92.07.812 0 1.478-.174 1.997-.523.519-.35.864-.77 1.034-1.26.17-.491.255-1.964.255-4.418v-28.69h7.958zM78.786 58.032V53.53c-1.095 1.604-2.535 2.869-4.32 3.794a12.098 12.098 0 0 1-5.65 1.388c-2.02 0-3.832-.444-5.436-1.331-1.605-.887-2.766-2.133-3.484-3.738-.717-1.605-1.076-3.823-1.076-6.655V27.956h7.958v13.82c0 4.23.146 6.82.439 7.775.293.953.826 1.708 1.6 2.265.774.557 1.756.836 2.945.836 1.36 0 2.578-.373 3.654-1.12 1.076-.745 1.812-1.67 2.209-2.774.396-1.105.594-3.81.594-8.114V27.956h7.958v30.076h-7.391zM108.629 16.515h7.958v41.518h-7.958zM138.953 23.878v-7.363h7.958v7.363h-7.958zm0 34.154V27.956h7.958v30.076h-7.958zM186.694 48.46l7.93 1.33c-1.02 2.909-2.63 5.122-4.83 6.642-2.198 1.52-4.95 2.28-8.254 2.28-5.23 0-9.1-1.71-11.611-5.126-1.983-2.737-2.974-6.193-2.974-10.365 0-4.984 1.303-8.888 3.908-11.711 2.606-2.822 5.9-4.233 9.884-4.233 4.474 0 8.005 1.477 10.592 4.432 2.586 2.954 3.823 7.48 3.71 13.579H175.11c.057 2.36.699 4.196 1.926 5.509 1.227 1.312 2.756 1.968 4.588 1.968 1.246 0 2.294-.34 3.143-1.02.85-.68 1.492-1.774 1.926-3.285zm.453-8.043c-.056-2.303-.651-4.054-1.784-5.253-1.133-1.2-2.511-1.8-4.135-1.8-1.737 0-3.172.634-4.304 1.899-1.133 1.265-1.69 2.983-1.671 5.154h11.894zM245.842 27.956h7.42v4.418c.962-1.51 2.265-2.737 3.908-3.681 1.642-.944 3.464-1.416 5.466-1.416 3.492 0 6.457 1.368 8.892 4.106 2.436 2.738 3.654 6.55 3.654 11.44 0 5.024-1.228 8.927-3.682 11.712-2.455 2.785-5.428 4.177-8.921 4.177-1.661 0-3.167-.33-4.517-.991-1.35-.661-2.771-1.794-4.262-3.4v15.153h-7.958V27.956zm7.873 14.529c0 3.379.67 5.876 2.01 7.49 1.34 1.615 2.974 2.422 4.9 2.422 1.85 0 3.389-.741 4.616-2.223 1.227-1.483 1.84-3.913 1.84-7.293 0-3.153-.632-5.494-1.897-7.023-1.265-1.53-2.832-2.294-4.701-2.294-1.944 0-3.56.75-4.842 2.25-1.284 1.502-1.926 3.725-1.926 6.67zM313.124 48.46l7.93 1.33c-1.02 2.909-2.63 5.122-4.83 6.642-2.2 1.52-4.95 2.28-8.254 2.28-5.23 0-9.101-1.71-11.612-5.126-1.982-2.737-2.973-6.193-2.973-10.365 0-4.984 1.302-8.888 3.908-11.711 2.605-2.822 5.9-4.233 9.884-4.233 4.474 0 8.005 1.477 10.59 4.432 2.588 2.954 3.825 7.48 3.71 13.579h-19.936c.057 2.36.698 4.196 1.926 5.509 1.227 1.312 2.756 1.968 4.588 1.968 1.246 0 2.294-.34 3.143-1.02.85-.68 1.492-1.774 1.926-3.285zm.453-8.043c-.057-2.303-.651-4.054-1.784-5.253-1.133-1.2-2.511-1.8-4.135-1.8-1.737 0-3.172.634-4.305 1.899-1.132 1.265-1.69 2.983-1.67 5.154h11.894zM349.792 58.032h-7.958V27.956h7.392v4.277c1.265-2.021 2.402-3.352 3.412-3.994 1.01-.641 2.157-.962 3.44-.962 1.814 0 3.56.5 5.24 1.5l-2.464 6.939c-1.34-.868-2.586-1.303-3.738-1.303-1.114 0-2.058.307-2.832.92-.774.614-1.383 1.724-1.827 3.328-.443 1.605-.665 4.966-.665 10.082v9.289zM386.573 58.032h-7.958V27.956h7.392v4.277c1.265-2.021 2.402-3.352 3.412-3.994 1.01-.641 2.157-.962 3.44-.962 1.814 0 3.56.5 5.24 1.5l-2.463 6.939c-1.341-.868-2.587-1.303-3.74-1.303-1.112 0-2.056.307-2.831.92-.774.614-1.383 1.724-1.826 3.328-.444 1.605-.666 4.966-.666 10.082v9.289zM413.896 42.57c0-2.644.65-5.202 1.954-7.675 1.302-2.474 3.148-4.362 5.536-5.664 2.389-1.303 5.055-1.954 8-1.954 4.55 0 8.28 1.477 11.187 4.432 2.908 2.954 4.362 6.688 4.362 11.2 0 4.55-1.468 8.322-4.404 11.314-2.936 2.993-6.632 4.489-11.088 4.489-2.756 0-5.385-.623-7.887-1.87-2.501-1.245-4.404-3.072-5.706-5.48-1.303-2.406-1.954-5.337-1.954-8.792zm8.156.424c0 2.983.708 5.268 2.124 6.854 1.416 1.586 3.162 2.379 5.239 2.379s3.819-.793 5.225-2.38c1.407-1.585 2.11-3.888 2.11-6.91 0-2.945-.703-5.21-2.11-6.796-1.406-1.586-3.148-2.38-5.225-2.38-2.077 0-3.823.794-5.24 2.38-1.415 1.586-2.123 3.87-2.123 6.853zM479.167 27.956V34.3h-5.437v12.12c0 2.456.05 3.886.155 4.292.104.406.34.74.708 1.005.368.264.817.397 1.346.397.736 0 1.803-.255 3.2-.765l.679 6.174c-1.85.793-3.946 1.189-6.287 1.189-1.435 0-2.728-.241-3.88-.722-1.151-.481-1.996-1.105-2.534-1.87-.538-.764-.911-1.798-1.12-3.1-.17-.925-.254-2.795-.254-5.608V34.3h-3.653v-6.344h3.653V21.98l7.987-4.645v10.62h5.437z"/></g></svg>