<svg xmlns="http://www.w3.org/2000/svg" viewBox="0 0 49.79 49.79" width="42px" height="42px"><defs><style>.cls-1{fill:none;}.cls-2{fill:#fff;}.cls-3{fill:#070303;}</style></defs><title>lunettes</title><g id="Calque_2" data-name="Calque 2"><g id="Calque_1-2" data-name="Calque 1"><rect class="cls-1" width="49.79" height="49.79"/><path class="cls-2" d="M19.81,34.1a2.37,2.37,0,0,1-1.8-.77c-1.2-1.41-5.78-.93-6.1-.79a10,10,0,0,0,.39-1.44L13,28.8a5.38,5.38,0,0,1,3.48-.65,8.18,8.18,0,0,1,5.15,3.11,1.62,1.62,0,0,1-.54,2.52A2.53,2.53,0,0,1,19.81,34.1Z"/><path d="M19.81,35.1A3.38,3.38,0,0,1,17.24,34c-.64-.76-4.08-.71-5-.49A1,1,0,0,1,11,32c.06-.2.19-.74.28-1.16l.7-2.38a1,1,0,0,1,.42-.56,6.32,6.32,0,0,1,4.14-.8,9.14,9.14,0,0,1,5.79,3.45,2.55,2.55,0,0,1,.6,2.11,2.8,2.8,0,0,1-1.4,1.92A3.52,3.52,0,0,1,19.81,35.1Zm-5.55-3.76c1.65,0,3.6.27,4.51,1.34a1.57,1.57,0,0,0,1.8.22.82.82,0,0,0,.43-.53.57.57,0,0,0-.15-.48,7.22,7.22,0,0,0-4.51-2.76,4.66,4.66,0,0,0-2.51.34l-.56,1.9C13.57,31.36,13.91,31.34,14.26,31.34Zm-2.74.27Z"/><path class="cls-2" d="M26.59,37.6a1.7,1.7,0,0,1-1.09-3c.09-.07,8.73-7.22,15.26-12.33.94-.74,3.81-3,6.12-1.57s1.81,5.34,1.59,6.5a1.7,1.7,0,0,1-3.34-.63,6.72,6.72,0,0,0,0-2.9,5.9,5.9,0,0,0-2.25,1.29C36.37,30,27.76,37.13,27.68,37.21A1.69,1.69,0,0,1,26.59,37.6Z"/><path d="M26.59,38.6a2.7,2.7,0,0,1-1.72-4.78c.07-.06,8.71-7.21,15.29-12.34,1.08-.84,4.36-3.4,7.26-1.64s2.31,6.22,2.06,7.54a2.7,2.7,0,0,1-5.31-1,7.76,7.76,0,0,0,.12-1.22c-.23.15-.49.34-.8.58-5.91,4.61-13.62,11-15.11,12.2A2.76,2.76,0,0,1,26.59,38.6ZM45.23,21.24c-1.52,0-3.2,1.31-3.84,1.81C34.8,28.19,26.23,35.29,26.15,35.35a.7.7,0,0,0,.44,1.24.69.69,0,0,0,.45-.16c1.55-1.28,9.28-7.65,15.21-12.28a7.08,7.08,0,0,1,2.69-1.49,1,1,0,0,1,1.09.59,7.44,7.44,0,0,1,.09,3.48A.7.7,0,1,0,47.5,27c.14-.72.72-4.33-1.13-5.46A2.15,2.15,0,0,0,45.23,21.24Z"/><path class="cls-2" d="M4.48,30.79a1.7,1.7,0,0,1-1.09-3c.09-.07,8.73-7.22,15.26-12.32.94-.74,3.81-3,6.12-1.57s1.81,5.34,1.59,6.5A1.7,1.7,0,1,1,23,19.75a6.73,6.73,0,0,0,0-2.91,5.92,5.92,0,0,0-2.25,1.29C14.25,23.21,5.65,30.33,5.56,30.4A1.69,1.69,0,0,1,4.48,30.79Z"/><path d="M4.48,31.79A2.7,2.7,0,0,1,2.75,27c.06-.05,8.7-7.2,15.29-12.34,1.08-.84,4.36-3.4,7.26-1.64s2.31,6.22,2.06,7.54a2.7,2.7,0,1,1-5.31-1,7.74,7.74,0,0,0,.12-1.22c-.23.15-.49.34-.8.58C14.93,23.94,6.28,31.1,6.2,31.17A2.7,2.7,0,0,1,4.48,31.79ZM23.12,14.43c-1.52,0-3.2,1.31-3.84,1.81C12.78,21.31,4.11,28.48,4,28.55a.7.7,0,0,0-.26.48.69.69,0,0,0,.16.51.7.7,0,0,0,.54.26.69.69,0,0,0,.44-.16c.08-.07,8.65-7.16,15.21-12.28a7.12,7.12,0,0,1,2.69-1.49,1,1,0,0,1,1.1.59A7.45,7.45,0,0,1,24,19.93a.7.7,0,0,0,.56.82.69.69,0,0,0,.82-.56c.14-.72.72-4.33-1.13-5.46A2.15,2.15,0,0,0,23.12,14.43Z"/><ellipse class="cls-3" cx="7.98" cy="28.76" rx="6.72" ry="8.28" transform="translate(-0.5 0.14) rotate(-1)"/><ellipse class="cls-3" cx="25.31" cy="33.83" rx="6.72" ry="8.28" transform="translate(-0.72 0.55) rotate(-1.23)"/><rect class="cls-2" x="0.46" y="27.08" width="13.68" height="2" transform="translate(-20.11 18.56) rotate(-56.29)"/><rect class="cls-2" x="2.45" y="29.63" width="13.32" height="1" transform="translate(-20.91 20.68) rotate(-55.7)"/><path d="M7.93,22.48c2.57,0,4.71,2.78,4.77,6.2S10.69,35,8.09,35H8c-2.56,0-4.7-2.78-4.76-6.2s2-6.32,4.6-6.37h.06m0-2H7.83c-3.71.07-6.65,3.83-6.57,8.4S4.36,37,8,37h.1c3.71-.06,6.65-3.83,6.57-8.4s-3.1-8.17-6.77-8.17Z"/><rect class="cls-2" x="17.49" y="32.13" width="13.92" height="2" transform="translate(-16.7 34.56) rotate(-55.56)"/><rect class="cls-2" x="19.49" y="34.76" width="13.24" height="1" transform="translate(-17.74 36.93) rotate(-55.66)"/><path d="M24.94,27.58c2.57,0,4.71,2.78,4.77,6.2a7.29,7.29,0,0,1-1.44,4.62,4.15,4.15,0,0,1-3.17,1.74H25c-2.57,0-4.7-2.78-4.76-6.2s2-6.32,4.6-6.37h.06m0-2h-.1c-3.71.07-6.65,3.83-6.57,8.4s3.1,8.17,6.76,8.17h.1c3.71-.06,6.65-3.83,6.57-8.4s-3.1-8.17-6.77-8.17Z"/></g></g></svg>