<svg xmlns="http://www.w3.org/2000/svg" viewBox="0 0 49.79 49.79" width="42px" height="42px"><defs><style>.cls-1{fill:none;}.cls-2{fill:#fff;}</style></defs><title>main</title><g id="Calque_2" data-name="Calque 2"><g id="Calque_1-2" data-name="Calque 1"><rect class="cls-1" width="49.79" height="49.79"/><path class="cls-2" d="M22.5,11v.48l2.48,3a62.84,62.84,0,0,0,3-5.61c2-4-2.4-4.08-2.4-4.08L22.5,11"/><path d="M25,15.5a1.08,1.08,0,0,1-.82-.38l-2.48-3a1.08,1.08,0,0,1-.25-.69V11a1.08,1.08,0,0,1,.11-.48l3.08-6.26a1,1,0,0,1,1-.6c.26,0,2.52.1,3.52,1.74a3.93,3.93,0,0,1-.18,3.89A63.28,63.28,0,0,1,25.89,15a1.08,1.08,0,0,1-.84.49Zm-1.36-4.36,1.2,1.42c.5-.89,1.23-2.27,2.19-4.23.23-.47.58-1.34.28-1.83A1.76,1.76,0,0,0,26.2,5.9Z"/><path class="cls-2" d="M19.34,40.83a3.13,3.13,0,0,0-.83-4.62c-2.84-2-7.63-10.12-9.82-12.31,0,0,3.26-4.65,8.38,4.35,0,0-1.27-7.3.35-10.92,0,0,1.16-3.88,2.79-1.94a4.45,4.45,0,0,1,.85,4.37s1-2.49-1.66-5.39a22.07,22.07,0,0,1-3.31-5.15,3.06,3.06,0,0,1,.3-2.84c.89-1.3,4.53,2.22,7.6,6.6s2,6.66,2,6.66.3-3.14,2.49-2.78,2.19,3.49,2.19,3.49,2.31-2.9,3.91-.95.35,12.84-1.66,15.33S30,39.23,30,40.83C30,40.83,26.5,46.28,19.34,40.83Z"/><path d="M25.29,44.33a11.11,11.11,0,0,1-6.6-2.64,1.08,1.08,0,0,1-.21-1.51,2.49,2.49,0,0,0,.45-1.65,2.27,2.27,0,0,0-1-1.44c-1.85-1.31-4.2-4.63-6.48-7.84a45.85,45.85,0,0,0-3.49-4.59,1.08,1.08,0,0,1-.12-1.38,4.18,4.18,0,0,1,3.41-1.65c1.45.07,2.9.93,4.35,2.57A17.58,17.58,0,0,1,16.4,17a6.12,6.12,0,0,1,1.53-2.64,25.21,25.21,0,0,1-2.81-4.61,4.13,4.13,0,0,1,.37-3.93A1.68,1.68,0,0,1,16.91,5h0c2.67,0,7.09,6.11,7.95,7.33a14.37,14.37,0,0,1,1.95,3.72,2.8,2.8,0,0,1,1.81-.28,3.5,3.5,0,0,1,2.73,2.48,3.59,3.59,0,0,1,1.88-.63h0a2.69,2.69,0,0,1,2.13,1.07c2,2.5.56,14-1.65,16.69-1.7,2.1-2.6,4-2.6,5.42a1.08,1.08,0,0,1-.17.59,6.93,6.93,0,0,1-5.66,2.91Zm-4.55-3.81a7.51,7.51,0,0,0,5.39,1.59A4.92,4.92,0,0,0,29,40.45c.12-1.88,1.15-4,3.07-6.39s2.81-12.57,1.66-14c-.23-.28-.38-.28-.47-.28-.57,0-1.43.79-1.77,1.22a1.08,1.08,0,0,1-1.92-.67s-.05-2.23-1.29-2.43a.61.61,0,0,0-.52.1,2,2,0,0,0-.55.94,3.45,3.45,0,0,1-.27,1.14,1.08,1.08,0,0,1-2-.56,6,6,0,0,1,.18-.95c0-.82-.22-2.5-2-5-2.78-4-5.11-6-6-6.35A1.9,1.9,0,0,0,17,8.75a21.27,21.27,0,0,0,3.14,4.9,9.59,9.59,0,0,1,.89,1.11,5.52,5.52,0,0,1,1,5.4h0a1.08,1.08,0,0,1-2-.81,3.91,3.91,0,0,0-.71-3.31L19.28,16a4.88,4.88,0,0,0-.84,1.66l0,.13c-1.21,2.72-.61,8.35-.27,10.3a1.08,1.08,0,0,1-2,.72c-2.41-4.24-4.17-5-5-5a1.69,1.69,0,0,0-.93.21c.83,1,1.84,2.43,3,4,2,2.78,4.41,6.23,6,7.33a4.07,4.07,0,0,1,1.61,5.18Z"/></g></g></svg>