<svg xmlns="http://www.w3.org/2000/svg" viewBox="0 0 49.79 49.79" width="42px" height="42px"><defs><style>.cls-1{fill:none;}.cls-2{fill:#fff;}</style></defs><title>menu</title><g id="Calque_2" data-name="Calque 2"><g id="Calque_1-2" data-name="Calque 1"><rect class="cls-1" width="49.79" height="49.79"/><path d="M22.22,23.9h-13a1,1,0,0,1-1-1V9.9a1,1,0,0,1,1-1h13a1,1,0,0,1,1,1v13A1,1,0,0,1,22.22,23.9Zm-12-2h11v-11h-11Z"/><rect class="cls-2" x="8.22" y="8.9" width="13" height="13"/><path d="M21.22,22.9h-13a1,1,0,0,1-1-1V8.9a1,1,0,0,1,1-1h13a1,1,0,0,1,1,1v13A1,1,0,0,1,21.22,22.9Zm-12-2h11V9.9h-11Z"/><path d="M40.22,23.9h-13a1,1,0,0,1-1-1V9.9a1,1,0,0,1,1-1h13a1,1,0,0,1,1,1v13A1,1,0,0,1,40.22,23.9Zm-12-2h11v-11h-11Z"/><rect class="cls-2" x="26.22" y="8.9" width="13" height="13"/><path d="M39.22,22.9h-13a1,1,0,0,1-1-1V8.9a1,1,0,0,1,1-1h13a1,1,0,0,1,1,1v13A1,1,0,0,1,39.22,22.9Zm-12-2h11V9.9h-11Z"/><path d="M22.22,41.9h-13a1,1,0,0,1-1-1v-13a1,1,0,0,1,1-1h13a1,1,0,0,1,1,1v13A1,1,0,0,1,22.22,41.9Zm-12-2h11v-11h-11Z"/><rect class="cls-2" x="8.22" y="26.9" width="13" height="13"/><path d="M21.22,40.9h-13a1,1,0,0,1-1-1v-13a1,1,0,0,1,1-1h13a1,1,0,0,1,1,1v13A1,1,0,0,1,21.22,40.9Zm-12-2h11v-11h-11Z"/><path d="M40.22,41.9h-13a1,1,0,0,1-1-1v-13a1,1,0,0,1,1-1h13a1,1,0,0,1,1,1v13A1,1,0,0,1,40.22,41.9Zm-12-2h11v-11h-11Z"/><rect class="cls-2" x="26.22" y="26.9" width="13" height="13"/><path d="M39.22,40.9h-13a1,1,0,0,1-1-1v-13a1,1,0,0,1,1-1h13a1,1,0,0,1,1,1v13A1,1,0,0,1,39.22,40.9Zm-12-2h11v-11h-11Z"/></g></g></svg>