<svg xmlns="http://www.w3.org/2000/svg" viewBox="0 0 49.79 49.79" width="42px" height="42px"><defs><style>.cls-1{fill:none;}.cls-2{fill:#fff;}</style></defs><title>ouverture</title><g id="Calque_2" data-name="Calque 2"><g id="Calque_1-2" data-name="Calque 1"><rect class="cls-1" width="49.79" height="49.79"/><circle class="cls-2" cx="26.43" cy="25.24" r="13.75"/><path d="M26.43,40A14.75,14.75,0,1,1,41.18,25.24,14.77,14.77,0,0,1,26.43,40Zm0-27.5A12.75,12.75,0,1,0,39.18,25.24,12.76,12.76,0,0,0,26.43,12.49Z"/><line class="cls-2" x1="28.49" y1="12.18" x2="20.93" y2="25.24"/><rect x="17.16" y="17.71" width="15.09" height="2" transform="translate(-3.86 30.72) rotate(-59.93)"/><line class="cls-2" x1="23.68" y1="30.05" x2="16.12" y2="16.3"/><rect x="18.9" y="15.33" width="2" height="15.69" transform="translate(-8.71 12.46) rotate(-28.81)"/><line class="cls-2" x1="38.8" y1="20.43" x2="23.68" y2="20.43"/><rect x="23.68" y="19.43" width="15.13" height="2"/><line class="cls-2" x1="24.37" y1="38.99" x2="31.93" y2="25.24"/><rect x="20.3" y="31.12" width="15.69" height="2" transform="translate(-13.56 41.3) rotate(-61.18)"/><line class="cls-2" x1="29.18" y1="30.05" x2="14.05" y2="30.05"/><rect x="14.05" y="29.05" width="15.13" height="2"/><line class="cls-2" x1="37.43" y1="34.18" x2="29.18" y2="20.43"/><rect x="32.3" y="19.29" width="2" height="16.04" transform="matrix(0.86, -0.51, 0.51, 0.86, -9.3, 21.03)"/></g></g></svg>