<svg xmlns="http://www.w3.org/2000/svg" viewBox="0 0 49.79 49.79" width="42px" height="42px"><defs><style>.cls-1{fill:none;}.cls-2{fill:#fff;}</style></defs><title>poudre</title><g id="Calque_2" data-name="Calque 2"><g id="Calque_1-2" data-name="Calque 1"><rect class="cls-1" width="49.79" height="49.79"/><ellipse class="cls-2" cx="16.33" cy="18.88" rx="13.49" ry="8.41" transform="translate(-7.72 25.56) rotate(-64.67)"/><path d="M13,32.68A6.63,6.63,0,0,1,10.1,32C5.29,29.77,4.26,22.2,7.76,14.82s10-11.38,14.81-9.1,5.84,9.84,2.34,17.22a19.32,19.32,0,0,1-6.7,8A9.81,9.81,0,0,1,13,32.68ZM19.73,7.25c-3.42,0-7.62,3.42-10,8.49C6.82,21.82,7.43,28.4,11,30.1h0c1.68.8,3.82.46,6-1A17.16,17.16,0,0,0,23,22c2.88-6.08,2.27-12.66-1.32-14.36A4.43,4.43,0,0,0,19.73,7.25Z"/><ellipse cx="18.68" cy="20.28" rx="13.49" ry="7.06" transform="translate(-7.65 28.49) rotate(-64.67)"/><path d="M14.62,33.93a5,5,0,0,1-2.18-.48c-2.08-1-3.31-3.34-3.44-6.64a22.09,22.09,0,0,1,2.31-10c3.49-7.38,9.46-11.63,13.59-9.68,2.08,1,3.31,3.34,3.44,6.64a22.09,22.09,0,0,1-2.31,10,22.09,22.09,0,0,1-6.28,8.13A8.76,8.76,0,0,1,14.62,33.93ZM22.7,8.79c-2.94,0-6.94,3.68-9.43,8.93a19.92,19.92,0,0,0-2.11,9c.1,2.42.9,4.16,2.21,4.78h0c1.31.62,3.16.14,5.1-1.32a19.93,19.93,0,0,0,5.63-7.34,19.91,19.91,0,0,0,2.11-9c-.1-2.42-.9-4.16-2.21-4.78A3,3,0,0,0,22.7,8.79Z"/><polygon class="cls-2" points="10.78 26.15 10.78 23.98 26.55 9.29 26.59 10.47 27.35 10.93 10.78 26.15"/><polygon class="cls-2" points="12.05 32.38 10.87 28.19 27.35 13.03 27.26 18.4 12.05 32.38"/><path d="M14.62,33.93a5,5,0,0,1-2.18-.48c-2.08-1-3.31-3.34-3.44-6.64a22.09,22.09,0,0,1,2.31-10c3.49-7.38,9.46-11.63,13.59-9.68,2.08,1,3.31,3.34,3.44,6.64a22.09,22.09,0,0,1-2.31,10,22.09,22.09,0,0,1-6.28,8.13A8.76,8.76,0,0,1,14.62,33.93ZM22.7,8.79c-2.94,0-6.94,3.68-9.43,8.93a19.92,19.92,0,0,0-2.11,9c.1,2.42.9,4.16,2.21,4.78h0c1.31.62,3.16.14,5.1-1.32a19.93,19.93,0,0,0,5.63-7.34,19.91,19.91,0,0,0,2.11-9c-.1-2.42-.9-4.16-2.21-4.78A3,3,0,0,0,22.7,8.79Z"/><ellipse class="cls-2" cx="24.46" cy="37.91" rx="13.49" ry="6.98"/><path d="M24.46,46C16.3,46,9.9,42.43,9.9,37.91s6.4-8.05,14.56-8.05S39,33.4,39,37.91,32.63,46,24.46,46Zm0-14c-7.42,0-12.41,3.05-12.41,5.9s5,5.9,12.41,5.9,12.41-3.05,12.41-5.9S31.89,32,24.46,32Z"/><ellipse class="cls-2" cx="24.46" cy="35.51" rx="13.49" ry="5.6"/><path d="M24.46,42.19c-8.3,0-14.56-2.87-14.56-6.67s6.26-6.67,14.56-6.67S39,31.71,39,35.51,32.77,42.19,24.46,42.19Zm0-11.19c-7.1,0-12.41,2.39-12.41,4.52S17.36,40,24.46,40s12.41-2.39,12.41-4.52S31.57,31,24.46,31Z"/><ellipse cx="24.46" cy="37.03" rx="10.65" ry="3.72"/><circle cx="30.04" cy="25.54" r="1.47"/><circle cx="37.95" cy="27.01" r="1.47"/><circle cx="35.9" cy="19.83" r="1.47"/><circle cx="42.37" cy="13.08" r="1.47"/><circle cx="34" cy="27.73" r="1.47"/><circle cx="31.06" cy="20.34" r="1.47"/></g></g></svg>