<svg xmlns="http://www.w3.org/2000/svg" viewBox="0 0 49.79 49.79" width="42px" height="42px"><defs><style>.cls-1{fill:none;}.cls-2{fill:#fff;}</style></defs><title>rougealevre</title><g id="Calque_2" data-name="Calque 2"><g id="Calque_1-2" data-name="Calque 1"><rect class="cls-1" width="49.79" height="49.79"/><polygon class="cls-2" points="32.57 18.74 25.97 25.31 16.8 22.84 23.2 15.61 32.57 18.74"/><path d="M26,26.31a1,1,0,0,1-.26,0L16.54,23.8A1,1,0,0,1,16,22.17l6.4-7.23a1,1,0,0,1,1.07-.29l9.37,3.13a1,1,0,0,1,.39,1.66L26.67,26A1,1,0,0,1,26,26.31Zm-7.35-4,7.05,1.9,5-5-7.21-2.41Z"/><polygon class="cls-2" points="25.86 25.29 31.35 43.33 22.13 41.23 16.74 23.09 25.86 25.29"/><path d="M31.35,44.33l-.22,0-9.22-2.09a1,1,0,0,1-.74-.69L15.78,23.37A1,1,0,0,1,17,22.11l9.12,2.2a1,1,0,0,1,.72.68l5.49,18a1,1,0,0,1-1,1.29Zm-8.43-3.94,7,1.58L25.07,26.12l-6.87-1.66Z"/><polygon class="cls-2" points="26.08 25.29 31.57 43.33 38.24 36.81 32.6 18.73 26.08 25.29"/><path d="M31.57,44.33a1,1,0,0,1-1-.71l-5.49-18a1,1,0,0,1,.25-1L31.89,18a1,1,0,0,1,1.66.41l5.63,18.07a1,1,0,0,1-.25,1L32.27,44A1,1,0,0,1,31.57,44.33ZM27.22,25.57l4.84,15.9,5.05-4.94-5-15.91Z"/><polygon class="cls-2" points="29.82 38.37 32.26 46.38 22.04 44.05 19.71 35.93 29.82 38.37"/><path d="M32.26,47.38l-.22,0L21.82,45a1,1,0,0,1-.74-.7L18.75,36.2A1,1,0,0,1,19.95,35l10.11,2.44a1,1,0,0,1,.72.68l2.44,8a1,1,0,0,1-1,1.29Zm-9.42-4.16,8,1.81L29,39.2l-7.88-1.9Z"/><polygon class="cls-2" points="30.07 38.37 32.51 46.38 39.9 39.15 37.3 31.1 30.07 38.37"/><path d="M32.51,47.38a1,1,0,0,1-1-.71l-2.44-8a1,1,0,0,1,.25-1l7.23-7.26a1,1,0,0,1,1.66.4l2.6,8a1,1,0,0,1-.25,1l-7.39,7.23A1,1,0,0,1,32.51,47.38Zm-1.3-8.73L33,44.51l5.77-5.65L36.86,33Z"/><ellipse class="cls-2" cx="24.65" cy="19.7" rx="4.28" ry="1.75" transform="translate(-4.67 8.03) rotate(-16.93)"/><path d="M22.62,22.79l-.59,0c-1.76-.16-2.27-1-2.42-1.52-.55-1.81,1.82-3.43,4.25-4.17s5.3-.71,5.85,1.09h0c.55,1.81-1.82,3.43-4.25,4.17A10,10,0,0,1,22.62,22.79Zm-1-2.15a5.57,5.57,0,0,0,3.3-.22,5.57,5.57,0,0,0,2.86-1.66,5.56,5.56,0,0,0-3.3.22A5.57,5.57,0,0,0,21.57,20.64Z"/><polyline class="cls-2" points="28.77 18.52 27.2 13.34 19.03 15.83 20.6 21"/><path d="M19.64,21.29l-1.57-5.17a1,1,0,0,1,.67-1.25l8.17-2.49a1,1,0,0,1,1.25.67l1.57,5.17-1.91.58-1.28-4.22-6.26,1.9,1.28,4.22Z"/><ellipse class="cls-2" cx="23.11" cy="14.65" rx="4.28" ry="1.75" transform="translate(-3.27 7.37) rotate(-16.93)"/><path d="M21.08,17.74l-.59,0c-1.76-.16-2.27-1-2.42-1.52-.55-1.81,1.82-3.43,4.25-4.17a9.33,9.33,0,0,1,3.43-.43c1.75.16,2.27,1,2.42,1.52h0c.15.5.2,1.5-1.16,2.62a9.26,9.26,0,0,1-3.09,1.55A10,10,0,0,1,21.08,17.74Zm-1-2.15a5.57,5.57,0,0,0,3.3-.22,5.57,5.57,0,0,0,2.86-1.66,5.58,5.58,0,0,0-3.29.22A5.58,5.58,0,0,0,20,15.59Z"/><ellipse class="cls-2" cx="23.17" cy="14.85" rx="3.41" ry="1.39" transform="translate(-3.32 7.39) rotate(-16.93)"/><path d="M21.55,17.51l-.49,0c-1.52-.14-2-.91-2.11-1.36-.48-1.57,1.49-3,3.52-3.57s4.43-.57,4.91,1h0c.14.45.19,1.34-1,2.3a7.58,7.58,0,0,1-2.53,1.27A8.14,8.14,0,0,1,21.55,17.51Zm-.46-2a5.31,5.31,0,0,0,2.19-.26,5.33,5.33,0,0,0,2-1,5.37,5.37,0,0,0-2.19.26A5.34,5.34,0,0,0,21.1,15.48Z"/><polyline class="cls-2" points="26.45 13.91 23.75 5.01 18.06 9.66 19.95 15.88"/><path d="M19,16.18,17.1,9.95a1,1,0,0,1,.32-1.07l5.69-4.64a1,1,0,0,1,1.59.48l2.71,8.89-1.91.58L23.22,6.73l-4,3.28,1.7,5.59Z"/><ellipse class="cls-2" cx="20.84" cy="7.13" rx="3.66" ry="1.5" transform="translate(0.74 16.13) rotate(-43.02)"/><path d="M18.79,10.85a1.8,1.8,0,0,1-1.36-.55c-1.17-1.25.06-3.47,1.7-5s3.94-2.61,5.11-1.35h0c.33.35.78,1.16.12,2.61A8.06,8.06,0,0,1,22.54,9,8.07,8.07,0,0,1,20,10.6,3.47,3.47,0,0,1,18.79,10.85Zm3.87-5.43A5.39,5.39,0,0,0,20.5,6.76,5.41,5.41,0,0,0,19,8.83a5.39,5.39,0,0,0,2.16-1.34A5.4,5.4,0,0,0,22.66,5.42Z"/></g></g></svg>