<svg xmlns="http://www.w3.org/2000/svg" viewBox="0 0 49.79 49.79" width="42px" height="42px"><defs><style>.cls-1{fill:none;}.cls-2{fill:#fff;}</style></defs><title>sac</title><g id="Calque_2" data-name="Calque 2"><g id="Calque_1-2" data-name="Calque 1"><rect class="cls-1" width="49.79" height="49.79"/><ellipse class="cls-2" cx="23.26" cy="10.22" rx="7.02" ry="5.46"/><path d="M23.26,16.67c-4.42,0-8-2.9-8-6.46s3.6-6.46,8-6.46,8,2.9,8,6.46S27.69,16.67,23.26,16.67Zm0-10.91c-3.32,0-6,2-6,4.46s2.7,4.46,6,4.46,6-2,6-4.46S26.58,5.76,23.26,5.76Z"/><rect class="cls-2" x="10.16" y="10.22" width="26.2" height="35.86" rx="2.71" ry="2.71"/><path d="M33.66,47.08H12.87a3.71,3.71,0,0,1-3.71-3.71V12.92a3.71,3.71,0,0,1,3.71-3.71H33.66a3.71,3.71,0,0,1,3.71,3.71V43.37A3.71,3.71,0,0,1,33.66,47.08ZM12.87,11.22a1.71,1.71,0,0,0-1.71,1.71V43.37a1.71,1.71,0,0,0,1.71,1.71H33.66a1.71,1.71,0,0,0,1.71-1.71V12.92a1.71,1.71,0,0,0-1.71-1.71Z"/><path class="cls-2" d="M36.36,17.13V12.92a2.71,2.71,0,0,0-2.71-2.71H12.87a2.71,2.71,0,0,0-2.71,2.71v4.21a7.32,7.32,0,0,0,6.71,4.73H29.65A7.32,7.32,0,0,0,36.36,17.13Z"/><path d="M29.65,22.86H16.87a8.31,8.31,0,0,1-7.64-5.35,1,1,0,0,1-.07-.37V12.92a3.71,3.71,0,0,1,3.71-3.71H33.66a3.71,3.71,0,0,1,3.71,3.71v4.21a1,1,0,0,1-.07.37A8.31,8.31,0,0,1,29.65,22.86ZM11.16,16.93a6.3,6.3,0,0,0,5.71,3.93H29.65a6.3,6.3,0,0,0,5.71-3.93v-4a1.71,1.71,0,0,0-1.71-1.71H12.87a1.71,1.71,0,0,0-1.71,1.71Zm25.2.2h0Z"/><path d="M18.65,35.86a1,1,0,0,1-1-1V18.22a1,1,0,0,1,2,0V34.86A1,1,0,0,1,18.65,35.86Z"/><path d="M21,18.72H16.28a1,1,0,1,1,0-2H21a1,1,0,0,1,0,2Z"/><rect class="cls-2" x="16.28" y="26.54" width="5.03" height="5.03" rx="1.01" ry="1.01"/><path d="M20.31,32.57h-3a2,2,0,0,1-2-2v-3a2,2,0,0,1,2-2h3a2,2,0,0,1,2,2v3A2,2,0,0,1,20.31,32.57Zm-3-5v3h3v-3Z"/><path d="M28.3,35.86a1,1,0,0,1-1-1V18.22a1,1,0,0,1,2,0V34.86A1,1,0,0,1,28.3,35.86Z"/><path d="M30.66,18.72H25.93a1,1,0,0,1,0-2h4.74a1,1,0,0,1,0,2Z"/><path class="cls-2" d="M26.93,26.54h3a1,1,0,0,1,1,1v3a1,1,0,0,1-1,1h-3a1,1,0,0,1-1-1v-3A1,1,0,0,1,26.93,26.54Z"/><path d="M30,32.57h-3a2,2,0,0,1-2-2v-3a2,2,0,0,1,2-2h3a2,2,0,0,1,2,2v3A2,2,0,0,1,30,32.57Zm-3-5v3h3v-3Z"/><path d="M36.36,40.57H10.16a1,1,0,0,1,0-2h26.2a1,1,0,0,1,0,2Z"/></g></g></svg>