<svg xmlns="http://www.w3.org/2000/svg" viewBox="0 0 49.79 49.79" width="42px" height="42px"><defs><style>.cls-1{fill:none;}.cls-2{fill:#fff;}</style></defs><title>scooter</title><g id="Calque_2" data-name="Calque 2"><g id="Calque_1-2" data-name="Calque 1"><rect class="cls-1" width="49.79" height="49.79"/><path class="cls-2" d="M10.94,35.91H43s-3.58-12.22-8.48-18.59V30.39H28.77l-4.57-6.7h-16Z"/><path d="M43,37h-32a1.08,1.08,0,0,1-1-.84L7.13,23.93a1.08,1.08,0,0,1,1-1.31h16a1.08,1.08,0,0,1,.89.47l4.25,6.23h4.07v-12a1.08,1.08,0,0,1,1.93-.66c5,6.46,8.51,18.44,8.66,18.94A1.08,1.08,0,0,1,43,37ZM11.8,34.83H41.5a78,78,0,0,0-5.94-13.95v9.51a1.08,1.08,0,0,1-1.08,1.08H28.77a1.08,1.08,0,0,1-.89-.47l-4.25-6.23H9.53Z"/><path class="cls-2" d="M34.22,13.62v6.64h9.26S43,15.36,34.22,13.62Z"/><path d="M43.48,21.34H34.22a1.08,1.08,0,0,1-1.08-1.08V13.62a1.08,1.08,0,0,1,1.28-1.06c9.51,1.88,10.1,7.37,10.12,7.6a1.08,1.08,0,0,1-1.07,1.17Zm-8.18-2.15H42C41.29,18,39.58,16.07,35.29,15Z"/><path d="M33.94,17.14H30.3a1.08,1.08,0,1,1,0-2.15h3.65a1.08,1.08,0,0,1,0,2.15Z"/><path class="cls-2" d="M23.47,25.08h-15a3.78,3.78,0,0,1-3.77-3.77h0a3.78,3.78,0,0,1,3.77-3.77h15a3.78,3.78,0,0,1,3.77,3.77h0A3.78,3.78,0,0,1,23.47,25.08Z"/><path d="M23.47,26.16h-15a4.85,4.85,0,0,1,0-9.7h15a4.85,4.85,0,0,1,0,9.7Zm-15-7.54a2.7,2.7,0,0,0,0,5.39h15a2.7,2.7,0,0,0,0-5.39Z"/><circle class="cls-2" cx="13.45" cy="35.14" r="4.57"/><path d="M13.45,40.78a5.65,5.65,0,1,1,5.65-5.65A5.65,5.65,0,0,1,13.45,40.78Zm0-9.14a3.5,3.5,0,1,0,3.5,3.5A3.5,3.5,0,0,0,13.45,31.64Z"/><circle class="cls-2" cx="42.43" cy="35.14" r="4.57"/><path d="M42.43,40.78a5.65,5.65,0,1,1,5.65-5.65A5.65,5.65,0,0,1,42.43,40.78Zm0-9.14a3.5,3.5,0,1,0,3.5,3.5A3.5,3.5,0,0,0,42.43,31.64Z"/><path d="M5.45,24.78A.5.5,0,0,1,5,24l4.38-6.47a.5.5,0,1,1,.83.56L5.86,24.56A.5.5,0,0,1,5.45,24.78Z"/><path d="M8.63,24.82A.5.5,0,0,1,8.21,24l4.33-6.4a.5.5,0,0,1,.83.56L9,24.6A.5.5,0,0,1,8.63,24.82Z"/><path d="M11.8,24.85a.5.5,0,0,1-.41-.78l4.28-6.32a.5.5,0,0,1,.83.56l-4.28,6.32A.5.5,0,0,1,11.8,24.85Z"/><path d="M15,24.89a.5.5,0,0,1-.41-.78l4.23-6.24a.5.5,0,0,1,.83.56l-4.23,6.24A.5.5,0,0,1,15,24.89Z"/><path d="M18.16,24.92a.5.5,0,0,1-.41-.78L21.92,18a.5.5,0,0,1,.83.56L18.57,24.7A.5.5,0,0,1,18.16,24.92Z"/><path d="M21.33,25a.5.5,0,0,1-.41-.78L25,18.08a.5.5,0,0,1,.83.56l-4.12,6.09A.5.5,0,0,1,21.33,25Z"/></g></g></svg>