<svg xmlns="http://www.w3.org/2000/svg" viewBox="0 0 49.79 49.79" width="42px" height="42px"><defs><style>.cls-1{fill:none;}.cls-2{fill:#fff;}.cls-3{fill:#070303;}</style></defs><title>telephone</title><g id="Calque_2" data-name="Calque 2"><g id="Calque_1-2" data-name="Calque 1"><rect class="cls-1" width="49.79" height="49.79"/><polygon class="cls-2" points="31.16 44.4 13.55 37.53 18.56 4.05 36.17 10.92 31.16 44.4"/><path d="M31.15,45.4a1,1,0,0,1-.36-.07L13.18,38.46a1,1,0,0,1-.62-1.08l5-33.48a1,1,0,0,1,1.35-.78L36.53,10a1,1,0,0,1,.63,1.08l-5,33.48a1,1,0,0,1-1,.85Zm-16.5-8.52L30.35,43l4.71-31.45L19.36,5.43Z"/><path d="M30.33,37.42a.76.76,0,0,1-1.08.63L17,33.28a1.32,1.32,0,0,1-.79-1.35L19.83,7.46a.76.76,0,0,1,1.08-.63l12.22,4.77A1.32,1.32,0,0,1,33.92,13Z"/><polygon class="cls-2" points="33.27 43.64 31.21 44.84 36.17 10.87 38.23 9.67 33.27 43.64"/><path d="M31.21,45.34a.5.5,0,0,1-.49-.57l5-34a.5.5,0,0,1,.24-.36L38,9.24a.5.5,0,0,1,.75.5l-5,34a.5.5,0,0,1-.24.36l-2.06,1.2A.5.5,0,0,1,31.21,45.34Zm5.42-34.16-4.78,32.7,1-.55,4.78-32.7Z"/><polygon class="cls-2" points="38.19 9.7 36.13 10.9 18.29 3.73 20.34 2.53 38.19 9.7"/><path d="M36.13,11.4a.5.5,0,0,1-.19,0L18.1,4.19A.5.5,0,0,1,18,3.3l2.06-1.2a.5.5,0,0,1,.44,0L38.37,9.23a.5.5,0,0,1,.07.9l-2.06,1.2A.5.5,0,0,1,36.13,11.4ZM19.42,3.65l16.67,6.69,1-.56L20.39,3.09Z"/><ellipse class="cls-3" cx="22.1" cy="37.65" rx="1.65" ry="1.75" transform="translate(-4 2.66) rotate(-6.31)"/><rect class="cls-2" x="13.96" y="18.65" width="20.85" height="2" transform="translate(-6.3 25.93) rotate(-50.43)"/><rect class="cls-2" x="12.83" y="22.88" width="24.64" height="1" transform="translate(-8.9 27.88) rotate(-50.43)"/><path d="M21.59,9.25l10.26,4L28.57,35.64l-10.26-4L21.59,9.25m-1-2.48a.75.75,0,0,0-.75.69L16.24,31.92A1.32,1.32,0,0,0,17,33.28l12.22,4.77a.9.9,0,0,0,.33.06.76.76,0,0,0,.75-.69L33.92,13a1.32,1.32,0,0,0-.79-1.35L20.91,6.84a.9.9,0,0,0-.33-.06Z"/></g></g></svg>