<svg xmlns="http://www.w3.org/2000/svg" viewBox="0 0 49.79 49.79" width="42px" height="42px"><defs><style>.cls-1{fill:none;}.cls-2{fill:#fff;}</style></defs><title>tetine</title><g id="Calque_2" data-name="Calque 2"><g id="Calque_1-2" data-name="Calque 1"><rect class="cls-1" width="49.79" height="49.79"/><circle class="cls-2" cx="11.75" cy="33.69" r="3.3" transform="translate(-21.81 21.57) rotate(-50.92)"/><path d="M11.74,38.07A4.38,4.38,0,1,1,14.5,30.3h0a4.37,4.37,0,0,1-2.76,7.77Zm0-6.6h-.23a2.21,2.21,0,1,0,.23,0Z"/><circle class="cls-2" cx="14.09" cy="38.98" r="3.3" transform="translate(-25.05 25.34) rotate(-50.91)"/><path d="M14.08,43.36a4.38,4.38,0,1,1,2.77-7.77h0a4.38,4.38,0,0,1-2.31,7.75Zm0-6.6a2.22,2.22,0,1,0,1.4.5h0A2.21,2.21,0,0,0,14.09,36.76Z"/><circle class="cls-2" cx="16.58" cy="29.12" r="3.3" transform="translate(-16.47 23.62) rotate(-50.91)"/><path d="M16.57,33.49a4.38,4.38,0,1,1,2.77-7.77h0A4.38,4.38,0,0,1,17,33.47Zm0-6.6h-.23a2.22,2.22,0,1,0,1.63.49h0A2.21,2.21,0,0,0,16.58,26.89Z"/><circle class="cls-2" cx="23.36" cy="29.86" r="3.3" transform="translate(-14.55 29.17) rotate(-50.91)"/><path d="M23.35,34.24a4.38,4.38,0,1,1,2.77-7.77h0a4.38,4.38,0,0,1-2.31,7.75Zm0-6.6a2.22,2.22,0,1,0,1.4.5h0A2.21,2.21,0,0,0,23.36,27.64Z"/><circle class="cls-2" cx="30.2" cy="31.91" r="3.3" transform="translate(-13.61 35.23) rotate(-50.91)"/><path d="M30.19,36.29A4.37,4.37,0,1,1,33,28.52h0a4.37,4.37,0,0,1-2.76,7.77Zm0-6.6a2.22,2.22,0,1,0,1.4.5h0A2.21,2.21,0,0,0,30.2,29.69Z"/><circle class="cls-2" cx="34.36" cy="26.79" r="3.3" transform="translate(-8.1 36.56) rotate(-50.91)"/><path d="M34.35,31.16a4.37,4.37,0,1,1,2.76-7.77h0a4.37,4.37,0,0,1-2.76,7.77Zm0-6.6h-.23a2.22,2.22,0,1,0,1.63.49h0A2.21,2.21,0,0,0,34.36,24.57Z"/><ellipse class="cls-2" cx="36.47" cy="20.8" rx="3.95" ry="9.9" transform="translate(1.28 43.7) rotate(-62.75)"/><path d="M42.35,27.63a19.3,19.3,0,0,1-8.18-2.36c-4.85-2.5-9-6.56-7.46-9.49.7-1.36,2.44-2,4.92-1.73a20.65,20.65,0,0,1,7.14,2.29h0a20.65,20.65,0,0,1,6,4.49c1.63,1.88,2.14,3.65,1.44,5S44.16,27.63,42.35,27.63ZM30.6,16.14c-1.21,0-1.81.31-2,.62-.52,1,1.81,4.17,6.53,6.6s8.64,2.5,9.16,1.49c.19-.37,0-1.28-1.16-2.61a18.47,18.47,0,0,0-5.38-4,18.49,18.49,0,0,0-6.37-2.06C31.12,16.16,30.85,16.14,30.6,16.14Z"/><path class="cls-2" d="M43.11,13.81a3.61,3.61,0,0,0-6.6-2.91,3.65,3.65,0,0,0-.23.76,7.4,7.4,0,0,1-1.72,6.15c-2.45,2.5,4.75,4.86,4.59,2s3.57-5.35,3.57-5.35A3.62,3.62,0,0,0,43.11,13.81Z"/><path d="M37.56,22.2a5.33,5.33,0,0,1-4.23-2.07,2.41,2.41,0,0,1,.45-3.07,6.37,6.37,0,0,0,1.43-5.19,1.1,1.1,0,0,1,0-.42,4.68,4.68,0,1,1,8.88,2.8h0a4.66,4.66,0,0,1-.51.87,1.09,1.09,0,0,1-.27.26c-.9.61-3.2,2.59-3.1,4.4A2.15,2.15,0,0,1,38.62,22,3.56,3.56,0,0,1,37.56,22.2Zm-.2-10.5a8.35,8.35,0,0,1-2,6.87c-.28.28-.25.36,0,.59a3.13,3.13,0,0,0,2.8.79c-.19-3.11,3-5.62,3.85-6.23a2.39,2.39,0,0,0,.18-.34,2.53,2.53,0,0,0-4.63-2A2.35,2.35,0,0,0,37.37,11.69Zm5.74,2.12h0Z"/></g></g></svg>