<svg xmlns="http://www.w3.org/2000/svg" viewBox="0 0 49.79 49.79" width="42px" height="42px"><defs><style>.cls-1{fill:none;}.cls-2{fill:#fff;}</style></defs><title>top</title><g id="Calque_2" data-name="Calque 2"><g id="Calque_1-2" data-name="Calque 1"><rect class="cls-1" width="49.79" height="49.79"/><path class="cls-2" d="M37.79,19.26c-.08-3.89-.2-14.64-.2-14.64H32.41a3,3,0,0,0-.34.72c0,4.75-1.24,8.77-5.83,9.63C21.65,14.12,20.4,10,20.4,5.3a2.51,2.51,0,0,0-.34-.68H14.42s.52,10.75.44,14.64-3.45,6.24-3.45,6.24V45.62h30V25.5S37.87,23.15,37.79,19.26Z"/><path d="M41.41,46.62h-30a1,1,0,0,1-1-1V25.5a1,1,0,0,1,.43-.82s3-2.13,3-5.44c.08-3.81-.44-14.47-.44-14.57a1,1,0,0,1,1-1h5.65a1,1,0,0,1,.86.49v0A2.21,2.21,0,0,1,21.4,5.3c0,5.2,1.54,8,4.83,8.65,3.3-.7,4.83-3.44,4.83-8.61a2.33,2.33,0,0,1,.43-1.15h0l0-.07a1,1,0,0,1,.87-.5h5.18a1,1,0,0,1,1,1s.12,10.75.2,14.63c.07,3.3,3.15,5.41,3.18,5.43a1,1,0,0,1,.44.83V45.62A1,1,0,0,1,41.41,46.62Zm-29-2h28V26a9.23,9.23,0,0,1-3.62-6.72h0c-.06-3.17-.16-10.91-.19-13.66H33.07C33,11.75,30.83,15.13,26.42,16a1,1,0,0,1-.36,0c-4.34-.8-6.57-4.28-6.65-10.33H15.46c.13,2.81.46,10.46.39,13.66A9.33,9.33,0,0,1,12.41,26Z"/><path d="M39.3,41.58h-28a.5.5,0,0,1,0-1h28a.5.5,0,0,1,0,1Z"/><path d="M40.41,37.62h-29a.5.5,0,1,1,0-1h29a.5.5,0,0,1,0,1Z"/><polygon class="cls-2" points="33.7 26.11 30.87 27.53 28.04 26.11 28.04 20.45 33.7 20.45 33.7 26.11"/><path d="M30.87,28a.5.5,0,0,1-.22-.05l-2.83-1.42a.5.5,0,0,1-.28-.45V20.45A.5.5,0,0,1,28,20H33.7a.5.5,0,0,1,.5.5v5.66a.5.5,0,0,1-.28.45L31.09,28A.5.5,0,0,1,30.87,28ZM28.54,25.8,30.87,27,33.2,25.8V21H28.54Zm5.16.31h0Z"/></g></g></svg>