<svg xmlns="http://www.w3.org/2000/svg" viewBox="0 0 49.79 49.79" width="42px" height="42px"><defs><style>.cls-1{fill:none;}.cls-2{fill:#fff;}</style></defs><title>tshirt</title><g id="Calque_2" data-name="Calque 2"><g id="Calque_1-2" data-name="Calque 1"><rect class="cls-1" width="49.79" height="49.79"/><path class="cls-2" d="M45.52,15.13l-8.45-3.62H31c0,2.94-2.79,5.33-6.22,5.33s-6.22-2.39-6.22-5.33h-5.1L5,15.13l3.78,7.46,3.72-1.86,3.73,18.82,8.13-3.7h1.77l9.15,3.7,3-19.14,3.47,2.18Z"/><path d="M16.26,40.62a1.08,1.08,0,0,1-1.06-.87L11.75,22.32,9.29,23.55a1.08,1.08,0,0,1-1.44-.48L4.07,15.61a1.08,1.08,0,0,1,.54-1.48l8.45-3.62a1.08,1.08,0,0,1,.42-.09h5.1a1.08,1.08,0,0,1,1.08,1.08c0,2.34,2.31,4.25,5.15,4.25S30,13.85,30,11.51A1.08,1.08,0,0,1,31,10.43h6a1.08,1.08,0,0,1,.42.09l8.45,3.62a1.08,1.08,0,0,1,.54,1.48L42.7,23.07a1.08,1.08,0,0,1-1.53.43l-2.09-1.31L36.38,39.71a1.08,1.08,0,0,1-1.47.83l-9-3.62H24.62l-7.92,3.6A1.07,1.07,0,0,1,16.26,40.62Zm8.13-5.85h1.77a1.08,1.08,0,0,1,.4.08L34.46,38l2.75-17.8a1.08,1.08,0,0,1,1.64-.75L41.32,21,44,15.67l-7.19-3.08H32c-.58,3-3.59,5.33-7.2,5.33s-6.61-2.31-7.2-5.33H13.7L6.51,15.67l2.78,5.48L12,19.77a1.08,1.08,0,0,1,1.54.75L17.05,38l6.89-3.13A1.08,1.08,0,0,1,24.39,34.78Z"/><path class="cls-2" d="M24.26,22.74a3.9,3.9,0,0,1-4.11,3.65A3.9,3.9,0,0,1,16,22.74"/><path d="M20.14,26.89a4.41,4.41,0,0,1-4.62-4.15h1a3.41,3.41,0,0,0,3.62,3.15,3.41,3.41,0,0,0,3.61-3.15h1A4.4,4.4,0,0,1,20.14,26.89Z"/><path class="cls-2" d="M34.52,22.74a3.9,3.9,0,0,1-4.12,3.65,3.9,3.9,0,0,1-4.12-3.65"/><path d="M30.41,26.89a4.4,4.4,0,0,1-4.62-4.15h1a3.41,3.41,0,0,0,3.62,3.15A3.41,3.41,0,0,0,34,22.74h1A4.4,4.4,0,0,1,30.41,26.89Z"/><polygon class="cls-2" points="21.71 37.07 19.34 42.01 25.89 38.66 21.71 37.07"/><path d="M19.34,42.51a.5.5,0,0,1-.45-.72l2.37-4.93a.5.5,0,0,1,.63-.25l4.18,1.59a.5.5,0,0,1,.05.91l-6.55,3.35A.5.5,0,0,1,19.34,42.51ZM22,37.7l-1.53,3.19,4.23-2.16Z"/><polygon class="cls-2" points="29.2 37.07 30.63 43.59 25.02 38.66 29.2 37.07"/><path d="M30.63,44.09A.5.5,0,0,1,30.3,44L24.69,39a.5.5,0,0,1,.15-.84L29,36.6a.5.5,0,0,1,.67.36l1.43,6.51a.5.5,0,0,1-.49.61ZM26,38.83l3.84,3.37-1-4.46Z"/><circle class="cls-2" cx="25.28" cy="35.85" r="2.87"/><path d="M25.28,39.8a3.95,3.95,0,1,1,3.95-3.95A4,4,0,0,1,25.28,39.8Zm0-5.75a1.8,1.8,0,1,0,1.8,1.8A1.8,1.8,0,0,0,25.28,34.06Z"/></g></g></svg>