<svg xmlns="http://www.w3.org/2000/svg" viewBox="0 0 49.83 49.79" width="42px" height="42px"><defs><style>.cls-1{fill:none;}.cls-2,.cls-4,.cls-5{fill:#fff;}.cls-3{fill:#070303;}.cls-4,.cls-5{stroke:#000;stroke-linejoin:round;}.cls-4{stroke-width:2px;}</style></defs><title>appareil</title><g id="Calque_2" data-name="Calque 2"><g id="Calque_1-2" data-name="Calque 1"><rect class="cls-1" width="49.79" height="49.79"/><polygon class="cls-2" points="32.1 42.49 6.6 36.69 6.6 19.92 32.1 25.73 32.1 42.49"/><path d="M32.1,43.49l-.22,0-25.5-5.8a1,1,0,0,1-.78-1V19.92a1,1,0,0,1,1.22-1l25.5,5.8a1,1,0,0,1,.78,1V42.49a1,1,0,0,1-1,1ZM7.6,35.89l23.5,5.35V26.52L7.6,21.18Z"/><polygon class="cls-2" points="32.4 25.73 6.6 19.92 12.4 14.76 38.2 20.57 32.4 25.73"/><path d="M32.39,26.73l-.22,0L6.38,20.9a1,1,0,0,1-.45-1.72L11.74,14a1,1,0,0,1,.88-.23l25.79,5.8a1,1,0,0,1,.44,1.72l-5.8,5.16A1,1,0,0,1,32.39,26.73ZM8.72,19.37l23.39,5.26,4-3.52L12.69,15.85Z"/><polygon class="cls-2" points="32.1 42.49 32.1 25.73 38.17 20.57 38.17 37.33 32.1 42.49"/><path d="M32.1,43.49a1,1,0,0,1-1-1V25.73a1,1,0,0,1,.35-.76l6.07-5.16a1,1,0,0,1,1.65.76V37.33a1,1,0,0,1-.35.76l-6.07,5.16A1,1,0,0,1,32.1,43.49Zm1-17.3V40.33l4.07-3.46V22.73Z"/><polygon class="cls-2" points="26.93 22.68 23.52 21.86 23.52 15.12 26.93 15.94 26.93 22.68"/><path d="M26.93,23.68l-.24,0-3.41-.83a1,1,0,0,1-.76-1V15.12a1,1,0,0,1,1.23-1l3.41.82a1,1,0,0,1,.77,1v6.74a1,1,0,0,1-1,1Zm-2.41-2.61,1.41.34V16.73l-1.41-.34Z"/><polygon class="cls-2" points="26.93 22.73 26.93 15.99 29.37 13.92 29.37 20.65 26.93 22.73"/><path d="M26.93,23.73a1,1,0,0,1-1-1V16a1,1,0,0,1,.35-.76l2.44-2.07a1,1,0,0,1,1.65.76v6.74a1,1,0,0,1-.35.76l-2.44,2.07A1,1,0,0,1,26.93,23.73Zm1-7.27v4.11l.44-.37V16.08Z"/><path class="cls-2" d="M23.42,29.78A6.17,6.17,0,0,0,16,25.19a5.68,5.68,0,0,0-2.11,1.07h0L10,29.39l7.8,9.8,3.4-2.71A6.33,6.33,0,0,0,23.42,29.78Z"/><path d="M17.82,40.19h-.11a1,1,0,0,1-.67-.37L9.24,30a1,1,0,0,1,.15-1.4l3.87-3.13.1-.07a6.65,6.65,0,0,1,2.38-1.18,7.18,7.18,0,0,1,8.64,5.3h0a7.29,7.29,0,0,1-2.56,7.74L18.44,40A1,1,0,0,1,17.82,40.19Zm-6.4-10.65L18,37.78l2.62-2.09A5.37,5.37,0,0,0,22.45,30h0a5.18,5.18,0,0,0-6.19-3.88,4.66,4.66,0,0,0-1.74.88l-.09.07Z"/><ellipse class="cls-2" cx="14.14" cy="34.1" rx="5.99" ry="6.33" transform="translate(-8.26 4.76) rotate(-14.84)"/><path d="M14.31,41.41a7.29,7.29,0,0,1-6.93-5.52A7.48,7.48,0,0,1,8,30.38,6.78,6.78,0,0,1,12.27,27a7.18,7.18,0,0,1,8.64,5.3h0a7.48,7.48,0,0,1-.64,5.51A6.78,6.78,0,0,1,16,41.19,6.67,6.67,0,0,1,14.31,41.41ZM14,28.79a4.68,4.68,0,0,0-1.2.16,4.8,4.8,0,0,0-3,2.39,5.48,5.48,0,0,0-.46,4,5.18,5.18,0,0,0,6.19,3.88,4.8,4.8,0,0,0,3-2.39,5.49,5.49,0,0,0,.46-4A5.29,5.29,0,0,0,14,28.79Z"/><ellipse class="cls-3" cx="14.14" cy="34.1" rx="4.25" ry="4.49" transform="translate(-8.26 4.76) rotate(-14.84)"/><ellipse class="cls-2" cx="15.19" cy="32.64" rx="1.52" ry="2.53" transform="matrix(0.67, -0.75, 0.75, 0.67, -19.26, 22.19)"/><ellipse class="cls-2" cx="12.75" cy="35.49" rx="0.92" ry="0.91" transform="translate(-22.21 21.34) rotate(-48.2)"/><path class="cls-4" d="M20.21,25.74"/><path class="cls-4" d="M17.06,28.55"/><path class="cls-5" d="M22.3,27.14"/><path class="cls-5" d="M19.15,29.94"/><path class="cls-2" d="M16.06,14l-3.64-.11v4.46c0,.61.83,1.11,1.82,1.11s1.82-.5,1.82-1.11V14Z"/><path d="M14.24,20.49c-1.58,0-2.82-.93-2.82-2.11V13.92a1,1,0,0,1,1-1L16.1,13a1,1,0,0,1,1,1v4.25C17.06,19.56,15.82,20.49,14.24,20.49Zm-.82-2.22a1.65,1.65,0,0,0,1.64,0V15l-1.64-.05Z"/><ellipse class="cls-2" cx="14.24" cy="14.1" rx="1.82" ry="1.13"/><path d="M14.24,16.23c-1.58,0-2.82-.94-2.82-2.13S12.66,12,14.24,12s2.82.94,2.82,2.13S15.82,16.23,14.24,16.23Zm-.67-2.13a2.26,2.26,0,0,0,1.34,0,1.75,1.75,0,0,0-1.34,0Z"/><polygon class="cls-2" points="30.83 19.83 20.58 17.5 20.58 10.76 30.83 13.1 30.83 19.83"/><path d="M30.83,20.83l-.22,0L20.36,18.48a1,1,0,0,1-.78-1V10.76a1,1,0,0,1,1.22-1l10.25,2.33a1,1,0,0,1,.78,1v6.74a1,1,0,0,1-1,1ZM21.58,16.7l8.25,1.88V13.89L21.58,12Z"/><polygon class="cls-2" points="30.95 13.1 20.58 10.76 22.92 8.69 33.28 11.02 30.95 13.1"/><path d="M31,14.1l-.22,0L20.36,11.74A1,1,0,0,1,19.92,10l2.33-2.07a1,1,0,0,1,.88-.23L33.5,10a1,1,0,0,1,.44,1.72l-2.33,2.07A1,1,0,0,1,31,14.1Zm-8.25-3.88,8,1.79.49-.44-8-1.79Z"/><polygon class="cls-2" points="30.83 19.83 30.83 13.1 33.27 11.02 33.27 17.76 30.83 19.83"/><path d="M30.83,20.83a1,1,0,0,1-1-1V13.1a1,1,0,0,1,.35-.76l2.44-2.07a1,1,0,0,1,1.65.76v6.74a1,1,0,0,1-.35.76L31.48,20.6A1,1,0,0,1,30.83,20.83Zm1-7.27v4.11l.44-.37V13.18Z"/><ellipse class="cls-3" cx="28.65" cy="28.67" rx="1.65" ry="1.75" transform="translate(-6.38 8.29) rotate(-14.83)"/><ellipse class="cls-3" cx="28.65" cy="32.24" rx="0.87" ry="0.92" transform="translate(-7.29 8.4) rotate(-14.81)"/><path class="cls-2" d="M35.44,32.14s3.44,7.33,9.06,8,5.92,3.74,0,3.29S35.44,32.14,35.44,32.14Z"/><path d="M45.65,44.45c-.37,0-.78,0-1.23,0-6.54-.5-9.81-11.52-9.94-12a1,1,0,0,1,1.87-.7c0,.07,3.28,6.83,8.27,7.41,3.36.39,5.36,1.63,5.2,3.24C49.76,43,49.2,44.45,45.65,44.45Zm-5.54-5.06c1.25,1.64,2.77,2.88,4.47,3a6.81,6.81,0,0,0,3.11-.26,6.65,6.65,0,0,0-3.31-1A9.29,9.29,0,0,1,40.11,39.39Z"/></g></g></svg>