<svg xmlns="http://www.w3.org/2000/svg" viewBox="0 0 49.79 49.79" width="42px" height="42px"><defs><style>.cls-1{fill:none;}.cls-2{fill:#070303;}.cls-3{fill:#fff;}</style></defs><title>avocat</title><g id="Calque_2" data-name="Calque 2"><g id="Calque_1-2" data-name="Calque 1"><rect class="cls-1" width="49.79" height="49.79"/><path class="cls-2" d="M43.59,30.68s-6.53,17.78-23.75,8.75S7.15,18.11,7.15,18.11Z"/><path d="M29,43a20.89,20.89,0,0,1-9.65-2.68C10.09,35.45,7,29.62,6,25.59a14.29,14.29,0,0,1,.19-7.84l.34-.91L44.88,30.07l-.35,1c-.12.33-3.09,8.22-10.33,11A14.27,14.27,0,0,1,29,43ZM7.82,19.4C7.19,22.31,6.56,31.33,20.3,38.54c4.89,2.56,9.31,3.12,13.16,1.64,5-1.93,7.8-6.84,8.78-8.91Z"/><path class="cls-3" d="M24.33,14.32v0a29.56,29.56,0,0,1-9,.68,10,10,0,0,0-2.24-.25c-.06,0,0,0,0,0h0c-2.6,0-5.21,1.28-5.94,3.4s.29,4,2.38,6.25h0l.08.09a10.83,10.83,0,0,0,2.1,1.34,29.68,29.68,0,0,1,6.63,6h0A16.9,16.9,0,0,0,26,37c7.62,2.61,15.5-.23,17.59-6.35s-2.38-13.19-10-15.8A16.88,16.88,0,0,0,24.33,14.32Z"/><path d="M31.68,39a18.57,18.57,0,0,1-6-1,17.82,17.82,0,0,1-8.06-5.49l-.08-.09a28.44,28.44,0,0,0-6.34-5.75A11.88,11.88,0,0,1,9,25.22H9A1.65,1.65,0,0,1,8.76,25l0,0c-1.9-2.07-3.5-4.37-2.54-7.19.82-2.4,3.57-4.05,6.72-4.08h.17a1,1,0,0,1,.27,0A11.23,11.23,0,0,1,15.5,14a28.4,28.4,0,0,0,8.58-.65l.2,0a17.83,17.83,0,0,1,9.63.63,17.45,17.45,0,0,1,9.17,7A11.59,11.59,0,0,1,44.54,31C42.83,36,37.62,39,31.68,39ZM19.06,31.11l0,.05a15.81,15.81,0,0,0,7.21,4.92c7.09,2.43,14.41-.15,16.32-5.73A9.64,9.64,0,0,0,41.39,22a15.46,15.46,0,0,0-8.12-6.17,15.81,15.81,0,0,0-8.71-.53l-.15,0A30.74,30.74,0,0,1,15.3,16l-.14,0a9.2,9.2,0,0,0-2-.23H13l-.08,0c-2.23,0-4.27,1.18-4.79,2.72s.09,3,2.17,5.24l0,0a9.79,9.79,0,0,0,1.83,1.16l.13.08A30.65,30.65,0,0,1,19.06,31.11Zm-9-7.57.19.12.05,0h0A1.17,1.17,0,0,0,10,23.54Zm0,0h0Zm0,0Z"/><path class="cls-2" d="M32.46,20.23c3.25,1.37,4.95,4.71,3.79,7.47s-4.74,3.88-8,2.51-7-5.59-5.88-8.35S29.21,18.86,32.46,20.23Z"/><path d="M31.08,31.79a8.28,8.28,0,0,1-3.21-.66,13.27,13.27,0,0,1-5-4c-1.59-2.06-2.09-4.09-1.42-5.69s2.47-2.66,5.06-3a13.26,13.26,0,0,1,6.33.8h0c3.75,1.58,5.69,5.52,4.32,8.78A6.42,6.42,0,0,1,31.08,31.79Zm-3-11.37a11,11,0,0,0-1.3.08c-1.81.22-3.07.86-3.45,1.76s0,2.25,1.16,3.7a11.15,11.15,0,0,0,4.19,3.34c2.74,1.15,5.73.26,6.68-2s-.52-5-3.25-6.16h0A10.73,10.73,0,0,0,28.06,20.41Z"/><path class="cls-2" d="M22.57,21.5s4.84-5.2,9.76-2.57c7,3.75,3.6,9.42,3.6,9.42Z"/><path d="M35.93,29.35a1,1,0,0,1-.46-.11L22.11,22.39a1,1,0,0,1-.28-1.57c.22-.24,5.42-5.73,11-2.78,2.55,1.36,4.14,3.13,4.73,5.26a7.65,7.65,0,0,1-.74,5.57A1,1,0,0,1,35.93,29.35ZM24.32,21.28,35.44,27a5.4,5.4,0,0,0,.15-3.17,6.89,6.89,0,0,0-3.73-4C28.89,18.23,25.85,20.06,24.32,21.28Z"/><path class="cls-3" d="M33.7,28.26a1,1,0,0,1-.87-1.49,3.64,3.64,0,0,0,.46-3c-.64-1.89-3-2.92-3-2.93A1,1,0,0,1,31,19c.13.06,3.19,1.38,4.13,4.12a5.59,5.59,0,0,1-.6,4.67A1,1,0,0,1,33.7,28.26Z"/><circle class="cls-3" cx="27.72" cy="19.18" r="1.01"/></g></g></svg>