<svg xmlns="http://www.w3.org/2000/svg" viewBox="0 0 49.79 49.79" width="42px" height="42px"><defs><style>.cls-1{fill:none;}.cls-2{fill:#fff;}.cls-3{fill:#070303;}</style></defs><title>ballon</title><g id="Calque_2" data-name="Calque 2"><g id="Calque_1-2" data-name="Calque 1"><rect class="cls-1" width="49.79" height="49.79"/><path class="cls-2" d="M30.71,9.11a5,5,0,0,0-9.57,2,5,5,0,0,0-8,5.65c0,.08.06.16.1.23.94,2.45,3.81,7.49,14.06,8.23,6.41-8,4.67-13.51,3.52-15.87C30.79,9.3,30.74,9.19,30.71,9.11Z"/><path d="M27.31,26.24h-.07c-9.78-.7-13.51-5.21-14.92-8.86h0l-.06-.14a6,6,0,0,1,8.12-7.83,6,6,0,0,1,11.24-.7l-.92.4.94-.34.11.25c1.68,3.42,2.45,9.2-3.67,16.85A1,1,0,0,1,27.31,26.24ZM17.73,10.79a4,4,0,0,0-3.66,5.59l.06.14.05.13c1.67,4.35,6,7,12.67,7.54C30.91,18.95,32,14,29.93,9.81l-.1-.22,0-.08a4,4,0,0,0-7.65,1.62,1,1,0,0,1-1.68.74A4,4,0,0,0,17.73,10.79Z"/><path class="cls-3" d="M28,17.42c.4-.08.8-.19,1.19-.3.92-4-.36-8-2.36-8.29-2.74-.4-3.37,2.42-3.37,2.42C28.36,8.56,28.5,13.52,28,17.42Z"/><path class="cls-3" d="M27.87,18.14c-.29,1.84-.69,3.29-.69,3.29A11.05,11.05,0,0,0,29,17.89C28.6,18,28.24,18.08,27.87,18.14Z"/><path class="cls-3" d="M19.9,13.21s-2-2.2-4.89.33c0,0,2.59-.53,3.61.31Z"/><path d="M29.47,48.26a1,1,0,0,1-.35-1.94c.16-.06,4.1-1.64,3-6.73-.36-1.63-1.21-1.77-3.1-1.94-2.14-.19-5.07-.44-5.85-5.07-.81-4.81,3.36-8,3.54-8.15A1,1,0,0,1,27.91,26h0s-3.38,2.63-2.77,6.23c.52,3.1,2,3.23,4,3.41,1.77.15,4.19.37,4.88,3.5,1.19,5.46-2.26,8.29-4.25,9A1,1,0,0,1,29.47,48.26Z"/></g></g></svg>