<svg xmlns="http://www.w3.org/2000/svg" viewBox="0 0 49.79 49.79" width="42px" height="42px"><defs><style>.cls-1{fill:none;}.cls-2{fill:#fff;}</style></defs><title>ballon_1</title><g id="Calque_2" data-name="Calque 2"><g id="Calque_1-2" data-name="Calque 1"><rect class="cls-1" width="49.79" height="49.79"/><circle class="cls-2" cx="23.99" cy="26.84" r="13.87"/><path d="M24,41.79a15,15,0,1,1,15-15A15,15,0,0,1,24,41.79ZM24,14a12.8,12.8,0,1,0,12.8,12.8A12.81,12.81,0,0,0,24,14Z"/><circle class="cls-2" cx="23.99" cy="26.84" r="13.87"/><path d="M24,41.79a15,15,0,1,1,15-15A15,15,0,0,1,24,41.79ZM24,14a12.8,12.8,0,1,0,12.8,12.8A12.81,12.81,0,0,0,24,14Z"/><path d="M19.26,40.28a1.08,1.08,0,0,1-1-.73,15.91,15.91,0,0,1,.41-10.81,14.25,14.25,0,0,1,18.7-7.45,1.08,1.08,0,1,1-.85,2,12.1,12.1,0,0,0-15.87,6.32,13.64,13.64,0,0,0-.34,9.27,1.08,1.08,0,0,1-1,1.42Z"/><path d="M31.87,39.16a1.08,1.08,0,0,1-1-1.52,13.63,13.63,0,0,0-6.87-18,15.38,15.38,0,0,0-10.44-.54,1.08,1.08,0,1,1-.66-2,17.64,17.64,0,0,1,12,.63,15.79,15.79,0,0,1,8,20.86A1.08,1.08,0,0,1,31.87,39.16Z"/><path d="M14.12,37.65a1.08,1.08,0,0,1-1-.66c-1.43-3.41-1.22-8.43.54-12.51C17,16.81,26.27,12.83,33.57,16a1.08,1.08,0,1,1-.85,2c-6.25-2.69-14.23.76-17.08,7.38-1.51,3.52-1.73,8-.53,10.82a1.08,1.08,0,0,1-1,1.49Z"/></g></g></svg>