<svg xmlns="http://www.w3.org/2000/svg" viewBox="0 0 49.79 49.79" width="42px" height="42px"><defs><style>.cls-1{fill:none;}.cls-2{fill:#fff;}</style></defs><title>biberon</title><g id="Calque_2" data-name="Calque 2"><g id="Calque_1-2" data-name="Calque 1"><rect class="cls-1" width="49.79" height="49.79"/><path class="cls-2" d="M27.15,9.29a3.86,3.86,0,1,0-6.67,2.64V16h5.79V11.74A3.84,3.84,0,0,0,27.15,9.29Z"/><path d="M26.27,17.09H20.48A1.08,1.08,0,0,1,19.4,16V12.32a4.93,4.93,0,1,1,7.94-.22V16A1.08,1.08,0,0,1,26.27,17.09Zm-4.71-2.15h3.63V11.74a1.08,1.08,0,0,1,.25-.69,2.75,2.75,0,0,0,.64-1.77,2.78,2.78,0,1,0-4.81,1.9,1.08,1.08,0,0,1,.29.74Z"/><rect class="cls-2" x="16.65" y="15.68" width="13.84" height="8.31"/><path d="M30.49,25.07H16.65A1.08,1.08,0,0,1,15.57,24V15.68a1.08,1.08,0,0,1,1.08-1.08H30.49a1.08,1.08,0,0,1,1.08,1.08V24A1.08,1.08,0,0,1,30.49,25.07ZM17.72,22.91H29.41V16.76H17.72Z"/><rect class="cls-2" x="13.89" y="23.95" width="19.35" height="20.01" rx="2.94" ry="2.94"/><path d="M30.29,45H16.84a4,4,0,0,1-4-4V26.89a4,4,0,0,1,4-4H30.29a4,4,0,0,1,4,4V41A4,4,0,0,1,30.29,45ZM16.84,25A1.87,1.87,0,0,0,15,26.89V41a1.87,1.87,0,0,0,1.87,1.87H30.29A1.87,1.87,0,0,0,32.16,41V26.89A1.87,1.87,0,0,0,30.29,25Z"/><path d="M19.34,31H15a1.08,1.08,0,1,1,0-2.15h4.37a1.08,1.08,0,0,1,0,2.15Z"/><path d="M19.34,34.74H15a1.08,1.08,0,1,1,0-2.15h4.37a1.08,1.08,0,0,1,0,2.15Z"/><path d="M19.34,38.65H15a1.08,1.08,0,1,1,0-2.15h4.37a1.08,1.08,0,0,1,0,2.15Z"/></g></g></svg>