<svg xmlns="http://www.w3.org/2000/svg" viewBox="0 0 49.79 49.79" width="42px" height="42px"><defs><style>.cls-1{fill:none;}.cls-2{fill:#fff;}</style></defs><title>branche</title><g id="Calque_2" data-name="Calque 2"><g id="Calque_1-2" data-name="Calque 1"><rect class="cls-1" width="49.79" height="49.79"/><path d="M15.07,45.91H14.9A1.08,1.08,0,0,1,14,44.66,51.55,51.55,0,0,1,32.15,14.93a1.08,1.08,0,0,1,1.34,1.69A50.31,50.31,0,0,0,16.13,45,1.08,1.08,0,0,1,15.07,45.91Z"/><path class="cls-2" d="M10.44,36.29c3.42.56,5.62,4.51,5.62,4.51s-3.34,3.05-6.76,2.5-5.62-4.51-5.62-4.51S7,35.73,10.44,36.29Z"/><path d="M10.15,44.45a6.32,6.32,0,0,1-1-.08c-3.89-.63-6.29-4.87-6.39-5.05A1.08,1.08,0,0,1,3,38c.15-.14,3.77-3.4,7.66-2.76S16.9,40.1,17,40.28a1.08,1.08,0,0,1-.21,1.32C16.65,41.73,13.62,44.45,10.15,44.45ZM5.12,39c.76,1.06,2.34,2.89,4.35,3.22s4.09-.91,5.15-1.67c-.76-1.06-2.34-2.89-4.35-3.22h0C8.27,37,6.18,38.26,5.12,39Z"/><path class="cls-2" d="M16,25.52c3,1.67,3.77,6.14,3.77,6.14s-4.17,1.75-7.21.08S8.81,25.6,8.81,25.6,13,23.85,16,25.52Z"/><path d="M15.71,33.54a7.49,7.49,0,0,1-3.64-.86c-3.45-1.9-4.28-6.7-4.31-6.91a1.08,1.08,0,0,1,.65-1.17c.19-.08,4.69-1.93,8.14,0h0c3.45,1.9,4.28,6.7,4.31,6.91a1.08,1.08,0,0,1-.65,1.17A12.86,12.86,0,0,1,15.71,33.54Zm-5.62-7.23c.36,1.25,1.23,3.51,3,4.49s4.15.52,5.41.16c-.36-1.25-1.23-3.51-3-4.49h0C13.73,25.48,11.35,25.95,10.09,26.31Z"/><path class="cls-2" d="M23.52,16.32c2.31,2.58,1.52,7,1.52,7s-4.52.27-6.82-2.31-1.52-7-1.52-7S21.21,13.74,23.52,16.32Z"/><path d="M24.66,24.45c-1.29,0-5.06-.22-7.25-2.68-2.62-2.94-1.82-7.74-1.78-7.95a1.08,1.08,0,0,1,1-.89c.21,0,5.07-.27,7.69,2.67h0c2.62,2.94,1.82,7.74,1.78,7.95a1.08,1.08,0,0,1-1,.89ZM25,23.37h0ZM17.66,15.1c-.08,1.3,0,3.72,1.36,5.24s3.75,1.86,5.05,1.94c.08-1.3,0-3.72-1.36-5.24h0C21.37,15.53,19,15.17,17.66,15.1Z"/><path class="cls-2" d="M33,10.45c.65,3.4-2.31,6.83-2.31,6.83s-4-2.09-4.67-5.49S28.33,5,28.33,5,32.34,7.05,33,10.45Z"/><path d="M30.68,18.36a1.07,1.07,0,0,1-.5-.12C30,18.14,25.7,15.86,25,12s2.42-7.58,2.55-7.73A1.07,1.07,0,0,1,28.82,4c.18.1,4.49,2.37,5.23,6.24h0c.74,3.87-2.42,7.58-2.55,7.73A1.07,1.07,0,0,1,30.68,18.36ZM28.6,6.4c-.73,1.08-1.91,3.19-1.52,5.19s2.26,3.52,3.34,4.26c.73-1.08,1.91-3.19,1.52-5.19S29.68,7.13,28.6,6.4Z"/><path class="cls-2" d="M23.19,35.2c3.46,0,6.31,3.48,6.31,3.48s-2.77,3.58-6.23,3.62S17,38.82,17,38.82,19.73,35.23,23.19,35.2Z"/><path d="M23.22,43.37c-3.9,0-7-3.72-7.09-3.88a1.08,1.08,0,0,1,0-1.33c.13-.16,3.13-4,7.07-4h.07c3.9,0,7,3.72,7.09,3.88a1.08,1.08,0,0,1,0,1.33c-.13.16-3.13,4-7.07,4ZM18.42,38.8c.93.91,2.76,2.46,4.84,2.42s3.87-1.6,4.78-2.53c-.92-.91-2.77-2.42-4.79-2.42h0C21.18,36.29,19.34,37.87,18.42,38.8Zm4.77-3.61h0Z"/><path class="cls-2" d="M29.22,27c3.25,1.2,4.66,5.5,4.66,5.5S30,34.83,26.77,33.64s-4.66-5.5-4.66-5.5S26,25.77,29.22,27Z"/><path d="M28.77,35a6.84,6.84,0,0,1-2.38-.4c-3.7-1.36-5.24-6-5.31-6.18a1.08,1.08,0,0,1,.46-1.25c.18-.11,4.35-2.62,8-1.26h0c3.7,1.36,5.24,6,5.31,6.18a1.08,1.08,0,0,1-.46,1.25A12.2,12.2,0,0,1,28.77,35Zm-5.29-6.41c.55,1.18,1.75,3.28,3.66,4s4.19-.11,5.37-.66c-.54-1.18-1.75-3.28-3.66-4h0C26.95,27.28,24.67,28.1,23.48,28.64Z"/><path class="cls-2" d="M36,20.72c2.74,2.12,2.79,6.65,2.79,6.65s-4.39,1.09-7.13-1-2.79-6.64-2.79-6.64S33.31,18.6,36,20.72Z"/><path d="M36.24,28.72A8.48,8.48,0,0,1,31,27.19c-3.12-2.41-3.21-7.28-3.21-7.48a1.08,1.08,0,0,1,.82-1.06c.2-.05,4.94-1.19,8.05,1.22h0c3.12,2.41,3.21,7.28,3.21,7.48a1.08,1.08,0,0,1-.82,1.06A12.89,12.89,0,0,1,36.24,28.72Zm-6.17-8.13c.17,1.29.68,3.65,2.3,4.9s4,1.15,5.32,1c-.16-1.29-.68-3.66-2.3-4.9h0C33.79,20.33,31.37,20.42,30.07,20.59Z"/><path class="cls-2" d="M38.21,11.18c3.42-.52,6.73,2.57,6.73,2.57s-2.24,3.93-5.67,4.45-6.73-2.57-6.73-2.57S34.79,11.7,38.21,11.18Z"/><path d="M38.49,19.34c-3.51,0-6.54-2.79-6.68-2.92a1.08,1.08,0,0,1-.2-1.32c.1-.18,2.55-4.39,6.44-5h0c3.9-.59,7.48,2.71,7.63,2.85a1.08,1.08,0,0,1,.2,1.32c-.1.18-2.55,4.39-6.44,5A6.34,6.34,0,0,1,38.49,19.34ZM34,15.41c1,.77,3.11,2,5.13,1.73S42.72,15,43.5,14c-1.05-.77-3.12-2-5.13-1.72h0C36.35,12.55,34.75,14.36,34,15.41Zm4.23-4.23h0Z"/></g></g></svg>