<svg xmlns="http://www.w3.org/2000/svg" viewBox="0 0 49.79 49.79" width="42px" height="42px"><defs><style>.cls-1{fill:none;}.cls-2{fill:#fff;}.cls-3{fill:#070303;}</style></defs><title>camera</title><g id="Calque_2" data-name="Calque 2"><g id="Calque_1-2" data-name="Calque 1"><rect class="cls-1" width="49.79" height="49.79"/><polygon class="cls-2" points="16.51 46.21 3.42 42.55 9.49 36.89 20.73 39.9 16.51 46.21"/><path d="M16.51,47.21a1,1,0,0,1-.27,0L3.15,43.52a1,1,0,0,1-.41-1.69l6.08-5.66a1,1,0,0,1,.94-.23l11.23,3a1,1,0,0,1,.57,1.52l-4.22,6.31A1,1,0,0,1,16.51,47.21ZM5.4,42.07l10.68,3,3-4.54L9.77,38Z"/><polygon class="cls-2" points="3.42 42.62 3.68 28.9 9.3 27.68 9.3 37.06 3.42 42.62"/><path d="M3.42,43.62a1,1,0,0,1-1-1l.26-13.72a1,1,0,0,1,.79-1l5.62-1.22a1,1,0,0,1,1.21,1v9.38a1,1,0,0,1-.31.73L4.1,43.35A1,1,0,0,1,3.42,43.62ZM4.66,29.71l-.2,10.55L8.3,36.63V28.92Z"/><polygon class="cls-2" points="28.66 39.82 15.52 36.46 15.52 20.22 28.66 23.57 28.66 39.82"/><path d="M28.67,40.82a1,1,0,0,1-.25,0L15.27,37.43a1,1,0,0,1-.75-1V20.22a1,1,0,0,1,1.25-1L28.91,22.6a1,1,0,0,1,.75,1V39.82a1,1,0,0,1-1,1ZM16.52,35.68l11.15,2.84V24.35L16.52,21.5Z"/><polygon class="cls-2" points="28.83 24.02 15.44 20.44 30.8 6.75 44.19 10.32 28.83 24.02"/><path d="M28.83,25a1,1,0,0,1-.26,0L15.18,21.41a1,1,0,0,1-.41-1.71L30.13,6a1,1,0,0,1,.92-.22L44.44,9.35a1,1,0,0,1,.41,1.71L29.49,24.76A1,1,0,0,1,28.83,25ZM17.49,20l11.08,3,13.57-12.1-11.08-3Z"/><polygon class="cls-2" points="28.77 39.87 28.77 23.62 44.19 10.47 44.19 26.71 28.77 39.87"/><path d="M28.77,40.87a1,1,0,0,1-1-1V23.62a1,1,0,0,1,.35-.76L43.54,9.71a1,1,0,0,1,1.65.76V26.71a1,1,0,0,1-.35.76L29.42,40.63A1,1,0,0,1,28.77,40.87Zm1-16.78V37.7L43.19,26.25V12.63Z"/><path class="cls-2" d="M25.59,28.46A6,6,0,0,0,18.41,24a5.53,5.53,0,0,0-2,1h0L9.89,30.79l7.56,9.5,6-5.35A6.13,6.13,0,0,0,25.59,28.46Z"/><path d="M17.45,41.29h-.09a1,1,0,0,1-.7-.37l-7.56-9.5A1,1,0,0,1,9.23,30l6.47-5.75.14-.1A6.51,6.51,0,0,1,18.15,23a7,7,0,0,1,8.41,5.16h0a7.09,7.09,0,0,1-2.49,7.54l-6,5.3A1,1,0,0,1,17.45,41.29ZM11.26,30.91l6.31,7.93,5.23-4.65a5.2,5.2,0,0,0,1.83-5.48h0a5,5,0,0,0-6-3.74,4.52,4.52,0,0,0-1.68.85l0,0Z"/><ellipse class="cls-2" cx="13.89" cy="35.36" rx="5.81" ry="6.14" transform="translate(-8.59 4.73) rotate(-14.83)"/><path d="M14.05,42.48A7.1,7.1,0,0,1,7.31,37.1a7.28,7.28,0,0,1,.62-5.37,6.59,6.59,0,0,1,9.34-2.47,7.28,7.28,0,0,1,3.2,4.35h0a7,7,0,0,1-4.75,8.64A6.51,6.51,0,0,1,14.05,42.48Zm-.31-12.23a4.53,4.53,0,0,0-1.16.15,4.62,4.62,0,0,0-2.89,2.3,5.28,5.28,0,0,0-.44,3.9,5,5,0,0,0,6,3.74,5,5,0,0,0,3.33-6.2A5.28,5.28,0,0,0,16.22,31,4.7,4.7,0,0,0,13.74,30.24Z"/><ellipse class="cls-3" cx="13.89" cy="35.36" rx="4.12" ry="4.35" transform="matrix(0.97, -0.26, 0.26, 0.97, -8.59, 4.73)"/><ellipse class="cls-2" cx="14.9" cy="33.95" rx="1.47" ry="2.45" transform="translate(-20.33 22.43) rotate(-48.19)"/><ellipse class="cls-2" cx="12.54" cy="36.71" rx="0.89" ry="0.88" transform="translate(-23.19 21.61) rotate(-48.23)"/><line class="cls-2" x1="14.69" y1="29.3" x2="20.46" y2="23.87"/><rect x="13.61" y="26.09" width="7.93" height="1" transform="translate(-13.44 19.27) rotate(-43.26)"/><line class="cls-2" x1="16.71" y1="29.98" x2="22.49" y2="24.54"/><rect x="15.63" y="26.76" width="7.93" height="1" transform="translate(-13.36 20.84) rotate(-43.26)"/><line class="cls-2" x1="18.74" y1="31.33" x2="24.51" y2="25.89"/><rect x="17.66" y="28.11" width="7.93" height="1" transform="translate(-13.73 22.59) rotate(-43.26)"/><line class="cls-2" x1="19.41" y1="34.03" x2="25.43" y2="28.38"/><rect x="18.29" y="30.7" width="8.26" height="1" transform="translate(-15.28 23.79) rotate(-43.18)"/><line class="cls-2" x1="19.64" y1="36.52" x2="25.7" y2="30.84"/><rect x="18.51" y="33.18" width="8.31" height="1" transform="translate(-16.91 24.63) rotate(-43.18)"/><path class="cls-3" d="M35.25,22.74a5.66,5.66,0,0,1-1.18,4c-.88,1.15-1.78,1.26-2,.23a5.66,5.66,0,0,1,1.18-4C34.11,21.81,35,21.71,35.25,22.74Z"/><path class="cls-3" d="M34.44,28.56a3,3,0,0,1-.62,2.09c-.47.61-.94.67-1.07.12a3,3,0,0,1,.62-2.09C33.84,28.07,34.31,28,34.44,28.56Z"/><path class="cls-3" d="M37.6,26.16A3,3,0,0,1,37,28.25c-.47.61-.94.66-1.07.12a3,3,0,0,1,.62-2.09C37,25.67,37.48,25.61,37.6,26.16Z"/><path class="cls-3" d="M40.54,24.06a3,3,0,0,1-.62,2.09c-.47.61-.94.66-1.07.12a3,3,0,0,1,.62-2.09C39.94,23.57,40.42,23.51,40.54,24.06Z"/><polygon class="cls-2" points="16.9 45.62 18.02 32.06 20.85 30.64 20.85 39.78 16.9 45.62"/><path d="M16.9,46.62a1,1,0,0,1-1-1.08L17,32a1,1,0,0,1,.55-.81l2.83-1.41a1,1,0,0,1,1.45.89v9.14a1,1,0,0,1-.17.56l-3.95,5.84A1,1,0,0,1,16.9,46.62ZM19,32.7l-.76,9.2,1.64-2.42V32.26Z"/><polygon class="cls-2" points="18.02 32.06 4.03 28.77 9.59 27.89 20.55 30.65 18.02 32.06"/><path d="M18,33.06l-.23,0-14-3.28a1,1,0,0,1,.07-2l5.57-.88a1,1,0,0,1,.4,0l11,2.75A1,1,0,0,1,21,31.52l-2.53,1.41A1,1,0,0,1,18,33.06ZM9.23,29l8,1.88L9.55,28.91Z"/></g></g></svg>