<svg xmlns="http://www.w3.org/2000/svg" viewBox="0 0 49.79 49.79" width="42px" height="42px"><defs><style>.cls-1{fill:none;}.cls-2{fill:#fff;}</style></defs><title>coquillage</title><g id="Calque_2" data-name="Calque 2"><g id="Calque_1-2" data-name="Calque 1"><rect class="cls-1" width="49.79" height="49.79"/><path class="cls-2" d="M18.69,30.42a3.15,3.15,0,0,1,1-4.34,3.93,3.93,0,0,1,5.43,1.19,4.91,4.91,0,0,1-1.49,6.79,6.14,6.14,0,0,1-8.48-1.86,7.68,7.68,0,0,1,2.33-10.6,9.59,9.59,0,0,1,13.25,2.91A12,12,0,0,1,27,41.07,15,15,0,0,1,6.33,36.52,18.74,18.74,0,0,1,12,10.63a23.42,23.42,0,0,1,32.35,7.12s.59,9.12-11,11"/><path d="M19,44.43a16,16,0,0,1-13.5-7.37,19.74,19.74,0,0,1,6-27.26,24.42,24.42,0,0,1,33.73,7.42,1,1,0,0,1,.16.47c0,.1.51,10-11.83,12h0a13,13,0,0,1-5.94,12.2A15.9,15.9,0,0,1,19,44.43ZM24.6,7.94a22.27,22.27,0,0,0-12,3.54A17.74,17.74,0,0,0,7.17,36,14,14,0,0,0,26.5,40.23,11,11,0,0,0,29.84,25,8.59,8.59,0,0,0,18,22.44a6.68,6.68,0,0,0-2,9.22A5.15,5.15,0,0,0,23,33.22a3.91,3.91,0,0,0,1.19-5.4,2.93,2.93,0,0,0-4-.89,2.15,2.15,0,0,0-.65,3A1,1,0,0,1,17.85,31a4.15,4.15,0,0,1,1.26-5.73,4.94,4.94,0,0,1,6.81,1.5,5.91,5.91,0,0,1-1.8,8.17,7.15,7.15,0,0,1-9.86-2.17,8.67,8.67,0,0,1,2.64-12A10.59,10.59,0,0,1,31.52,24a13,13,0,0,1,1.65,3.78h.06c4.47-.72,7.54-2.62,9.11-5.66a9.29,9.29,0,0,0,1-4A22.27,22.27,0,0,0,29.46,8.47,22.62,22.62,0,0,0,24.6,7.94Z"/></g></g></svg>