<svg xmlns="http://www.w3.org/2000/svg" viewBox="0 0 49.79 49.79" width="42px" height="42px"><defs><style>.cls-1{fill:none;}.cls-2{fill:#fff;}</style></defs><title>dodo</title><g id="Calque_2" data-name="Calque 2"><g id="Calque_1-2" data-name="Calque 1"><rect class="cls-1" width="49.79" height="49.79"/><path class="cls-2" d="M35.79,13.48a5.36,5.36,0,0,0-1.42.21,5.31,5.31,0,0,0-8-1.41A5.35,5.35,0,0,0,16,13.84a5.38,5.38,0,1,0,0,10.05A5.35,5.35,0,0,0,26.15,26a5.3,5.3,0,0,0,7.22-2.41,5.31,5.31,0,0,0,2.42.6,5.38,5.38,0,0,0,0-10.75Z"/><path d="M21.35,30.05a6.35,6.35,0,0,1-6.19-4.9,6,6,0,0,1-1,.09,6.38,6.38,0,0,1,0-12.75,5.92,5.92,0,0,1,1,.09,6.35,6.35,0,0,1,11.66-1.76,6.21,6.21,0,0,1,2.95-.74,6.3,6.3,0,0,1,5,2.5,5.59,5.59,0,0,1,1-.09,6.38,6.38,0,0,1,0,12.75,6.13,6.13,0,0,1-2-.34,6.31,6.31,0,0,1-5.22,2.74,6.13,6.13,0,0,1-2-.34A6.31,6.31,0,0,1,21.35,30.05ZM16,22.89a1,1,0,0,1,1,1,4.35,4.35,0,0,0,8.26,1.76,1,1,0,0,1,1.35-.45,4.34,4.34,0,0,0,5.87-2,1,1,0,0,1,1.35-.45,4.31,4.31,0,0,0,2,.49,4.38,4.38,0,1,0-1.16-8.58,1,1,0,0,1-1.12-.45A4.31,4.31,0,0,0,27,13.07a1,1,0,0,1-1.57-.45A4.35,4.35,0,0,0,17,13.88a1,1,0,0,1-1.35.9,4.31,4.31,0,0,0-1.52-.29,4.38,4.38,0,0,0,0,8.75,4.32,4.32,0,0,0,1.52-.29A1,1,0,0,1,16,22.89Z"/><path d="M18.74,39.12a.5.5,0,0,1-.5-.5v-11a.5.5,0,0,1,1,0v11A.5.5,0,0,1,18.74,39.12Z"/><path d="M32.74,35.12a.5.5,0,0,1-.5-.5v-10a.5.5,0,0,1,1,0v10A.5.5,0,0,1,32.74,35.12Z"/><path class="cls-2" d="M19.17,35.57l.77,2.37a.52.52,0,0,0,.49.36h2.49a.52.52,0,0,1,.3.93l-2,1.47a.52.52,0,0,0-.19.58l.77,2.37a.52.52,0,0,1-.8.58l-2-1.47a.52.52,0,0,0-.61,0l-2,1.47a.52.52,0,0,1-.8-.58l.77-2.37a.52.52,0,0,0-.19-.58l-2-1.47a.52.52,0,0,1,.3-.93h2.49a.52.52,0,0,0,.49-.36l.77-2.37A.52.52,0,0,1,19.17,35.57Z"/><path d="M21.3,44.83a1,1,0,0,1-.59-.2l-2-1.47-2,1.47a1,1,0,0,1-1.57-1.14l.77-2.37-2-1.49a1,1,0,0,1,.6-1.84h2.49l.79-2.38a1,1,0,0,1,1-.7h0a1,1,0,0,1,1,.7l.77,2.37h2.51a1,1,0,0,1,.6,1.84l-2,1.46.77,2.39a1,1,0,0,1-1,1.34Zm-2.62-2.67a1,1,0,0,1,.6.2l2,1.47-.74-2.39a1,1,0,0,1,.37-1.14l2-1.47-2.5,0a1,1,0,0,1-1-.71l-.77-2.37h0l-.8,2.38a1,1,0,0,1-1,.7H14.43l2,1.5a1,1,0,0,1,.37,1.14L16,43.8l2-1.44A1,1,0,0,1,18.68,42.16Z"/><path class="cls-2" d="M33.61,29.41l.77,2.37a.52.52,0,0,0,.49.36h2.49a.52.52,0,0,1,.3.93l-2,1.47a.52.52,0,0,0-.19.58l.77,2.37a.52.52,0,0,1-.8.58l-2-1.47a.52.52,0,0,0-.61,0l-2,1.47a.52.52,0,0,1-.8-.58l.77-2.37a.52.52,0,0,0-.19-.58l-2-1.47a.52.52,0,0,1,.3-.93h2.49a.52.52,0,0,0,.49-.36l.77-2.37A.52.52,0,0,1,33.61,29.41Z"/><path d="M35.74,38.67a1,1,0,0,1-.59-.2l-2-1.47-2,1.47a1,1,0,0,1-1.57-1.14L30.29,35l-2-1.49a1,1,0,0,1,.6-1.84h2.49l.79-2.38a1,1,0,0,1,1-.7h0a1,1,0,0,1,1,.7l.77,2.37h2.51a1,1,0,0,1,.6,1.84l-2,1.46.77,2.39a1,1,0,0,1-.37,1.14A1,1,0,0,1,35.74,38.67ZM33.12,36a1,1,0,0,1,.6.19l2,1.47L35,35.27a1,1,0,0,1,.37-1.14l2-1.47-2.5,0a1,1,0,0,1-1-.71l-.77-2.37h0l-.8,2.38a1,1,0,0,1-1,.7H28.87l2,1.5a1,1,0,0,1,.37,1.14l-.77,2.37,2-1.45A1,1,0,0,1,33.12,36Z"/></g></g></svg>