<svg xmlns="http://www.w3.org/2000/svg" viewBox="0 0 49.79 49.79" width="42px" height="42px"><defs><style>.cls-1{fill:none;}.cls-2{fill:#fff;}</style></defs><title>epingle</title><g id="Calque_2" data-name="Calque 2"><g id="Calque_1-2" data-name="Calque 1"><rect class="cls-1" width="49.79" height="49.79"/><circle class="cls-2" cx="29.32" cy="38.04" r="7.96"/><path d="M29.32,47.07a9,9,0,1,1,9-9A9,9,0,0,1,29.32,47.07Zm0-15.92A6.88,6.88,0,1,0,36.2,38,6.89,6.89,0,0,0,29.32,31.15Z"/><circle class="cls-2" cx="29.32" cy="38.03" r="3.48"/><path d="M29.32,42.59A4.56,4.56,0,1,1,33.87,38,4.56,4.56,0,0,1,29.32,42.59Zm0-7A2.4,2.4,0,1,0,31.72,38,2.41,2.41,0,0,0,29.32,35.63Z"/><path class="cls-2" d="M13.33,14.78a3.84,3.84,0,1,1,7.38,1.47L25,14a8.15,8.15,0,1,0-13,6.88l4.42-2.33A3.84,3.84,0,0,1,13.33,14.78Z"/><path d="M12,21.94a1.08,1.08,0,0,1-.65-.22,9.21,9.21,0,0,1,1.26-15.5,9.21,9.21,0,0,1,13.51,7.72,1.08,1.08,0,0,1-.57,1l-4.29,2.26a1.08,1.08,0,0,1-1.5-1.37,2.76,2.76,0,1,0-5.31-1.06,2.77,2.77,0,0,0,2.2,2.7,1.08,1.08,0,0,1,.28,2l-4.42,2.33A1.07,1.07,0,0,1,12,21.94Zm4.9-14.63a7.07,7.07,0,0,0-6.24,10.37,7,7,0,0,0,1.47,1.9l1.93-1a4.91,4.91,0,1,1,8-4.23l1.81-1a7,7,0,0,0-.74-2.29A7.08,7.08,0,0,0,16.87,7.31Z"/><path d="M23,44a1.08,1.08,0,0,1-.95-.57L8.25,17.58a1.08,1.08,0,0,1,1.9-1L24,42.39A1.08,1.08,0,0,1,23,44Z"/><path d="M37.23,38.28h-.11a1.08,1.08,0,0,1-1-1.18l2.17-22.17a1.08,1.08,0,1,1,2.14.21L38.3,37.31A1.08,1.08,0,0,1,37.23,38.28Z"/></g></g></svg>