<svg xmlns="http://www.w3.org/2000/svg" viewBox="0 0 49.79 49.79" width="42px" height="42px"><defs><style>.cls-1{fill:none;}.cls-2{fill:#fff;}</style></defs><title>Fichier 38</title><g id="Calque_2" data-name="Calque 2"><g id="Calque_1-2" data-name="Calque 1"><rect class="cls-1" width="49.79" height="49.79"/><ellipse class="cls-2" cx="22.54" cy="23.15" rx="7.66" ry="18.54" transform="translate(-9.12 16.69) rotate(-34.23)"/><path d="M30.88,40.15a11.47,11.47,0,0,1-6-2.22,36.54,36.54,0,0,1-9.53-9.87A36.55,36.55,0,0,1,9.64,15.57c-.87-4.16-.2-7.24,1.87-8.65,4.12-2.8,12,2.06,18.26,11.31h0a36.56,36.56,0,0,1,5.68,12.49c.87,4.16.2,7.23-1.87,8.65A4.71,4.71,0,0,1,30.88,40.15ZM14.21,8.3a2.61,2.61,0,0,0-1.49.41c-1.29.88-1.64,3.22-1,6.43A34.37,34.37,0,0,0,17.1,26.85,34.37,34.37,0,0,0,26,36.13c2.74,1.8,5,2.33,6.34,1.45s1.64-3.22,1-6.43A34.38,34.38,0,0,0,28,19.44h0C23.09,12.25,17.41,8.3,14.21,8.3Z"/><path d="M36.49,44.46A1.07,1.07,0,0,1,35.6,44L13.92,12.12a1.08,1.08,0,0,1,1.78-1.21L37.38,42.78a1.08,1.08,0,0,1-.89,1.68Z"/><path d="M18.91,21.71a.5.5,0,0,1-.2,0l-7-3.07a.5.5,0,1,1,.4-.92l7,3.07a.5.5,0,0,1-.2,1Z"/><path d="M22.91,29.18a.49.49,0,0,1-.2,0L15.08,25.8a.5.5,0,1,1,.4-.92l7.62,3.33a.5.5,0,0,1-.2,1Z"/><path d="M26.81,24.84a.5.5,0,0,1-.5-.48l-.39-7.94a.5.5,0,0,1,1,0l.39,7.94a.5.5,0,0,1-.48.52Z"/><path d="M31.69,30.78a.5.5,0,0,1-.5-.49L31,23.77a.5.5,0,0,1,.49-.51.53.53,0,0,1,.51.49l.17,6.52a.5.5,0,0,1-.49.51Z"/><path d="M24.24,34.08a.49.49,0,0,1-.18,0l-4-1.57a.5.5,0,0,1,.36-.93l4,1.57a.5.5,0,0,1-.18,1Z"/></g></g></svg>