<svg xmlns="http://www.w3.org/2000/svg" viewBox="0 0 49.79 49.79" width="42px" height="42px"><defs><style>.cls-1{fill:none;}.cls-2{fill:#fff;}</style></defs><title>gateau</title><g id="Calque_2" data-name="Calque 2"><g id="Calque_1-2" data-name="Calque 1"><rect class="cls-1" width="49.79" height="49.79"/><polygon class="cls-2" points="39.41 31.33 7.95 41.43 7.95 25.83 39.41 15.73 39.41 31.33"/><path d="M7.95,42.43a1,1,0,0,1-1-1V25.83a1,1,0,0,1,.69-1L39.1,14.78a1,1,0,0,1,1.31,1v15.6a1,1,0,0,1-.69,1L8.25,42.38A1,1,0,0,1,7.95,42.43Zm1-15.87v13.5L38.41,30.6V17.11Zm30.46,4.77h0Z"/><polygon class="cls-2" points="39.41 31.33 7.95 41.43 7.95 35.77 39.41 25.67 39.41 31.33"/><path d="M7.95,42.43a1,1,0,0,1-1-1V35.77a1,1,0,0,1,.69-1L39.1,24.72a1,1,0,0,1,1.31,1v5.66a1,1,0,0,1-.69,1L8.25,42.38A1,1,0,0,1,7.95,42.43Zm1-5.93v3.56L38.41,30.6V27Zm30.46-5.17h0Z"/><path class="cls-2" d="M20.79,8.05,7.95,25.77l31.46-9.89a31.7,31.7,0,0,0-8.48-5.6A24.27,24.27,0,0,0,20.79,8.05Z"/><path d="M7.95,26.77a1,1,0,0,1-.81-1.59L20,7.46a1,1,0,0,1,.77-.41,25.07,25.07,0,0,1,10.6,2.32,32.48,32.48,0,0,1,8.77,5.8,1,1,0,0,1-.41,1.66L8.25,26.73A1,1,0,0,1,7.95,26.77ZM21.3,9,10.53,23.91l26.88-8.45a33,33,0,0,0-6.9-4.27A24,24,0,0,0,21.3,9Z"/></g></g></svg>