<svg xmlns="http://www.w3.org/2000/svg" viewBox="0 0 34.49 19.04" width="42px" height="42px"><defs><style>.cls-1{fill:#fff;}</style></defs><title>guirelande</title><g id="Calque_2" data-name="Calque 2"><g id="Calque_1-2" data-name="Calque 1"><path class="cls-1" d="M4,4.89,1.08,13.13l9-3.8S5.87,7.69,4,4.89Z"/><path d="M1.08,14.2a1.08,1.08,0,0,1-1-1.43L2.95,4.53a1.08,1.08,0,0,1,.87-.71,1.07,1.07,0,0,1,1,.46c1.7,2.49,5.54,4,5.58,4a1.08,1.08,0,0,1,0,2l-9,3.8A1.07,1.07,0,0,1,1.08,14.2ZM4.36,7,2.9,11.19,7.45,9.25A16.06,16.06,0,0,1,4.36,7Z"/><path class="cls-1" d="M10,9l1.57,9,6.22-7.48S13,10.61,10,9Z"/><path d="M11.6,19a1.08,1.08,0,0,1-1.06-.89L9,9.18A1.08,1.08,0,0,1,10.54,8c2.69,1.45,7.2,1.35,7.25,1.36a1.05,1.05,0,0,1,1,.61,1.08,1.08,0,0,1-.14,1.16l-6.22,7.48A1.08,1.08,0,0,1,11.6,19Zm-.18-8.31.83,4.76,3.34-4A20,20,0,0,1,11.43,10.72Z"/><path class="cls-1" d="M17.83,10.48l5.35,7L25.31,8S21.21,10.56,17.83,10.48Z"/><path d="M23.18,18.61a1.08,1.08,0,0,1-.86-.43l-5.35-7a1.08,1.08,0,0,1,.88-1.73c3,.09,6.86-2.26,6.9-2.28a1.08,1.08,0,0,1,1.61,1.15l-2.13,9.49a1.08,1.08,0,0,1-.82.82Zm-3.33-7.24L22.63,15l1.12-5A17.91,17.91,0,0,1,19.85,11.37Z"/><path class="cls-1" d="M25.31,8.17l8.1,4.61L31.28,3.29S28.41,6.79,25.31,8.17Z"/><path d="M33.41,13.86a1.07,1.07,0,0,1-.53-.14l-8.1-4.61a1.08,1.08,0,0,1,.09-1.92c2.83-1.26,5.55-4.55,5.58-4.58a1.08,1.08,0,0,1,1.88.45l2.13,9.49a1.08,1.08,0,0,1-1,1.31ZM27.5,8.18l4.33,2.47L30.68,5.53A21.45,21.45,0,0,1,27.5,8.18Z"/><path d="M16.77,10.69C4.56,10.69.69,1.87.54,1.49a1.08,1.08,0,0,1,2-.84C2.66,1,6,8.54,16.77,8.54c9,0,15-8,15.06-8.1a1.08,1.08,0,0,1,1.74,1.27C33.3,2.08,26.89,10.69,16.77,10.69Z"/></g></g></svg>