<svg xmlns="http://www.w3.org/2000/svg" viewBox="0 0 49.79 49.79" width="42px" height="42px"><defs><style>.cls-1{fill:none;}.cls-2{fill:#fff;}</style></defs><title>hochet</title><g id="Calque_2" data-name="Calque 2"><g id="Calque_1-2" data-name="Calque 1"><rect class="cls-1" width="49.79" height="49.79"/><path class="cls-2" d="M19.07,42.43A8.19,8.19,0,1,1,6.25,32.23c2.29-2.87,7.09-3,9.87-5.88,2.23-2.29,4.62-2.85,6.41-1.43s1.74,3.8.14,6.53C20.81,34.65,21.39,39.51,19.07,42.43Z"/><path d="M12.65,46.52A9.18,9.18,0,0,1,5.47,31.61c1.34-1.69,3.37-2.52,5.33-3.33a13.25,13.25,0,0,0,4.61-2.63C18,23,21,22.41,23.15,24.14s2.29,4.56.38,7.82a15.16,15.16,0,0,0-1.42,4.77c-.42,2.23-.85,4.54-2.26,6.32h0A9.18,9.18,0,0,1,12.65,46.52Zm7.7-21.37a5.63,5.63,0,0,0-3.51,1.9,14.93,14.93,0,0,1-5.28,3.08c-1.8.74-3.51,1.44-4.52,2.72a7.19,7.19,0,1,0,11.25,8.95c1.1-1.38,1.47-3.36,1.86-5.44A16.82,16.82,0,0,1,21.81,31c.79-1.36,1.86-3.84.1-5.24A2.44,2.44,0,0,0,20.35,25.15ZM19.07,42.43h0Z"/><circle class="cls-2" cx="12.17" cy="37.94" r="3.17" transform="translate(-25.1 23.85) rotate(-51.5)"/><path d="M12.16,42.11a4.17,4.17,0,1,1,2.61-7.44,4.18,4.18,0,0,1,.67,5.86h0a4.14,4.14,0,0,1-2.79,1.55Zm0-6.34a2.17,2.17,0,0,0-1.35,3.87,2.14,2.14,0,0,0,1.6.46,2.17,2.17,0,0,0-.24-4.33Zm2.48,4.14h0Z"/><circle class="cls-2" cx="38.69" cy="10.8" r="3.79"/><path d="M38.69,15.59a4.78,4.78,0,1,1,4.79-4.79A4.79,4.79,0,0,1,38.69,15.59Zm0-7.57a2.78,2.78,0,1,0,2.79,2.78A2.79,2.79,0,0,0,38.69,8Z"/><circle class="cls-2" cx="28.23" cy="19.83" r="12.81"/><path d="M28.23,33.63A13.81,13.81,0,1,1,42,19.83,13.82,13.82,0,0,1,28.23,33.63ZM28.23,8A11.81,11.81,0,1,0,40,19.83,11.82,11.82,0,0,0,28.23,8Z"/><line class="cls-2" x1="19.82" y1="10.17" x2="39.09" y2="26.58"/><path d="M39.09,27.08a.5.5,0,0,1-.32-.12L19.49,10.55a.5.5,0,1,1,.65-.76L39.42,26.2a.5.5,0,0,1-.32.88Z"/><line class="cls-2" x1="17.24" y1="14.68" x2="35.31" y2="30.5"/><path d="M35.31,31a.5.5,0,0,1-.33-.12L16.91,15.06a.5.5,0,1,1,.66-.75L35.64,30.12a.5.5,0,0,1-.33.88Z"/></g></g></svg>