<svg xmlns="http://www.w3.org/2000/svg" viewBox="0 0 49.79 49.79" width="42px" height="42px"><defs><style>.cls-1{fill:none;}.cls-2{fill:#fff;}</style></defs><title>levres</title><g id="Calque_2" data-name="Calque 2"><g id="Calque_1-2" data-name="Calque 1"><rect class="cls-1" width="49.79" height="49.79"/><path class="cls-2" d="M37.15,23a17.1,17.1,0,0,1-.57,8C35.2,35.12,11.93,35.41,8,27.32,8,27.32,22.83,19,37.15,23Z"/><path d="M26.12,34.9c-7,0-16.48-1.77-19.05-7.11a1.08,1.08,0,0,1,.44-1.4C8.13,26,22.86,17.85,37.44,22a1.08,1.08,0,0,1,.76.82,18.1,18.1,0,0,1-.61,8.56c-.87,2.58-6.08,3.28-9.11,3.47C27.74,34.88,26.95,34.9,26.12,34.9ZM9.56,27.75c2.89,3.79,11.55,5.39,18.79,4.93,5-.31,7-1.49,7.21-2a16.08,16.08,0,0,0,.64-6.81C24.74,20.95,13,26.06,9.56,27.75Z"/><path d="M7.66,27.45a13.63,13.63,0,0,0,5.2-.78c2.71-.87,6.27-3,9.84-3.44,6.42-.84,13.16.47,16.4.47,0,0,2-3.42-2.28-7.28s-8.75.81-8.75.81S20.1,7,7.66,27.45Z"/><path d="M8.23,28.55a6.48,6.48,0,0,1-.69,0,1.08,1.08,0,0,1-.8-1.63c5.19-8.51,10.33-13,15.29-13.27a8.43,8.43,0,0,1,6.08,2.12c2.12-1.7,6-3.27,9.43-.12C42.39,20,40.14,24.07,40,24.24a1.08,1.08,0,0,1-.93.54c-1.07,0-2.47-.13-4.09-.29a54.64,54.64,0,0,0-12.17-.19,25.74,25.74,0,0,0-6.49,2.14c-1.12.48-2.19.94-3.17,1.26A16.49,16.49,0,0,1,8.23,28.55Zm-.57-1.1h0ZM22.54,15.76h-.41C19.41,16,15.11,18,9.66,26.3a16.21,16.21,0,0,0,2.87-.65c.88-.28,1.9-.72,3-1.19a27.34,27.34,0,0,1,7.06-2.3,57.11,57.11,0,0,1,12.65.18c1.2.11,2.28.22,3.16.26.24-1,.33-3-2.27-5.38-3.42-3.1-7.1.6-7.25.76a1.08,1.08,0,0,1-1.62-.08A6.29,6.29,0,0,0,22.54,15.76Z"/><path d="M7.66,27.45a52.63,52.63,0,0,0,30.51,3.28s2.23,3.31-1.06,7C34.59,40.65,13.88,43.53,7.66,27.45Z"/><path d="M27.81,41.09a28.55,28.55,0,0,1-5-.43c-5.5-1-12.76-4-16.17-12.81a1.08,1.08,0,0,1,1.48-1.35A52,52,0,0,0,38,29.68a1.07,1.07,0,0,1,1.09.46C40,31.52,41,35,37.92,38.49,36.62,40,32.51,41.09,27.81,41.09Zm-18-11.58c3.35,6,9,8.25,13.4,9,6.63,1.18,12.25-.52,13.09-1.47a4.93,4.93,0,0,0,1.26-5.12A54.47,54.47,0,0,1,9.81,29.51Z"/><path class="cls-2" d="M38,20.66s-1.67-4.38-5.61-4.07S33.47,20.11,38,20.66Z"/><path class="cls-2" d="M31.72,32.26s4.23-1,5.49.8c1,1.38.6,4.26-2.11,5.58C35.1,38.64,37,33.74,31.72,32.26Z"/><circle cx="15.18" cy="10.87" r="1.76"/></g></g></svg>