<svg xmlns="http://www.w3.org/2000/svg" viewBox="0 0 49.79 49.79" width="42px" height="42px"><defs><style>.cls-1{fill:none;}.cls-2{fill:#fff;}</style></defs><title>lune</title><g id="Calque_2" data-name="Calque 2"><g id="Calque_1-2" data-name="Calque 1"><rect class="cls-1" width="49.79" height="49.79"/><path class="cls-2" d="M13.77,16l.63,1.94a.42.42,0,0,0,.4.29h2a.42.42,0,0,1,.25.76l-1.65,1.2a.42.42,0,0,0-.15.47l.63,1.94a.42.42,0,0,1-.65.47l-1.65-1.2a.42.42,0,0,0-.5,0L11.48,23a.42.42,0,0,1-.65-.47l.63-1.94a.42.42,0,0,0-.15-.47L9.65,19a.42.42,0,0,1,.25-.76h2a.42.42,0,0,0,.4-.29L13,16A.42.42,0,0,1,13.77,16Z"/><path d="M15.52,23.61a.92.92,0,0,1-.54-.18l-1.65-1.2-1.56,1.2a.92.92,0,0,1-1.09,0,.91.91,0,0,1-.33-1L11,20.47,9.36,19.36a.92.92,0,0,1,.54-1.67h2l.56-1.88a.92.92,0,0,1,.88-.64h0a.92.92,0,0,1,.88.64l.63,1.94,2-.05a.92.92,0,0,1,.54,1.67l-1.65,1.2.66,1.85a.92.92,0,0,1-.88,1.21Zm-5.38-4.92,1.46,1.06a.92.92,0,0,1,.34,1l-.56,1.71,1.45-1.06a.92.92,0,0,1,1.09,0l1.45,1.06-.56-1.71a.92.92,0,0,1,.33-1l1.46-1.06h-1.8a.92.92,0,0,1-.88-.64l-.58-1.79-.53,1.79a.92.92,0,0,1-.88.64Zm-.24,0Z"/><path class="cls-2" d="M37.58,5.89l-.18,2a.42.42,0,0,0,.26.43l1.87.8a.42.42,0,0,1-.07.8l-2,.46a.42.42,0,0,0-.33.37l-.18,2a.42.42,0,0,1-.78.18l-1-1.75a.42.42,0,0,0-.46-.2l-2,.46a.42.42,0,0,1-.41-.69l1.34-1.53a.42.42,0,0,0,0-.49L32.62,7a.42.42,0,0,1,.53-.6l1.87.8a.42.42,0,0,0,.48-.11l1.34-1.53A.42.42,0,0,1,37.58,5.89Z"/><path d="M36.55,13.68a.92.92,0,0,1-.79-.45l-1-1.75-1.9.49a.92.92,0,0,1-.9-1.51l1.34-1.53L32.19,7.28A.92.92,0,0,1,33.34,6l1.87.8,1.25-1.52A.92.92,0,0,1,37.52,5a.91.91,0,0,1,.56.93h0L37.9,8l1.83.72a.92.92,0,0,1,.56.93.91.91,0,0,1-.71.82l-2,.46-.12,2a.92.92,0,0,1-.71.82Zm-1.77-3.16a.92.92,0,0,1,.79.45l.92,1.54.16-1.79a.92.92,0,0,1,.71-.82l1.75-.4L37.46,8.8a.92.92,0,0,1-.56-.93L37.07,6,35.88,7.43a.92.92,0,0,1-1.06.24L33.17,7l.92,1.54A.92.92,0,0,1,34,9.59L32.82,11l1.75-.4ZM33,6.88Zm4.13-1h0Z"/><path class="cls-2" d="M33.45,37.33l1.09,1.72a.42.42,0,0,0,.46.19l2-.5a.42.42,0,0,1,.43.68L36.1,41a.42.42,0,0,0,0,.49l1.09,1.72a.42.42,0,0,1-.51.62l-1.89-.76a.42.42,0,0,0-.48.12L33,44.75a.42.42,0,0,1-.75-.3l.13-2a.42.42,0,0,0-.27-.42l-1.89-.76a.42.42,0,0,1,.05-.8l2-.5a.42.42,0,0,0,.32-.38l.13-2A.42.42,0,0,1,33.45,37.33Z"/><path d="M32.64,45.41a.92.92,0,0,1-.92-1l.13-2L30,41.71a.92.92,0,0,1-.58-.92.91.91,0,0,1,.69-.83l2-.5.08-2a.91.91,0,0,1,.69-.83.92.92,0,0,1,1,.4h0L35,38.79l1.89-.53a.92.92,0,0,1,1,.4.91.91,0,0,1-.07,1.08l-1.3,1.57,1.09,1.63a.92.92,0,0,1-1.12,1.35l-1.89-.76-1.21,1.54A.92.92,0,0,1,32.64,45.41Zm-2-4.53,1.67.67a.92.92,0,0,1,.58.92l-.12,1.79,1.15-1.38a.92.92,0,0,1,1-.27l1.67.67-1-1.52a.92.92,0,0,1,.07-1.08l1.15-1.38-1.74.44a.92.92,0,0,1-1-.4l-1-1.59L33,39.6a.92.92,0,0,1-.69.83ZM33,37.6h0Z"/><path class="cls-2" d="M19,8.89c-.26,0-.52,0-.77,0A14.71,14.71,0,0,1,9.48,34.87a14.73,14.73,0,1,0,9.5-26Z"/><path d="M19,39.35A15.73,15.73,0,0,1,8.83,35.63a1,1,0,0,1,.59-1.76A13.71,13.71,0,0,0,17.57,9.69a1,1,0,0,1,.59-1.76h.22l.61,0a15.73,15.73,0,1,1,0,31.47Zm-6.85-3.84A13.73,13.73,0,1,0,20.69,10a15.71,15.71,0,0,1-8.56,25.53Z"/></g></g></svg>