<svg xmlns="http://www.w3.org/2000/svg" viewBox="0 0 49.79 49.79" width="42px" height="42px"><defs><style>.cls-1{fill:none;}.cls-2{fill:#fff;}</style></defs><title>mascara</title><g id="Calque_2" data-name="Calque 2"><g id="Calque_1-2" data-name="Calque 1"><rect class="cls-1" width="49.79" height="49.79"/><path class="cls-2" d="M26.59,46l-3.21.63A2.43,2.43,0,0,1,20.7,44.9L17.31,36A2.54,2.54,0,0,1,19,32.61l6.25-1.23A2.54,2.54,0,0,1,28,33.87l.37,9.48A2.43,2.43,0,0,1,26.59,46Z"/><path d="M23,47.78a3.59,3.59,0,0,1-3.31-2.54L16.3,36.4a4,4,0,0,1,.28-3.27,3.21,3.21,0,0,1,2.16-1.58L25,30.32a3.21,3.21,0,0,1,2.58.63,3.93,3.93,0,0,1,1.51,2.84l.37,9.52a3.5,3.5,0,0,1-2.66,3.78h0l-3.21.63A3.05,3.05,0,0,1,23,47.78ZM26.59,46h0Zm-1-13.62-.19,0-6.25,1.23a1.08,1.08,0,0,0-.72.55,1.81,1.81,0,0,0-.12,1.46l3.38,8.84a1.39,1.39,0,0,0,1.46,1.1L26.38,45a1.38,1.38,0,0,0,.93-1.55l-.37-9.52a1.79,1.79,0,0,0-.67-1.25A1.14,1.14,0,0,0,25.6,32.41Z"/><path d="M22.08,33.07A1.08,1.08,0,0,1,21,32.2L16,6.54a1.08,1.08,0,0,1,2.11-.42l5.07,25.66A1.08,1.08,0,0,1,22.29,33Z"/><path d="M14.75,7.86a1.08,1.08,0,0,1-.21-2.13l4.53-.89a1.08,1.08,0,0,1,.42,2.11L15,7.84Z"/><path d="M16,14.13A1.08,1.08,0,0,1,15.78,12l4.53-.89a1.08,1.08,0,1,1,.42,2.11l-4.53.89Z"/><path d="M17.28,20.69a1.08,1.08,0,0,1-.21-2.13l4.53-.89A1.08,1.08,0,1,1,22,19.77l-4.53.89Z"/><path d="M13.44,11.27a1.08,1.08,0,0,1-.21-2.13l8.33-1.64A1.08,1.08,0,1,1,22,9.6l-8.33,1.64Z"/><path d="M14.79,18.09A1.08,1.08,0,0,1,14.58,16l8.33-1.64a1.08,1.08,0,1,1,.42,2.11L15,18.07Z"/></g></g></svg>