<svg xmlns="http://www.w3.org/2000/svg" viewBox="0 0 49.79 49.79" width="42px" height="42px"><defs><style>.cls-1{fill:none;}.cls-2{fill:#fff;}</style></defs><title>miroir</title><g id="Calque_2" data-name="Calque 2"><g id="Calque_1-2" data-name="Calque 1"><rect class="cls-1" width="49.79" height="49.79"/><polyline class="cls-2" points="22.34 10.73 25.64 6.82 28.77 10.73"/><path d="M28.77,11.81a1.07,1.07,0,0,1-.84-.4L25.62,8.52l-2.45,2.91A1.08,1.08,0,1,1,21.52,10l3.3-3.91a1.08,1.08,0,0,1,.82-.38h0a1.08,1.08,0,0,1,.83.4l3.13,3.91a1.08,1.08,0,0,1-.84,1.75Z"/><rect class="cls-2" x="13.84" y="10.73" width="23.33" height="30.31"/><path d="M37.18,42.12H13.84A1.08,1.08,0,0,1,12.77,41V10.73a1.08,1.08,0,0,1,1.08-1.08H37.18a1.08,1.08,0,0,1,1.08,1.08V41A1.08,1.08,0,0,1,37.18,42.12ZM14.92,40H36.1V11.81H14.92Z"/><rect x="17.44" y="14.61" width="16.14" height="22.55"/><path d="M33.58,38.24H17.44a1.08,1.08,0,0,1-1.08-1.08V14.61a1.08,1.08,0,0,1,1.08-1.08H33.58a1.08,1.08,0,0,1,1.08,1.08V37.16A1.08,1.08,0,0,1,33.58,38.24ZM18.52,36.09h14V15.69h-14Z"/><polygon class="cls-2" points="17.84 30.67 17.84 28.66 32.44 15.07 33.18 15.06 33.18 16.58 17.84 30.67"/><polygon class="cls-2" points="17.92 37.46 17.92 32.56 33.18 18.52 33.1 23.5 17.92 37.46"/></g></g></svg>