<svg xmlns="http://www.w3.org/2000/svg" viewBox="0 0 49.79 49.79" width="42px" height="42px"><defs><style>.cls-1,.cls-3{fill:none;}.cls-2{fill:#fff;}.cls-3{stroke:#000;stroke-linejoin:round;stroke-width:2px;}</style></defs><title>movie</title><g id="Calque_2" data-name="Calque 2"><g id="Calque_1-2" data-name="Calque 1"><rect class="cls-1" width="49.79" height="49.79"/><path class="cls-2" d="M6.56,22.26V38.13a4.16,4.16,0,0,0,4.16,4.16h27.6a4.16,4.16,0,0,0,4.16-4.16V22.26Z"/><path d="M38.32,43.29H10.72a5.17,5.17,0,0,1-5.16-5.16V22.26a1,1,0,0,1,1-1H42.48a1,1,0,0,1,1,1V38.13A5.17,5.17,0,0,1,38.32,43.29Zm-30.76-20V38.13a3.16,3.16,0,0,0,3.16,3.16h27.6a3.16,3.16,0,0,0,3.16-3.16V23.26Z"/><rect x="6.6" y="28.77" width="35.88" height="2"/><line class="cls-2" x1="9.93" y1="22.26" x2="17.44" y2="29.77"/><rect x="12.19" y="20.71" width="3" height="10.62" transform="translate(-14.39 17.3) rotate(-45)"/><line class="cls-2" x1="19.95" y1="22.26" x2="27.46" y2="29.77"/><rect x="22.2" y="20.71" width="3" height="10.62" transform="translate(-11.46 24.38) rotate(-45)"/><line class="cls-2" x1="30.79" y1="22.26" x2="38.3" y2="29.77"/><rect x="33.05" y="20.71" width="3" height="10.62" transform="translate(-8.28 32.05) rotate(-45)"/><path class="cls-2" d="M36.56,8.41,9.32,12.88a4.16,4.16,0,0,0-3.43,4.78l.81,5,35.44-5.83-.81-5A4.16,4.16,0,0,0,36.56,8.41Z"/><path d="M6.7,23.61a1,1,0,0,1-1-.84l-.81-5A5.17,5.17,0,0,1,9.16,11.9L36.39,7.42a5.16,5.16,0,0,1,5.93,4.25l.81,5a1,1,0,0,1-.82,1.15L6.87,23.6ZM37.24,9.35a3.17,3.17,0,0,0-.52,0h0L9.48,13.87a3.16,3.16,0,0,0-2.6,3.63l.65,4L41,16l-.65-4a3.16,3.16,0,0,0-3.11-2.65Z"/><path class="cls-3" d="M17.61,11.52"/><line class="cls-2" x1="17.61" y1="11.52" x2="10.04" y2="22.07"/><rect x="7.33" y="15.29" width="12.98" height="3" transform="translate(-7.88 18.23) rotate(-54.34)"/><line class="cls-2" x1="27.49" y1="9.9" x2="19.92" y2="20.44"/><rect x="17.21" y="13.67" width="12.98" height="3" transform="translate(-2.44 25.58) rotate(-54.34)"/><line class="cls-2" x1="38.19" y1="8.14" x2="30.62" y2="18.68"/><rect x="27.92" y="11.91" width="12.98" height="3" transform="translate(3.45 33.55) rotate(-54.34)"/></g></g></svg>