<svg xmlns="http://www.w3.org/2000/svg" viewBox="0 0 49.79 49.79" width="42px" height="42px"><defs><style>.cls-1{fill:none;}.cls-2{fill:#fff;}</style></defs><title>nuage</title><g id="Calque_2" data-name="Calque 2"><g id="Calque_1-2" data-name="Calque 1"><rect class="cls-1" width="49.79" height="49.79"/><path class="cls-2" d="M27.79,20.85h-.08a4.93,4.93,0,0,0-7.25-3.46A6,6,0,0,0,8.7,18.76a4.93,4.93,0,0,0-2.29,9.59A6.79,6.79,0,0,0,17.14,33a5.73,5.73,0,0,0,9.36-4.25,4,4,0,1,0,1.3-7.88Z"/><path d="M20.77,35.27a6.75,6.75,0,0,1-3.66-1.08,7.73,7.73,0,0,1-4,1.08,7.81,7.81,0,0,1-7.63-6.18A5.93,5.93,0,0,1,7.87,17.67,7,7,0,0,1,21,16.07a5.93,5.93,0,0,1,7.52,3.82,5,5,0,0,1-.71,10l-.43,0A6.69,6.69,0,0,1,20.77,35.27ZM17.14,32a1,1,0,0,1,.63.23,4.73,4.73,0,0,0,7.72-3.51,1,1,0,0,1,1.32-.92,3,3,0,1,0,1-5.93A1,1,0,0,1,26.73,21a3.93,3.93,0,0,0-5.78-2.76,1,1,0,0,1-1.44-.56A5,5,0,0,0,9.7,18.85a1,1,0,0,1-1.18.89,3.93,3.93,0,0,0-1.83,7.64,1,1,0,0,1,.71.83,5.79,5.79,0,0,0,9.15,3.95A1,1,0,0,1,17.14,32Z"/><path class="cls-2" d="M43.21,33.28a2.44,2.44,0,0,0-.6.08s0-.05,0-.08a5,5,0,0,0-9.67-1.93,3.54,3.54,0,0,0-.38,0,3.5,3.5,0,1,0,2.25,6.15,5,5,0,0,0,6.25-.56,2.45,2.45,0,1,0,2.15-3.63Z"/><path d="M37.58,39.31a6,6,0,0,1-2.72-.65,4.45,4.45,0,0,1-2.3.65,4.5,4.5,0,0,1-.22-9,6,6,0,0,1,11.2,2,3.46,3.46,0,1,1-2.62,6A6,6,0,0,1,37.58,39.31Zm-2.78-2.84a1,1,0,0,1,.55.17,4.1,4.1,0,0,0,5-.45,1,1,0,0,1,1.57.24,1.47,1.47,0,1,0,.92-2.1,1,1,0,0,1-1.24-1,4,4,0,0,0-7.74-1.59,1,1,0,0,1-1,.61l-.14,0h-.13a2.5,2.5,0,1,0,0,5,2.46,2.46,0,0,0,1.6-.6A1,1,0,0,1,34.81,36.47Z"/></g></g></svg>