<svg xmlns="http://www.w3.org/2000/svg" viewBox="0 0 49.79 49.79" width="42px" height="42px"><defs><style>.cls-1{fill:none;}.cls-2{fill:#fff;}</style></defs><title>oeil</title><g id="Calque_2" data-name="Calque 2"><g id="Calque_1-2" data-name="Calque 1"><rect class="cls-1" width="49.79" height="49.79"/><path d="M11.37,19.53s4.78-6.63,13.11-5c8.14,1.6,17.76,9.37,17.76,9.37l-.9-3.81C33.07,13.34,25.18,12,19.55,12.78s-8.19,6.44-8.19,6.44Z"/><path d="M42.24,24.9a1,1,0,0,1-.63-.22c-.09-.08-9.53-7.64-17.32-9.17-7.61-1.5-12.07,4.54-12.11,4.6a1,1,0,0,1-1.81-.58v-.31a1,1,0,0,1,.09-.41c.11-.25,2.86-6.2,9-7,4.28-.57,12.9-.35,22.56,7.53a1,1,0,0,1,.34.55l.9,3.81a1,1,0,0,1-1,1.23Zm-16-11c5.54,1.53,11.34,5.31,14.42,7.53l-.18-.79A30.72,30.72,0,0,0,26.21,13.91Z"/><path d="M16.74,30s-1.25,2.69-6.47,2.09c0,0,6.76,3.83,10,1.73,0,0-1.14,3.4-6.22,4a9,9,0,0,0,7.46-.25s1.25,2.71-2.56,4.13c0,0,6.15.09,7.9-4.18A5,5,0,0,1,27,42.15s3.31-2.06,3.85-4.66a2.64,2.64,0,0,1,1,3.63,9.65,9.65,0,0,0,2.32-4.85s2.37,1.39,1.74,3.39c0,0,1.14-.68,2.77-3.88C38.69,35.79,21.1,27.81,16.74,30Z"/><path d="M27,43.15a1,1,0,0,1-.93-1.37,4.94,4.94,0,0,0,.39-2c-2.67,2.87-7.35,2.82-7.58,2.83a1,1,0,0,1-.33-1.94,3.26,3.26,0,0,0,2-1.51,1.61,1.61,0,0,0,.09-.25,9.89,9.89,0,0,1-7-.27,1,1,0,0,1,.33-1.89,7.74,7.74,0,0,0,3.78-1.36c-3.43,0-7.34-2.17-7.9-2.49a1,1,0,0,1,.61-1.86c4.38.5,5.44-1.5,5.45-1.52a1,1,0,0,1,.46-.47c4.64-2.3,21,5,22.8,5.81a1,1,0,0,1,.48,1.36c-1.67,3.29-2.91,4.15-3.15,4.29A1,1,0,0,1,35,39.37a1.4,1.4,0,0,0-.2-1.18,11.88,11.88,0,0,1-2.17,3.61A1,1,0,0,1,31,40.68a1.88,1.88,0,0,0,.21-1.29A12.14,12.14,0,0,1,27.54,43,1,1,0,0,1,27,43.15Zm-5.54-6.62a1,1,0,0,1,.91.58,3.72,3.72,0,0,1,0,2.83l-.06.13a5.53,5.53,0,0,0,3.54-3,1,1,0,0,1,1.73-.21,5.34,5.34,0,0,1,.86,2.77,5.28,5.28,0,0,0,1.42-2.36,1,1,0,0,1,1.46-.67A3.74,3.74,0,0,1,32.71,38a5.64,5.64,0,0,0,.47-1.76,1,1,0,0,1,1.5-.78,5.31,5.31,0,0,1,1.93,2c.21-.31.44-.68.69-1.12-6.56-2.88-16.82-6.54-19.88-5.5a5.52,5.52,0,0,1-3,2c1.93.64,4,1,5.28.17a1,1,0,0,1,1.5,1.15,6.8,6.8,0,0,1-2.9,3.31A8.42,8.42,0,0,0,21,36.63,1,1,0,0,1,21.47,36.53Z"/><path class="cls-2" d="M15.68,28.7s-3.37-6,4.58-6.75S38,25.32,41.34,35.49c0,0-3.92.46-11.58,1.25S16.29,30.47,15.68,28.7Z"/><path d="M28.58,37.8c-7.33,0-13-6.43-13.82-8.69-.25-.49-1.46-3-.29-5.26.88-1.66,2.8-2.63,5.7-2.89,8.16-.73,18.58,3.42,22.12,14.23a1,1,0,0,1-.83,1.3s-4,.47-11.6,1.25A12.41,12.41,0,0,1,28.58,37.8ZM22,22.87q-.85,0-1.67.07c-1.5.13-3.44.56-4.11,1.83-.76,1.44.3,3.41.31,3.43a1.06,1.06,0,0,1,.07.16c.42,1.2,5.84,8.11,13,7.38,5.12-.53,8.6-.91,10.31-1.11C36.7,26.42,28.81,22.87,22,22.87Z"/></g></g></svg>