<svg xmlns="http://www.w3.org/2000/svg" viewBox="0 0 49.79 49.79" width="42px" height="42px"><defs><style>.cls-1{fill:none;}.cls-2{fill:#fff;}</style></defs><title>parfum</title><g id="Calque_2" data-name="Calque 2"><g id="Calque_1-2" data-name="Calque 1"><rect class="cls-1" width="49.79" height="49.79"/><path class="cls-2" d="M22,6.2h4.7a1.63,1.63,0,0,1,1.63,1.63v9.76a1.63,1.63,0,0,1-1.63,1.63H22a1.63,1.63,0,0,1-1.63-1.63V7.84A1.64,1.64,0,0,1,22,6.2Z"/><path d="M26.73,20.23H22a2.64,2.64,0,0,1-2.63-2.64V7.83A2.64,2.64,0,0,1,22,5.2h4.7a2.64,2.64,0,0,1,2.63,2.63v9.76A2.64,2.64,0,0,1,26.73,20.23ZM22,7.2a.64.64,0,0,0-.63.63v9.76a.64.64,0,0,0,.63.64h4.7a.64.64,0,0,0,.63-.64V7.83a.64.64,0,0,0-.63-.63Z"/><path class="cls-2" d="M30.51,18.11H18.24a12.47,12.47,0,0,0,1,22.34H29.47A12.35,12.35,0,0,0,36.95,29,12.5,12.5,0,0,0,30.51,18.11Z"/><path d="M29.47,41.45H19.28a1,1,0,0,1-.39-.08A13.33,13.33,0,0,1,10.81,29a13.51,13.51,0,0,1,6.95-11.79,1,1,0,0,1,.49-.13H30.51a1,1,0,0,1,.49.13,13.54,13.54,0,0,1,7,11.81,13.31,13.31,0,0,1-8.08,12.32A1,1,0,0,1,29.47,41.45Zm-10-2h9.78A11.32,11.32,0,0,0,35.95,29a11.53,11.53,0,0,0-5.71-9.94H18.51A11.51,11.51,0,0,0,12.81,29,11.34,11.34,0,0,0,19.49,39.45Z"/><path d="M13.57,35.35a.5.5,0,0,1-.47-.68c.1-.27,2.63-6.55,8-6.7h.26c3.95-.11,8.42-.23,10.63-2.56a6,6,0,0,0,1.44-4.5.5.5,0,0,1,1,0,7,7,0,0,1-1.71,5.22C30.2,28.71,25.5,28.84,21.36,29H21.1c-4.68.13-7,6-7.07,6.07A.5.5,0,0,1,13.57,35.35Z"/></g></g></svg>