<svg xmlns="http://www.w3.org/2000/svg" viewBox="0 0 49.79 49.79" width="42px" height="42px"><defs><style>.cls-1{fill:none;}.cls-2{fill:#fff;}</style></defs><title>pinceau</title><g id="Calque_2" data-name="Calque 2"><g id="Calque_1-2" data-name="Calque 1"><rect class="cls-1" width="49.79" height="49.79"/><path class="cls-2" d="M20.42,17.21a57.34,57.34,0,0,0-2.87,11.66C16.16,38.2,16.76,46,18.89,46.35s5-7,6.39-16.33a57.38,57.38,0,0,0,.66-12Z"/><path d="M19,47.44l-.29,0c-1.65-.25-2.6-2.32-2.91-6.34a58,58,0,0,1,.66-12.37,58.47,58.47,0,0,1,2.93-11.89,1.08,1.08,0,0,1,1.16-.68L26.1,17A1.08,1.08,0,0,1,27,18a58.5,58.5,0,0,1-.67,12.22C25.37,36.68,22.76,47.44,19,47.44Zm2.1-29A58.87,58.87,0,0,0,18.62,29c-1.45,9.72-.46,15.76.47,16.27,1-.23,3.67-5.72,5.12-15.44A58.89,58.89,0,0,0,24.92,19Z"/><path d="M25.84,25h-.16l-7-1A1.08,1.08,0,0,1,19,21.82l7,1A1.08,1.08,0,0,1,25.84,25Z"/><path class="cls-2" d="M25.93,18l-5.4-.81L16.7,5.51A30,30,0,0,1,25,5.28a31,31,0,0,1,8,2.66Z"/><path d="M25.93,19.1h-.16l-5.4-.81a1.08,1.08,0,0,1-.86-.73L15.68,5.84a1.08,1.08,0,0,1,.83-1.39,30.82,30.82,0,0,1,8.67-.23A31.83,31.83,0,0,1,33.49,7a1.08,1.08,0,0,1,.4,1.58L26.81,18.65A1.08,1.08,0,0,1,25.93,19.1Zm-4.59-2.85,4.09.61,6-8.49a27.77,27.77,0,0,0-6.52-2,26.84,26.84,0,0,0-6.74,0Z"/><line class="cls-2" x1="21.75" y1="11.91" x2="22.29" y2="17.33"/><path d="M22.29,17.83a.5.5,0,0,1-.5-.45L21.25,12a.5.5,0,0,1,.45-.55.51.51,0,0,1,.55.45l.54,5.42a.5.5,0,0,1-.45.55Z"/><line class="cls-2" x1="24.2" y1="11.04" x2="23.25" y2="17.48"/><path d="M23.25,18h-.07a.5.5,0,0,1-.42-.57l1-6.44a.49.49,0,0,1,.57-.42.5.5,0,0,1,.42.57l-1,6.44A.5.5,0,0,1,23.25,18Z"/><line class="cls-2" x1="25.91" y1="13.26" x2="24.6" y2="17.54"/><path d="M24.6,18l-.15,0a.5.5,0,0,1-.33-.62l1.31-4.28a.5.5,0,1,1,1,.29l-1.31,4.28A.5.5,0,0,1,24.6,18Z"/></g></g></svg>