<svg xmlns="http://www.w3.org/2000/svg" viewBox="0 0 49.79 49.79" width="42px" height="42px"><defs><style>.cls-1{fill:none;}.cls-2{fill:#fff;}</style></defs><title>Fichier 40</title><g id="Calque_2" data-name="Calque 2"><g id="Calque_1-2" data-name="Calque 1"><rect class="cls-1" width="49.79" height="49.79"/><path class="cls-2" d="M4.37,20.28c0,.06,0,.11,0,.17a20.9,20.9,0,0,0,41.8,0c0-.06,0-.11,0-.17Z"/><path d="M25.26,42.43a22,22,0,0,1-22-22s0-.14,0-.16A1.16,1.16,0,0,1,4.37,19.2H46.15a1.08,1.08,0,0,1,1.08,1.07c0,.07,0,.12,0,.18A22,22,0,0,1,25.26,42.43ZM5.46,21.36a19.82,19.82,0,0,0,39.6,0Z"/><rect class="cls-2" x="4.38" y="10.98" width="41.77" height="9.43"/><path d="M46.16,21.48H4.38a1.08,1.08,0,0,1-1.08-1.08V11A1.08,1.08,0,0,1,4.38,9.9H46.16A1.08,1.08,0,0,1,47.23,11v9.43A1.08,1.08,0,0,1,46.16,21.48ZM5.46,19.33H45.08V12.05H5.46Z"/><path class="cls-2" d="M5,23.08l-.45,0a20.9,20.9,0,0,0,14.1,17.16A14,14,0,0,0,5,23.08Z"/><path d="M18.64,41.34a1.08,1.08,0,0,1-.34-.06,22.06,22.06,0,0,1-14.82-18,1.08,1.08,0,0,1,1-1.21H5A15.05,15.05,0,0,1,19.69,40.5a1.08,1.08,0,0,1-1,.83ZM5.81,24.19a19.92,19.92,0,0,0,12,14.63,12.43,12.43,0,0,0,.12-1.71A13,13,0,0,0,5.81,24.19Z"/><path class="cls-2" d="M46,23.14c-.36,0-.72-.05-1.08-.05a14,14,0,0,0-13.6,17.37A20.9,20.9,0,0,0,46,23.14Z"/><path d="M31.29,41.53a1.08,1.08,0,0,1-1-.82A15,15,0,0,1,44.88,22c.39,0,.78,0,1.17.06a1.08,1.08,0,0,1,1,1.21A22,22,0,0,1,31.6,41.49,1.07,1.07,0,0,1,31.29,41.53ZM44.71,24.16A13,13,0,0,0,31.94,37.1a12.5,12.5,0,0,0,.16,2A19.82,19.82,0,0,0,44.71,24.16Z"/><path d="M12.23,21.42a.5.5,0,0,1-.5-.5V11.06a.5.5,0,0,1,1,0v9.86A.5.5,0,0,1,12.23,21.42Z"/><path d="M18.86,21.42a.5.5,0,0,1-.5-.5V11.06a.5.5,0,0,1,1,0v9.86A.5.5,0,0,1,18.86,21.42Z"/><path d="M25.49,21.42a.5.5,0,0,1-.5-.5V11.06a.5.5,0,1,1,1,0v9.86A.5.5,0,0,1,25.49,21.42Z"/><path d="M32.13,21.42a.5.5,0,0,1-.5-.5V11.06a.5.5,0,0,1,1,0v9.86A.5.5,0,0,1,32.13,21.42Z"/><path d="M38.76,21.42a.5.5,0,0,1-.5-.5V11.06a.5.5,0,0,1,1,0v9.86A.5.5,0,0,1,38.76,21.42Z"/></g></g></svg>